<svg width="449" height="493" viewBox="0 0 449 493" fill="none" xmlns="http://www.w3.org/2000/svg">
<path d="M266 35H211C206.582 35 203 38.5817 203 43V111.204C203 114.156 204.626 116.869 207.23 118.26L235.622 133.428C238.037 134.718 240.944 134.684 243.328 133.336L269.936 118.297C272.447 116.878 274 114.217 274 111.332V43C274 38.5817 270.418 35 266 35Z" fill="#F0CC00"/>
<path d="M235.008 149.703L136.4 92.9698C132.584 90.7742 127.711 92.0748 125.496 95.8801L98.0266 143.081C95.8032 146.902 97.0996 151.801 100.922 154.022L156.027 186.042C161.35 189.136 161.33 196.831 155.992 199.897L100.952 231.507C97.1152 233.711 95.7959 238.611 98.0082 242.444L125.469 290.016C127.69 293.864 132.621 295.165 136.451 292.914L191.446 260.586C196.779 257.451 203.5 261.296 203.5 267.483V331C203.5 335.418 207.082 339 211.5 339H266C270.418 339 274 335.418 274 331V267.401C274 261.233 280.686 257.385 286.019 260.484L341.045 292.459C344.88 294.687 349.796 293.37 352.003 289.523L379.032 242.416C381.226 238.593 379.913 233.715 376.098 231.509L321.407 199.885C316.096 196.814 316.076 189.153 321.372 186.054L376.086 154.045C379.903 151.812 381.184 146.905 378.946 143.091L351.516 96.3447C349.293 92.5556 344.43 91.2684 340.623 93.4612L242.991 149.701C240.52 151.124 237.479 151.125 235.008 149.703Z" fill="#1B0754"/>
<path d="M73.248 364.4H93.344L102.304 428.528H102.56L111.52 364.4H131.616V454H118.304V386.16H118.048L107.808 454H96.032L85.792 386.16H85.536V454H73.248V364.4ZM142.123 364.4H180.523V377.2H156.203V400.88H175.531V413.68H156.203V441.2H180.523V454H142.123V364.4ZM188.623 364.4H210.127C217.124 364.4 222.372 366.277 225.871 370.032C229.37 373.787 231.119 379.291 231.119 386.544V431.856C231.119 439.109 229.37 444.613 225.871 448.368C222.372 452.123 217.124 454 210.127 454H188.623V364.4ZM209.871 441.2C212.175 441.2 213.924 440.517 215.119 439.152C216.399 437.787 217.039 435.568 217.039 432.496V385.904C217.039 382.832 216.399 380.613 215.119 379.248C213.924 377.883 212.175 377.2 209.871 377.2H202.703V441.2H209.871Z" fill="#14053E"/>
<path d="M241.248 364.4H255.328V441.2H278.496V454H241.248V364.4ZM285.248 364.4H299.328V454H285.248V364.4ZM309.873 364.4H327.537L341.233 418.032H341.489V364.4H354.033V454H339.569L322.673 388.592H322.417V454H309.873V364.4ZM364.498 364.4H378.578V402.16L396.498 364.4H410.578L393.81 397.296L410.834 454H396.114L384.21 414.064L378.578 425.456V454H364.498V364.4Z" fill="#14053E"/>
</svg>
