<svg width="20" height="22" viewBox="0 0 20 22" fill="none" xmlns="http://www.w3.org/2000/svg">
<path fill-rule="evenodd" clip-rule="evenodd" d="M1.5 21.5H6V20H1.5V2H13.5V9.5H15V2C14.9996 1.6023 14.8414 1.22101 14.5602 0.9398C14.279 0.658586 13.8977 0.500417 13.5 0.5H1.5C1.1023 0.500417 0.721015 0.658586 0.4398 0.9398C0.158586 1.22101 0.000416925 1.6023 0 2V20C0.000416925 20.3977 0.158586 20.779 0.4398 21.0602C0.721015 21.3414 1.1023 21.4996 1.5 21.5ZM7.5 9.5C8.09334 9.5 8.67336 9.32405 9.16671 8.99441C9.66006 8.66477 10.0446 8.19623 10.2716 7.64805C10.4987 7.09987 10.5581 6.49667 10.4424 5.91473C10.3266 5.33279 10.0409 4.79824 9.62132 4.37868C9.20176 3.95912 8.66721 3.6734 8.08527 3.55765C7.50333 3.44189 6.90013 3.5013 6.35195 3.72836C5.80377 3.95543 5.33524 4.33994 5.00559 4.83329C4.67595 5.32664 4.5 5.90666 4.5 6.5C4.5 7.29565 4.81607 8.05871 5.37868 8.62132C5.94129 9.18393 6.70435 9.5 7.5 9.5ZM7.5 5C7.79667 5 8.08668 5.08798 8.33336 5.2528C8.58003 5.41762 8.77229 5.65189 8.88582 5.92598C8.99935 6.20007 9.02906 6.50167 8.97118 6.79264C8.9133 7.08361 8.77044 7.35088 8.56066 7.56066C8.35088 7.77044 8.08361 7.9133 7.79264 7.97118C7.50166 8.02906 7.20006 7.99935 6.92598 7.88582C6.65189 7.77229 6.41762 7.58003 6.2528 7.33336C6.08797 7.08668 6 6.79667 6 6.5C6 6.10218 6.15804 5.72065 6.43934 5.43934C6.72064 5.15804 7.10218 5 7.5 5ZM9.75 10.25C10.3467 10.25 10.919 10.4871 11.341 10.909C11.7629 11.331 12 11.9033 12 12.5V13.25H10.5V12.5C10.5 12.3011 10.421 12.1103 10.2803 11.9697C10.1397 11.829 9.94891 11.75 9.75 11.75H5.25C5.05109 11.75 4.86032 11.829 4.71967 11.9697C4.57902 12.1103 4.5 12.3011 4.5 12.5V13.25H3V12.5C3 11.9033 3.23705 11.331 3.65901 10.909C4.08097 10.4871 4.65326 10.25 5.25 10.25H9.75ZM17.0303 11.2198L19.2803 13.4698C19.3499 13.5394 19.4052 13.622 19.4429 13.713C19.4806 13.804 19.5 13.9015 19.5 14C19.5 14.0985 19.4806 14.196 19.4429 14.287C19.4052 14.378 19.3499 14.4607 19.2803 14.5303L12.3106 21.5H9V18.1895L15.9698 11.2198C16.0394 11.1501 16.122 11.0948 16.213 11.0571C16.304 11.0194 16.4015 11 16.5 11C16.5985 11 16.696 11.0194 16.787 11.0571C16.878 11.0948 16.9606 11.1501 17.0303 11.2198ZM10.5 20H11.6894L15.4394 16.25L14.25 15.0606L10.5 18.8106V20ZM15.3106 14L16.5 15.1895L17.6894 14L16.5 12.8106L15.3106 14Z" fill="white"/>
</svg>
