<?xml version="1.0" encoding="utf-8"?>
<!-- Generator: Adobe Illustrator 27.5.0, SVG Export Plug-In . SVG Version: 6.00 Build 0)  -->
<svg version="1.1" xmlns="http://www.w3.org/2000/svg" xmlns:xlink="http://www.w3.org/1999/xlink" x="0px" y="0px"
	 viewBox="0 0 500 500.001" style="enable-background:new 0 0 500 500.001;" xml:space="preserve">
<g id="BACKGROUND">
	<rect style="fill:#FFFFFF;" width="500.001" height="500.001"/>
</g>
<g id="OBJECTS">
	<g>
		<path style="fill:#E8F5FF;" d="M62.483,170.124c-76.686,72.051-10,268.084,171,268.084c180.998,0,224.998-127.125,207.998-205.201
			c-17-78.075-120-65.085-177-35.58C207.483,226.932,181.483,58.316,62.483,170.124z"/>
		<g>
			<path style="opacity:0.8;fill:#81B3FC;" d="M237.684,195.902c0,2.191-1.775,3.966-3.967,3.966H114.87
				c-2.191,0-3.966-1.775-3.966-3.966V84.078c0-2.19,1.775-3.966,3.966-3.966h118.848c2.191,0,3.967,1.776,3.967,3.966V195.902z"/>
			<g>
				<g>
					<path style="fill:#222875;" d="M152.069,87.532l-1.139-20.913c0,0-9.109-7.777-0.854-17.979
						c8.178-10.105,39.265-10.722,42.014,0.188c0,0,6.461-2.271,6.372,9.3c-0.087,11.273-3.542,27.306-3.542,27.306L152.069,87.532z
						"/>
					<g>
						<path style="fill:#18125A;" d="M190.011,51.897c-11.246,6.957-24.775,9.796-37.903,9.203c-0.512-0.023-0.51,0.771,0,0.793
							c13.26,0.599,26.945-2.286,38.303-9.311C190.847,52.313,190.448,51.627,190.011,51.897z"/>
						<path style="fill:#18125A;" d="M154.276,57.925c-0.418,0.289-0.022,0.977,0.4,0.685c9.113-6.32,19.54-7.959,30.37-8.772
							c0.507-0.038,0.51-0.832,0-0.793C174.09,49.867,163.495,51.532,154.276,57.925z"/>
						<path style="fill:#18125A;" d="M152.664,55.238c6.74-10.983,21.634-13.087,32.92-8.644c0.478,0.188,0.682-0.58,0.211-0.765
							c-11.627-4.578-26.899-2.261-33.816,9.008C151.711,55.275,152.398,55.673,152.664,55.238z"/>
						<path style="fill:#18125A;" d="M192.08,58.862c1.265,5.549,1.702,11.223,2.4,16.86c0.062,0.5,0.857,0.506,0.793,0
							c-0.708-5.708-1.148-11.453-2.428-17.071C192.73,58.152,191.967,58.363,192.08,58.862z"/>
						<path style="fill:#18125A;" d="M196.694,58.033c-0.203-2.631-0.995-5.146-3.379-6.536c-0.443-0.259-0.841,0.427-0.399,0.685
							c2.652,1.547,2.945,4.559,3.077,7.349c0.161,3.41,0.11,6.772-0.454,10.148c-0.084,0.5,0.68,0.715,0.766,0.211
							C196.959,65.964,196.999,61.995,196.694,58.033z"/>
					</g>
				</g>
				<g>
					<path style="fill:#FFBDAB;" d="M146.211,85.433c0,3.384,2.743,6.128,6.128,6.128c3.384,0,6.128-2.744,6.128-6.128
						c0-3.384-2.744-6.128-6.128-6.128C148.954,79.305,146.211,82.05,146.211,85.433z"/>
					<path style="fill:#DD8F7A;" d="M149.294,83.208c1.568-0.283,3.24,0.095,4.137,1.534c0.248,0.398,0.424,0.807,0.556,1.222
						c-1.164-0.384-2.583,0.141-2.713,1.567c-0.155,1.706,1.692,2.389,3.102,1.984c0,0.01,0,0.021,0,0.031
						c0.014,0.511,0.807,0.512,0.793,0c-0.023-0.883-0.034-1.814-0.161-2.715c0.006-0.057-0.001-0.115-0.026-0.173
						c-0.175-1.095-0.543-2.133-1.373-2.959c-1.259-1.252-2.809-1.567-4.525-1.256C148.582,82.534,148.795,83.298,149.294,83.208z
						 M154.223,86.997c0.083,0.55,0.113,1.112,0.132,1.686c-0.775,0.268-2.312,0.237-2.301-0.873
						C152.066,86.589,153.413,86.304,154.223,86.997z"/>
				</g>
				<g>
					<path style="fill:#FFBDAB;" d="M201.844,85.433c0,3.384-2.744,6.128-6.128,6.128c-3.385,0-6.128-2.744-6.128-6.128
						c0-3.384,2.743-6.128,6.128-6.128C199.1,79.305,201.844,82.05,201.844,85.433z"/>
					<path style="fill:#DD8F7A;" d="M198.97,82.443c-1.717-0.311-3.266,0.004-4.524,1.256c-0.831,0.826-1.198,1.864-1.375,2.959
						c-0.023,0.058-0.031,0.116-0.024,0.173c-0.127,0.9-0.14,1.832-0.163,2.715c-0.012,0.512,0.781,0.511,0.793,0
						c0-0.011,0.001-0.021,0.001-0.031c1.41,0.405,3.255-0.278,3.101-1.984c-0.129-1.426-1.548-1.951-2.712-1.567
						c0.131-0.415,0.308-0.824,0.556-1.222c0.897-1.439,2.567-1.817,4.135-1.534C199.26,83.298,199.474,82.534,198.97,82.443z
						 M196.001,87.809c0.011,1.11-1.528,1.141-2.301,0.873c0.017-0.573,0.048-1.136,0.131-1.686
						C194.641,86.304,195.987,86.589,196.001,87.809z"/>
				</g>
				<path style="fill:#C3E0FE;" d="M211.401,199.868v-50.826c0-20.494-16.613-37.108-37.107-37.108l0,0
					c-20.492,0-37.106,16.614-37.106,37.108v50.826H211.401z"/>
				<g>
					<path style="fill:#FFBDAB;" d="M167.436,115.816c0,3.794,3.076,6.872,6.87,6.872l0,0c3.796,0,6.872-3.077,6.872-6.872V93.32
						c0-3.795-3.076-6.872-6.872-6.872l0,0c-3.794,0-6.87,3.077-6.87,6.872V115.816z"/>
					<path style="fill:#DD8F7A;" d="M181.178,110.455V93.32c0-3.795-3.076-6.872-6.872-6.872c-3.794,0-6.87,3.077-6.87,6.872v16.267
						c2.823,0.804,5.871,1.061,8.638,1.219C177.856,110.955,179.547,110.805,181.178,110.455z"/>
				</g>
				<g>
					<path style="fill:#FFBDAB;" d="M193.468,81.98v5.696c0,10.737-8.705,19.441-19.44,19.441c-10.736,0-19.44-8.705-19.44-19.441
						v-21.4c22.622-0.13,35.904-7.019,35.904-7.019L193.468,81.98z"/>
					<path style="fill:#FFCDC2;" d="M190.492,59.257c0,0-0.183,0.094-0.528,0.256c0.938,11.659,2.592,25.098-1.779,36.156
						c-2.056,5.138-5.539,8.464-9.73,10.936c8.602-2.005,15.014-9.714,15.014-18.928V81.98L190.492,59.257z"/>
				</g>
				<path style="fill:#FFFFFF;" d="M156.36,114.2l15.528,85.669H136.73v-52.346C136.73,133.183,144.656,120.701,156.36,114.2z"/>
				<path style="fill:#FFFFFF;" d="M192.229,114.2l-15.526,85.669h35.156v-52.346C211.858,133.183,203.933,120.701,192.229,114.2z"
					/>
				<g>
					<path style="fill:#DD8F7A;" d="M173.278,82.683c0-2.607,0-5.214,0-7.82c0-0.512,0.793-0.512,0.793,0c0,2.741,0,5.48,0,8.221
						c0,0.216-0.182,0.398-0.397,0.397c-1.489-0.008-4.856-0.417-4.515,1.997c0.294,2.079,3.02,2.192,4.617,2.225
						c0.511,0.011,0.513,0.804,0,0.793c-2.183-0.045-5.322-0.475-5.446-3.272C168.211,82.548,171.254,82.651,173.278,82.683z"/>
					<g>
						<path style="fill:#FF7466;" d="M183.591,89.415c-0.394,4.865-2.851,9.736-8.212,10.336c-2.502,0.281-5.138-0.292-7.073-1.991
							c-2.468-2.165-3.389-5.07-3.873-8.24c-0.076-0.5,0.688-0.715,0.766-0.211c0.774,5.073,3.362,9.65,9.036,9.741
							c5.475,0.087,8.174-4.831,8.563-9.636C182.837,88.908,183.631,88.906,183.591,89.415L183.591,89.415z"/>
					</g>
					<g>
						<path style="fill:#00061B;" d="M183.192,73.148c1.06,0,1.918,1.539,1.918,3.438c0,1.898-0.858,3.438-1.918,3.438
							c-1.058,0-1.917-1.54-1.917-3.438C181.276,74.687,182.134,73.148,183.192,73.148z"/>
						<path style="fill:#00061B;" d="M164.815,73.148c1.058,0,1.917,1.539,1.917,3.438c0,1.898-0.858,3.438-1.917,3.438
							s-1.916-1.54-1.916-3.438C162.898,74.687,163.757,73.148,164.815,73.148z"/>
					</g>
					<g>
						<path style="fill:#222875;" d="M161.739,69.656c0.978-1.932,3.028-2.188,4.91-1.477c0.474,0.179,0.268,0.946-0.211,0.765
							c-1.552-0.586-3.187-0.519-4.014,1.113C162.193,70.512,161.51,70.111,161.739,69.656z"/>
						<path style="fill:#222875;" d="M181.406,68.178c1.883-0.71,3.931-0.455,4.909,1.477c0.231,0.456-0.454,0.857-0.685,0.401
							c-0.826-1.632-2.461-1.699-4.013-1.113C181.136,69.124,180.932,68.357,181.406,68.178z"/>
					</g>
				</g>
				<g>
					<g>
						<path style="fill:#81B2FF;" d="M193.865,199.868v-30.466c0-0.219-0.177-0.397-0.396-0.397c-0.219,0-0.397,0.178-0.397,0.397
							v30.466H193.865z"/>
					</g>
					<g>
						<path style="fill:#81B2FF;" d="M154.705,199.868v-30.466c0-0.219-0.177-0.397-0.396-0.397c-0.219,0-0.397,0.178-0.397,0.397
							v30.466H154.705z"/>
					</g>
				</g>
				<g>
					<path style="fill:#83B4F9;" d="M151.726,137.805c0.356,0,0.68-0.242,0.768-0.603c1.808-7.324,5.104-10.64,5.136-10.672
						c0.312-0.309,0.314-0.811,0.008-1.123c-0.309-0.312-0.812-0.314-1.122-0.006c-0.148,0.146-3.649,3.667-5.562,11.421
						c-0.105,0.426,0.155,0.855,0.581,0.96C151.599,137.797,151.662,137.805,151.726,137.805z"/>
				</g>
				<polygon style="fill:#FFFFFF;stroke:#D9EAF1;stroke-width:0.7933;stroke-miterlimit:10;" points="163.417,110.117 
					149.195,116.764 154.426,134.483 159.826,135.014 155.017,138.467 169.558,187.014 				"/>
				<g>
					<g>
						<path style="fill:#83B4F9;" d="M145.834,170.651c0.277,0,0.525-0.195,0.583-0.477c0.065-0.322-0.143-0.635-0.465-0.702
							c-0.082-0.015-8.206-1.737-8.028-7.413c0.169-5.433,8.111-22.364,12.605-25.506c0.404-0.282,0.975-0.59,1.405-0.446
							c0.312,0.102,0.65-0.067,0.751-0.378c0.103-0.313-0.066-0.649-0.378-0.751c-0.724-0.237-1.549-0.038-2.46,0.6
							c-5.262,3.681-12.944,21.047-13.113,26.445c-0.209,6.683,8.605,8.542,8.982,8.618
							C145.756,170.646,145.796,170.651,145.834,170.651z"/>
					</g>
					<g>
						<path style="fill:#17004E;" d="M143.391,170.056c0,1.35,1.094,2.443,2.443,2.443c1.35,0,2.444-1.094,2.444-2.443
							c0-1.35-1.094-2.443-2.444-2.443C144.485,167.613,143.391,168.706,143.391,170.056z"/>
					</g>
					<g>
						<path style="fill:#83B4F9;" d="M156.718,170.916c0.029,0,0.061-0.001,0.09-0.006c0.379-0.057,9.273-1.486,9.391-8.171
							c0.094-5.401-6.734-23.121-11.81-27.053c-0.879-0.679-1.694-0.922-2.427-0.719c-0.317,0.088-0.502,0.415-0.415,0.733
							c0.088,0.316,0.411,0.503,0.733,0.414c0.432-0.12,0.992,0.212,1.38,0.514c4.335,3.357,11.444,20.655,11.348,26.091
							c-0.1,5.678-8.297,7.001-8.379,7.016c-0.325,0.049-0.548,0.353-0.499,0.677C156.175,170.705,156.43,170.916,156.718,170.916z"
							/>
					</g>
					<g>
						<path style="fill:#17004E;" d="M159.16,170.44c-0.067,1.348-1.212,2.386-2.559,2.321c-1.348-0.066-2.388-1.211-2.321-2.56
							c0.065-1.348,1.21-2.388,2.558-2.323C158.185,167.946,159.225,169.092,159.16,170.44z"/>
					</g>
				</g>
				<g>
					<path style="fill:#83B4F9;" d="M201.106,172.695c0.335,0,0.645-0.212,0.755-0.547c11.65-35.635-6.831-54.747-7.019-54.936
						c-0.31-0.31-0.81-0.312-1.122-0.003c-0.31,0.308-0.312,0.812-0.003,1.122c0.181,0.183,17.968,18.658,6.636,53.324
						c-0.136,0.416,0.091,0.865,0.507,1C200.942,172.682,201.026,172.695,201.106,172.695z"/>
				</g>
				<polygon style="fill:#FFFFFF;stroke:#D9EAF1;stroke-width:0.7933;stroke-miterlimit:10;" points="185.172,110.117 
					199.395,116.764 194.162,134.483 188.764,135.014 193.572,138.467 179.031,187.014 				"/>
				<path style="fill:#17004E;" d="M193.865,172.654c0,3.864,3.133,6.997,6.996,6.997c3.864,0,6.997-3.133,6.997-6.997
					c0-3.863-3.133-6.996-6.997-6.996C196.997,165.658,193.865,168.791,193.865,172.654z"/>
				<path style="fill:#83B4F9;" d="M197.098,172.654c0,2.078,1.685,3.762,3.762,3.762c2.078,0,3.762-1.685,3.762-3.762
					c0-2.078-1.684-3.762-3.762-3.762C198.783,168.892,197.098,170.576,197.098,172.654z"/>
			</g>
		</g>
		<g>
			<path style="opacity:0.8;fill:#81B3FC;" d="M389.097,212.045c0,2.191-1.775,3.967-3.967,3.967H266.28
				c-2.191,0-3.967-1.775-3.967-3.967V100.222c0-2.19,1.775-3.966,3.967-3.966h118.85c2.191,0,3.967,1.776,3.967,3.966V212.045z"/>
			<g>
				<g>
					<g>
						<path style="fill:#030023;" d="M318.452,62.881c-3.568-2.303-7.367-3.569-11.053-0.691c-2.647,2.188-3.108,5.066-1.496,7.944
							c-3.914-1.267-8.059-1.497-10.016,2.763c-1.727,3.914,0.346,6.792,3.684,8.75c-4.375,1.036-8.865,2.993-9.326,8.059
							c-0.459,5.411,4.605,6.907,8.98,7.598c-4.719,1.842-10.707,4.605-11.742,10.132c-1.15,6.332,6.447,7.138,10.938,7.713
							c-5.182,2.072-11.398,5.872-8.635,12.434c3.223,7.483,12.779,4.835,18.65,2.994c-1.842,4.949,0.922,8.174,5.871,9.325
							c4.836,1.037,9.557-0.345,11.053-5.181c1.266,8.866,15.428,5.758,14.621-2.993c1.842,4.144,8.289,3.915,11.514,1.612
							c4.029-2.993,1.727-7.599-1.268-10.247c4.26,0.461,13.471-0.69,13.816-6.677c0.115-4.144-5.641-5.987-8.865-6.218
							c4.029-1.036,8.52-3.338,6.908-8.289c-1.381-4.145-5.527-5.526-9.441-5.871c2.533-2.303,4.721-5.066,3.109-8.635
							c-1.267-2.994-4.029-4.145-7.023-4.49c3.338-1.842,7.713-4.605,5.412-8.98c-1.728-3.339-5.182-4.03-8.52-3.224
							c2.188-3.339,3.107-7.944-1.498-9.901c-3.914-1.612-7.713,0.806-10.246,3.684c0.115-5.181-1.957-8.174-7.6-7.368
							C322.942,57.585,318.913,59.082,318.452,62.881z"/>
					</g>
					<g>
						<path style="fill:#130A4B;" d="M338.173,73.691c0.781-2.015,0.426-4.321-1.4-5.723c-2.328-1.79-4.998,0.129-6.746,2.124
							c0.467-2.297,0.572-4.89-0.74-6.76c-1.732-2.472-5.283-0.284-6.117,1.855c-0.186,0.478,0.582,0.682,0.766,0.211
							c0.527-1.351,1.863-2.223,3.275-2.35c1.668-0.15,2.125,2.074,2.254,3.237c0.197,1.807-0.162,3.708-0.656,5.441
							c-0.129,0.447,0.482,0.673,0.725,0.306c1.291-1.966,3.486-4.475,6.115-3.744c2.639,0.733,2.465,4.229,1.316,6.05
							c-0.225,0.358,0.207,0.71,0.543,0.543c1.781-0.883,3.732-1.824,5.775-1.507c3.658,0.566,2.117,5.738-1.014,5.729
							c-0.512,0-0.512,0.792,0,0.793c2.867,0.007,4.879-3.242,3.498-5.783C344.294,71.403,340.597,72.6,338.173,73.691z"/>
						<path style="fill:#130A4B;" d="M351.243,110.144c2.482-1.46,4.734-3.946,4.473-6.984c-0.264-3.086-3.514-3.851-6.133-3.799
							c1.797-2.967,2.059-8.537-2.686-7.616c-0.502,0.097-0.289,0.862,0.211,0.765c4.262-0.827,3.072,5.019,1.418,7.004
							c-0.199,0.238-0.1,0.708,0.279,0.677c2.623-0.216,6.105,0.264,6.146,3.572c0.037,2.747-2.557,4.937-4.768,6.062
							c-0.252,0.128-0.266,0.56,0,0.684c1.555,0.73,3.145,1.584,4.074,3.085c1.742,2.82-3.111,4.71-5.121,4.308
							c-0.5-0.1-0.711,0.664-0.211,0.765c2.545,0.508,5.619-0.883,6.346-3.488C355.921,112.855,353.146,111.104,351.243,110.144z"/>
						<path style="fill:#130A4B;" d="M338.858,117.716c-0.465-0.2-0.869,0.483-0.398,0.685c2.689,1.151,5.684,3.327,3.078,6.221
							c-1.885,2.091-5.125,3.038-7.84,3.187c-0.508,0.028-0.51,0.821,0,0.793c3.102-0.17,7.08-1.345,8.935-4.059
							C344.854,121.295,341.681,118.923,338.858,117.716z"/>
						<path style="fill:#130A4B;" d="M318.114,71.264c-2.258-1.013-5.451-2.387-7.498-0.281c-2.072,2.134-0.772,4.672,1.047,6.394
							c-3.219-0.795-7.297-1.063-9.371,1.475c-3.197,3.914,3.051,9.152,6.604,9.612c0.506,0.065,0.5-0.729,0-0.794
							c-3.547-0.458-9.666-6.52-4.813-9.289c2.641-1.508,6.754-0.554,9.441,0.372c0.434,0.149,0.688-0.502,0.307-0.724
							c-2.26-1.321-5.193-4.641-2.141-6.949c1.615-1.221,4.471,0.172,6.023,0.869C318.177,72.157,318.581,71.473,318.114,71.264z"/>
						<path style="fill:#130A4B;" d="M315.503,124.04c-0.824,2.759-4.984,2.437-7.121,1.824c-1.119-0.323-2.453-0.978-2.809-2.178
							c-0.545-1.833,2.332-3.458,3.521-4.16c0.33-0.194,0.203-0.758-0.199-0.739c-2.262,0.104-4.449-0.516-5.733-2.5
							c-1.363-2.11-0.203-4.634,1.277-6.293c0.275-0.31,0.002-0.73-0.387-0.663c-1.979,0.341-4.016,0.472-6,0.111
							c-1.143-0.208-2.19-0.709-2.797-1.733c-1.285-2.168,1.92-3.627,3.371-4.153c0.477-0.172,0.272-0.939-0.211-0.764
							c-2.631,0.953-5.642,3.165-3.342,6.034c1.672,2.085,5.484,1.832,8.133,1.44c-1.297,1.794-1.848,3.872-0.92,6.061
							c0.887,2.093,3.117,3.024,5.27,3.221c-1.33,0.883-2.602,2.014-2.813,3.624c-0.199,1.521,1.348,2.598,2.537,3.129
							c2.647,1.181,7.939,1.448,8.986-2.051C316.415,123.76,315.65,123.552,315.503,124.04z"/>
						<path style="fill:#130A4B;" d="M304.042,125.073c-1.121,2.08-4.387,2.08-6.369,1.593c-1.803-0.443-2.713-1.906-2.285-3.742
							c0.385-1.664,1.936-3.021,3.334-3.849c0.441-0.26,0.043-0.945-0.398-0.685c-2.809,1.659-6.002,6.41-1.936,8.633
							c2.346,1.283,6.938,1.054,8.34-1.55C304.97,125.022,304.284,124.623,304.042,125.073z"/>
					</g>
				</g>
				<path style="fill:#FFFFFF;" d="M287.993,216.012v-46.405c0-20.494,16.613-37.107,37.107-37.107l0,0
					c20.492,0,37.105,16.613,37.105,37.107v46.405H287.993z"/>
				<g>
					<path style="fill:#BF5837;" d="M331.958,136.381c0,3.794-3.076,6.87-6.871,6.87l0,0c-3.795,0-6.871-3.076-6.871-6.87v-22.496
						c0-3.796,3.076-6.872,6.871-6.872l0,0c3.795,0,6.871,3.077,6.871,6.872V136.381z"/>
					<path style="fill:#91412C;" d="M331.958,130.421v-16.535c0-3.796-3.076-6.872-6.871-6.872c-3.795,0-6.871,3.077-6.871,6.872
						v16.304C322.673,130.84,327.358,130.857,331.958,130.421z"/>
				</g>
				<g>
					<path style="fill:#BF5837;" d="M305.927,102.545v5.696c0,10.737,8.703,19.441,19.44,19.441
						c10.736,0,19.441-8.704,19.441-19.441v-21.4c-12.85-16.71-35.906-7.019-35.906-7.019L305.927,102.545z"/>
					<path style="fill:#D66141;" d="M344.808,108.241v-21.4c-1.016-1.32-2.1-2.459-3.227-3.468
						c-0.063,10.965-0.951,26.276-4.674,34.043c-0.715,1.523-3.738,5.519-7.158,9.763
						C338.374,125.191,344.808,117.471,344.808,108.241z"/>
				</g>
				<g>
					<path style="fill:#D66141;" d="M352.39,105.999c0,3.384-2.744,6.128-6.129,6.128c-3.385,0-6.127-2.744-6.127-6.128
						c0-3.385,2.742-6.128,6.127-6.128C349.646,99.871,352.39,102.614,352.39,105.999z"/>
					<path style="fill:#91412C;" d="M349.517,103.009c-1.717-0.311-3.268,0.004-4.525,1.256c-0.83,0.826-1.197,1.865-1.373,2.959
						c-0.025,0.058-0.033,0.117-0.025,0.174c-0.127,0.9-0.139,1.831-0.162,2.715c-0.014,0.511,0.779,0.51,0.793,0
						c0-0.011,0-0.022,0-0.032c1.41,0.405,3.256-0.278,3.102-1.985c-0.129-1.425-1.549-1.95-2.713-1.566
						c0.133-0.415,0.309-0.824,0.557-1.222c0.897-1.439,2.568-1.818,4.137-1.535C349.806,103.864,350.019,103.1,349.517,103.009z
						 M346.546,108.374c0.012,1.11-1.525,1.142-2.301,0.873c0.018-0.573,0.049-1.135,0.133-1.686
						C345.187,106.87,346.534,107.155,346.546,108.374z"/>
				</g>
				<g>
					<path style="fill:#BF5837;" d="M298.345,105.999c0,3.384,2.742,6.128,6.127,6.128c3.385,0,6.129-2.744,6.129-6.128
						c0-3.385-2.744-6.128-6.129-6.128C301.087,99.871,298.345,102.614,298.345,105.999z"/>
					<path style="fill:#91412C;" d="M301.429,103.773c1.568-0.284,3.238,0.095,4.137,1.535c0.248,0.398,0.424,0.806,0.555,1.222
						c-1.162-0.383-2.582,0.142-2.711,1.566c-0.156,1.706,1.691,2.39,3.102,1.985c0,0.01,0,0.021,0,0.032
						c0.014,0.51,0.807,0.511,0.793,0c-0.023-0.883-0.035-1.814-0.162-2.715c0.006-0.057-0.002-0.116-0.025-0.174
						c-0.176-1.094-0.543-2.133-1.373-2.959c-1.26-1.252-2.809-1.567-4.525-1.256C300.716,103.1,300.929,103.864,301.429,103.773z
						 M306.356,107.562c0.084,0.551,0.113,1.113,0.131,1.686c-0.773,0.269-2.311,0.237-2.301-0.873
						C304.2,107.155,305.548,106.87,306.356,107.562z"/>
				</g>
				<path style="fill:#9CDBD1;" d="M343.034,134.765l-15.527,81.247h35.156v-47.925
					C362.663,153.749,354.739,141.267,343.034,134.765z"/>
				<path style="fill:#9CDBD1;" d="M307.165,134.765l15.527,81.247h-35.156v-47.925
					C287.536,153.749,295.462,141.267,307.165,134.765z"/>
				<g>
					<path style="fill:#91412C;" d="M326.116,103.249c0-2.608,0-5.214,0-7.82c0-0.512-0.793-0.512-0.793,0c0,2.74,0,5.48,0,8.221
						c0,0.215,0.182,0.397,0.396,0.396c1.49-0.008,4.855-0.417,4.516,1.997c-0.295,2.079-3.02,2.192-4.617,2.225
						c-0.512,0.01-0.514,0.803,0,0.793c2.184-0.045,5.322-0.476,5.445-3.272C331.183,103.112,328.14,103.216,326.116,103.249z"/>
					<g>
						<path style="fill:#BC3A24;" d="M315.804,109.981c0.395,4.864,2.852,9.736,8.211,10.336c2.504,0.281,5.139-0.294,7.074-1.991
							c2.467-2.165,3.389-5.07,3.873-8.24c0.076-0.501-0.688-0.716-0.766-0.211c-0.775,5.073-3.361,9.65-9.035,9.741
							c-5.477,0.086-8.176-4.831-8.565-9.635C316.558,109.475,315.765,109.471,315.804,109.981L315.804,109.981z"/>
					</g>
					<g>
						<path style="fill:#080036;" d="M337.655,90.222c-0.979-1.932-3.027-2.188-4.91-1.479c-0.475,0.179-0.27,0.946,0.211,0.766
							c1.553-0.586,3.188-0.52,4.014,1.112C337.2,91.078,337.884,90.676,337.655,90.222z"/>
						<path style="fill:#080036;" d="M317.989,88.743c-1.883-0.71-3.932-0.454-4.91,1.479c-0.23,0.455,0.455,0.856,0.685,0.399
							c0.826-1.632,2.461-1.698,4.014-1.112C318.257,89.689,318.462,88.922,317.989,88.743z"/>
					</g>
					<g>
						<path style="fill:#0B013D;" d="M336.493,97.82c-0.035,0.999-1.016,2.796-2.277,2.138c-0.687-0.359-0.777-1.639-0.885-2.306
							c-0.08-0.504-0.844-0.289-0.766,0.21c0.174,1.088,0.471,2.858,1.863,2.983c1.695,0.153,2.805-1.508,2.857-3.026
							C337.304,97.309,336.511,97.31,336.493,97.82z"/>
						<path style="fill:#0B013D;" d="M317.874,97.652c-0.117,0.744-0.205,1.836-0.885,2.306c-0.482,0.335-1.176-0.073-1.545-0.389
							c-0.506-0.433-0.707-1.107-0.73-1.749c-0.018-0.51-0.81-0.511-0.793,0c0.053,1.518,1.162,3.179,2.858,3.026
							c1.392-0.126,1.687-1.895,1.861-2.983C318.72,97.363,317.956,97.147,317.874,97.652z"/>
					</g>
					<g style="opacity:0.6;">
						<path style="fill:#F9533D;" d="M340.515,101.872c-1.83,0-3.313,1.484-3.313,3.314c0,1.83,1.482,3.314,3.313,3.314
							c1.832,0,3.315-1.484,3.315-3.314C343.829,103.356,342.347,101.872,340.515,101.872z"/>
						<path style="fill:#F9533D;" d="M310.601,101.872c-1.83,0-3.314,1.484-3.314,3.314c0,1.83,1.484,3.314,3.314,3.314
							c1.83,0,3.315-1.484,3.315-3.314C313.915,103.356,312.431,101.872,310.601,101.872z"/>
					</g>
				</g>
				<g>
					<g>
						<path style="fill:#78BAB1;" d="M305.53,216.012v-26.044c0-0.219,0.176-0.397,0.396-0.397c0.219,0,0.397,0.178,0.397,0.397
							v26.044H305.53z"/>
					</g>
					<g>
						<path style="fill:#78BAB1;" d="M344.688,216.012v-26.044c0-0.219,0.178-0.397,0.397-0.397c0.221,0,0.396,0.178,0.396,0.397
							v26.044H344.688z"/>
					</g>
				</g>
				<g>
					<path style="fill:#82B4FD;" d="M347.669,158.371c-0.355,0-0.68-0.242-0.77-0.605c-1.807-7.322-5.102-10.64-5.135-10.672
						c-0.313-0.307-0.316-0.81-0.008-1.122c0.307-0.311,0.811-0.314,1.121-0.008c0.148,0.147,3.648,3.669,5.563,11.422
						c0.105,0.424-0.156,0.855-0.58,0.96C347.796,158.363,347.731,158.371,347.669,158.371z"/>
				</g>
				<g>
					<polygon style="fill:#9CDBD1;" points="335.978,130.682 350.2,137.33 344.968,155.049 339.569,155.579 344.378,159.032 
						329.163,207.351 					"/>
					<path style="fill:#78BAB1;" d="M335.958,130.647l14.351,6.449l0.2,0.09l-0.062,0.216l-5.138,17.747l-0.067,0.23l-0.24,0.023
						l-5.4,0.514l0.165-0.615l4.79,3.479l0.183,0.133l-0.069,0.21c-2.618,8.027-5.262,16.046-7.779,24.105l-7.448,24.209
						l-0.806,2.619l0.23-2.734l1.617-19.265c0.541-6.434,1.158-12.845,1.745-19.26L335.958,130.647z M335.997,130.716l-3.088,38.516
						c-0.548,6.363-1.067,12.73-1.662,19.074l-1.79,19.07l-0.576-0.115l7.766-24.109c2.555-8.047,4.983-16.134,7.436-24.213
						l0.114,0.343l-4.827-3.428l-0.738-0.524l0.903-0.091l5.397-0.545l-0.306,0.253l5.327-17.691l0.138,0.306L335.997,130.716z"/>
				</g>
				<g>
					<g>
						<path style="fill:#FFFFFF;" d="M353.56,191.216c-0.277,0-0.525-0.195-0.582-0.477c-0.066-0.322,0.143-0.635,0.465-0.702
							c0.082-0.015,8.205-1.737,8.027-7.414c-0.168-5.432-8.111-22.364-12.605-25.508c-0.404-0.281-0.975-0.589-1.404-0.445
							c-0.313,0.102-0.648-0.067-0.752-0.378c-0.102-0.313,0.066-0.649,0.379-0.753c0.723-0.237,1.549-0.036,2.459,0.601
							c5.262,3.681,12.945,21.047,13.113,26.445c0.209,6.682-8.605,8.542-8.98,8.618
							C353.638,191.212,353.599,191.216,353.56,191.216z"/>
					</g>
					<g>
						<path style="fill:#82B4FD;" d="M356.003,190.622c0,1.35-1.094,2.443-2.443,2.443c-1.35,0-2.443-1.094-2.443-2.443
							c0-1.35,1.094-2.443,2.443-2.443C354.909,188.178,356.003,189.272,356.003,190.622z"/>
					</g>
					<g>
						<path style="fill:#FFFFFF;" d="M342.677,191.482c-0.029,0-0.06-0.002-0.09-0.006c-0.379-0.057-9.273-1.486-9.391-8.171
							c-0.096-5.401,6.733-23.12,11.809-27.053c0.879-0.679,1.695-0.922,2.428-0.719c0.316,0.088,0.502,0.415,0.414,0.732
							c-0.088,0.315-0.41,0.504-0.732,0.414c-0.432-0.12-0.992,0.212-1.381,0.513c-4.334,3.359-11.443,20.657-11.348,26.092
							c0.1,5.679,8.297,7.002,8.379,7.016c0.326,0.049,0.549,0.353,0.498,0.677C343.218,191.27,342.966,191.482,342.677,191.482z"/>
					</g>
					<g>
						<path style="fill:#82B4FD;" d="M340.235,191.006c0.066,1.348,1.211,2.386,2.559,2.321c1.348-0.066,2.387-1.212,2.322-2.56
							c-0.066-1.348-1.211-2.388-2.559-2.323C341.208,188.511,340.169,189.658,340.235,191.006z"/>
					</g>
					<path style="fill:#82B4FD;" d="M348.464,156.276c0,0.626-0.508,1.134-1.135,1.134c-0.627,0-1.135-0.508-1.135-1.134
						c0-0.627,0.508-1.134,1.135-1.134C347.956,155.142,348.464,155.648,348.464,156.276z"/>
				</g>
				<g>
					<path style="fill:#82B4FD;" d="M298.288,193.26c-0.334,0-0.645-0.212-0.754-0.547c-11.65-35.636,6.83-54.747,7.018-54.936
						c0.311-0.312,0.811-0.312,1.121-0.003c0.311,0.308,0.313,0.81,0.004,1.122c-0.182,0.183-17.969,18.658-6.635,53.324
						c0.135,0.416-0.092,0.865-0.508,0.999C298.452,193.248,298.368,193.26,298.288,193.26z"/>
				</g>
				<g>
					<polygon style="fill:#9CDBD1;" points="314.222,130.682 300.001,137.33 305.231,155.049 310.63,155.579 305.821,159.032 
						321.155,207.964 					"/>
					<path style="fill:#78BAB1;" d="M314.202,130.716l-14.092,6.846l0.138-0.305l5.325,17.691l-0.306-0.253l5.397,0.545l0.903,0.091
						l-0.738,0.524l-4.827,3.428l0.114-0.343c2.473,8.181,4.92,16.37,7.496,24.519l7.827,24.416l-0.578,0.115l-1.819-19.223
						c-0.605-6.395-1.133-12.814-1.691-19.228L314.202,130.716z M314.241,130.647l3.786,38.459
						c0.597,6.467,1.225,12.928,1.776,19.413l1.648,19.418l0.235,2.772l-0.813-2.656l-7.507-24.516
						c-2.536-8.161-5.2-16.283-7.838-24.412l-0.068-0.21l0.183-0.133l4.79-3.479l0.165,0.615l-5.4-0.515l-0.24-0.023l-0.067-0.23
						l-5.136-17.747l-0.062-0.216l0.2-0.09L314.241,130.647z"/>
				</g>
				<path style="fill:#FFFFFF;" d="M305.53,193.22c0,3.864-3.133,6.997-6.996,6.997c-3.863,0-6.996-3.133-6.996-6.997
					c0-3.863,3.133-6.996,6.996-6.996C302.397,186.224,305.53,189.357,305.53,193.22z"/>
				<path style="fill:#C3E0FE;" d="M302.296,193.22c0,2.078-1.684,3.762-3.762,3.762c-2.078,0-3.762-1.685-3.762-3.762
					c0-2.078,1.684-3.762,3.762-3.762C300.612,189.458,302.296,191.142,302.296,193.22z"/>
			</g>
		</g>
		<path style="fill:#83B3FD;" d="M482.228,438.415c0,1.193-0.967,2.16-2.16,2.16H19.933c-1.193,0-2.16-0.967-2.16-2.16l0,0
			c0-1.191,0.967-2.158,2.16-2.158h460.134C481.261,436.257,482.228,437.224,482.228,438.415L482.228,438.415z"/>
		<g>
			<g>
				<g>
					<path style="fill:#222875;" d="M90.473,207.714c-7.771-10.808,16.339-19.395,21.312-10.051
						c3.592-6.625,8.86-10.279,16.762-9.137c6.466,0.914,10.297,4.34,8.86,10.508c10.296-3.198,21.072-5.482,30.171,2.056
						c6.705,5.711,12.452,16.447,8.381,24.899c-1.676,3.655-5.028,5.711-8.621,7.767c7.184,2.284,7.902,10.051,5.986,16.446
						c-1.915,6.625-7.663,11.193-14.128,13.936c-5.268,10.508-12.452,17.816-24.664,21.016c-12.212,3.426-20.242,6.658-31.975,1.174
						c-8.604-0.26-37.229-18.307-16.635-46.287C77.542,230.218,79.458,211.37,90.473,207.714z"/>
				</g>
				<g>
					<path style="fill:#2C3993;" d="M175.96,225.989c4.071-8.452-1.676-19.188-8.381-24.899c-1.122-0.929-2.269-1.708-3.437-2.355
						c0.811,1.462,1.401,3.127,1.706,5.053c1.056,6.124-0.422,12.881-4.434,17.738c-4.435,5.279-11.403,11.403-17.949,13.725
						c8.235,3.801,12.036,13.515,14.147,21.961c0.653,2.848,0.968,5.531,0.98,8.084c0.203-0.385,0.409-0.766,0.606-1.158
						c6.465-2.742,12.212-7.31,14.128-13.936c1.916-6.395,1.197-14.162-5.986-16.446C170.932,231.7,174.284,229.644,175.96,225.989z
						"/>
				</g>
				<g>
					<path style="fill:#18125A;" d="M159.525,223.404c-7.788,7.072-19.595,1.014-23.391-7.413c-0.129-0.288-0.585-0.325-0.785-0.101
						c-4.591,5.13-10.893,7.506-17.729,6.279c-5.924-1.064-9.41-5.683-11.166-11.122c-0.197-0.611-1.163-0.35-0.964,0.266
						c1.913,5.925,5.591,10.447,11.864,11.821c6.82,1.494,13.526-1.104,18.214-6.022c4.368,8.725,16.614,14.31,24.663,7.001
						C160.71,223.677,160.001,222.972,159.525,223.404z"/>
					<path style="fill:#18125A;" d="M164.558,210.069c-1.083,5.528-6.638,6.264-11.346,5.251c-4.499-0.969-8.139-4.17-11.015-7.595
						c-0.415-0.495-1.119,0.217-0.707,0.707c3.631,4.324,8.1,7.562,13.82,8.241c4.696,0.557,9.248-1.417,10.211-6.338
						C165.645,209.705,164.681,209.436,164.558,210.069z"/>
					<path style="fill:#18125A;" d="M121.842,210.635c2.26,0.087,4.687-0.432,6.589-1.665c1.975-1.28,2.908-3.771,3.937-5.766
						c0.295-0.572-0.567-1.078-0.863-0.505c-0.841,1.628-1.571,3.319-2.792,4.709c-1.504,1.713-4.079,2.101-6.225,2.221
						c-4.416,0.247-8.386-2.098-9.835-6.32c-0.208-0.606-1.174-0.346-0.964,0.266C113.254,208.134,117.138,210.454,121.842,210.635z
						"/>
					<path style="fill:#18125A;" d="M94.128,240.466c0.376-0.266,0.288-0.746-0.12-0.914c-3.642-1.504-5.655-5.021-5.684-8.888
						c-0.026-3.408,2.364-6.13,4.762-8.245c0.485-0.427-0.226-1.132-0.707-0.707c-3.155,2.782-5.331,6.037-4.993,10.384
						c0.271,3.48,2.53,6.46,5.543,8.02c-8.65,6.592-14.31,20.228-3.716,27.794c0.526,0.375,1.025-0.492,0.505-0.863
						C79.492,259.741,85.771,246.362,94.128,240.466z"/>
					<path style="fill:#18125A;" d="M95.81,249.481c-3.963,4.301-6.836,11.651-1.205,15.813c0.52,0.385,1.017-0.484,0.505-0.863
						c-5.073-3.75-2.039-10.502,1.408-14.242C96.953,249.716,96.248,249.006,95.81,249.481z"/>
					<path style="fill:#18125A;" d="M121.482,230.712c-10.259,0.181-18.509-5.653-22.224-15.151
						c-0.232-0.594-1.199-0.335-0.964,0.266c3.875,9.911,12.455,16.074,23.188,15.885
						C122.126,231.701,122.127,230.701,121.482,230.712z"/>
				</g>
			</g>
			<g>
				<path style="fill:#FFBDAB;" d="M176.147,269.669c0,5.691-4.613,10.307-10.306,10.307c-5.691,0-10.306-4.615-10.306-10.307
					c0-5.69,4.614-10.305,10.306-10.305C171.534,259.364,176.147,263.979,176.147,269.669z"/>
				<path style="fill:#DD8F7A;" d="M171.315,264.64c-2.888-0.523-5.493,0.008-7.611,2.113c-1.397,1.389-2.014,3.135-2.309,4.977
					c-0.042,0.098-0.055,0.195-0.044,0.293c-0.213,1.514-0.231,3.078-0.271,4.565c-0.023,0.863,1.31,0.859,1.335,0
					c0-0.018,0-0.035,0-0.053c2.371,0.682,5.477-0.469,5.217-3.336c-0.219-2.398-2.606-3.281-4.563-2.637
					c0.221-0.695,0.519-1.387,0.935-2.055c1.509-2.42,4.321-3.057,6.958-2.58C171.8,266.077,172.159,264.794,171.315,264.64z
					 M166.32,273.665c0.018,1.867-2.566,1.918-3.87,1.469c0.032-0.967,0.081-1.912,0.222-2.834
					C164.035,271.132,166.299,271.612,166.32,273.665z"/>
			</g>
			<g>
				<path style="fill:#FFBDAB;" d="M81.755,269.669c0,5.691,4.615,10.307,10.306,10.307c5.692,0,10.305-4.615,10.305-10.307
					c0-5.69-4.613-10.305-10.305-10.305C86.37,259.364,81.755,263.979,81.755,269.669z"/>
				<path style="fill:#DD8F7A;" d="M86.943,265.927c2.637-0.477,5.446,0.16,6.955,2.58c0.417,0.668,0.714,1.359,0.936,2.055
					c-1.957-0.645-4.343,0.238-4.56,2.637c-0.26,2.867,2.843,4.018,5.214,3.336c0,0.018,0.003,0.035,0.003,0.053
					c0.02,0.859,1.354,0.863,1.334,0c-0.039-1.486-0.06-3.051-0.274-4.565c0.011-0.098-0.002-0.195-0.041-0.293
					c-0.297-1.842-0.914-3.588-2.312-4.977c-2.116-2.105-4.721-2.637-7.609-2.113C85.742,264.794,86.101,266.077,86.943,265.927z
					 M95.229,272.3c0.14,0.922,0.192,1.867,0.221,2.834c-1.3,0.449-3.887,0.398-3.869-1.469
					C91.604,271.612,93.869,271.132,95.229,272.3z"/>
			</g>
			<path style="fill:#C3E0FE;" d="M67.635,462.124v-85.477c0-34.467,27.939-62.41,62.406-62.41l0,0
				c34.464,0,47.985,27.943,47.985,62.41v85.477H67.635z"/>
			<g>
				<path style="fill:#FFBDAB;" d="M141.574,320.767c0,6.379-5.172,11.557-11.554,11.557l0,0c-6.384,0-11.556-5.178-11.556-11.557
					v-37.836c0-6.381,5.172-11.555,11.556-11.555l0,0c6.382,0,11.554,5.174,11.554,11.555V320.767z"/>
				<path style="fill:#DD8F7A;" d="M118.463,311.751v-28.82c0-6.381,5.172-11.555,11.556-11.555c6.382,0,11.554,5.174,11.554,11.555
					v27.359c-4.748,1.352-9.873,1.785-14.526,2.053C124.05,312.593,121.207,312.339,118.463,311.751z"/>
			</g>
			<g>
				<path style="fill:#FFBDAB;" d="M163.184,237.449v35.991c0,18.059-14.64,32.697-32.695,32.697
					c-18.056,0-32.695-14.639-32.695-32.697v-9.58v-33.653c0,0,8.944,8.712,26.793,6.89c10.359-1.057,11.737-9.51,11.737-9.51
					S143.492,238.401,163.184,237.449z"/>
				<path style="fill:#FFD1C5;" d="M157.45,237.449v35.991c0,17.092-13.116,31.111-29.828,32.564c0.945,0.082,1.9,0.133,2.867,0.133
					c18.055,0,32.695-14.639,32.695-32.697v-35.991C163.184,237.449,158.75,237.585,157.45,237.449z"/>
			</g>
			<path style="fill:#FFFFFF;" d="M155.333,318.048l-2.895,144.076h29.751v-88.033C182.189,349.974,171.346,328.983,155.333,318.048
				z"/>
			<path style="fill:#FFFFFF;" d="M99.879,318.048l16.359,37.512L135.2,462.124H66.867v-88.033
				C66.867,349.974,80.195,328.983,99.879,318.048z"/>
			<path style="opacity:0.5;fill:#D9EAF1;" d="M103.131,340.374c-2.478-7.16-6.823-21.758-17.123-11.94
				c-11.81,11.619-19.142,27.775-19.142,45.656v88.033H135.2l-5.385-30.264c-10.169-11.643-19.096-23.955-23.771-39.27
				C101.675,378.235,107.917,354.521,103.131,340.374z"/>
			<g>
				<path style="fill:#DD8F7A;" d="M136.431,265.044c0-4.385,0-8.768,0-13.152c0-0.859-1.335-0.859-1.335,0
					c0,4.611,0,9.217,0,13.826c0,0.363,0.306,0.67,0.668,0.668c2.504-0.014,8.167-0.701,7.593,3.357
					c-0.494,3.498-5.078,3.69-7.765,3.742c-0.86,0.02-0.862,1.353,0,1.334c3.672-0.074,8.951-0.799,9.16-5.504
					C144.951,264.817,139.834,264.989,136.431,265.044z"/>
				<g>
					<path style="fill:#FF7466;" d="M119.086,276.366c0.662,8.182,4.795,16.373,13.811,17.383c4.208,0.471,8.642-0.492,11.896-3.348
						c4.151-3.641,5.699-8.527,6.515-13.857c0.127-0.842-1.157-1.203-1.288-0.355c-1.302,8.531-5.653,16.23-15.197,16.383
						c-9.209,0.147-13.748-8.125-14.402-16.205C120.354,275.513,119.019,275.509,119.086,276.366L119.086,276.366z"/>
				</g>
				<g>
					<path style="fill:#00061B;" d="M119.757,249.006c-1.783,0-3.226,2.588-3.226,5.784c0,3.191,1.443,5.781,3.226,5.781
						c1.779,0,3.223-2.59,3.223-5.781C122.98,251.595,121.536,249.006,119.757,249.006z"/>
					<path style="fill:#00061B;" d="M150.664,249.006c-1.78,0-3.223,2.588-3.223,5.784c0,3.191,1.443,5.781,3.223,5.781
						c1.78,0,3.223-2.59,3.223-5.781C153.887,251.595,152.443,249.006,150.664,249.006z"/>
				</g>
				<g>
					<path style="fill:#222875;" d="M155.837,243.134c-1.644-3.248-5.092-3.68-8.258-2.484c-0.797,0.299-0.45,1.591,0.355,1.285
						c2.611-0.986,5.36-0.872,6.751,1.872C155.073,244.575,156.222,243.9,155.837,243.134z"/>
					<path style="fill:#222875;" d="M122.761,240.65c-3.166-1.195-6.611-0.764-8.255,2.484c-0.388,0.766,0.764,1.441,1.151,0.673
						c1.389-2.744,4.139-2.858,6.75-1.872C123.215,242.24,123.559,240.948,122.761,240.65z"/>
				</g>
			</g>
			<polygon style="fill:#FFFFFF;stroke:#D9EAF1;stroke-width:1.3342;stroke-miterlimit:10;" points="144.116,309.376 
				169.497,322.69 165.436,352.647 156.355,353.542 164.442,359.349 153.27,450.634 			"/>
			<polygon style="fill:#FFFFFF;stroke:#D9EAF1;stroke-width:1.3342;stroke-miterlimit:10;" points="115.614,309.376 
				91.273,321.026 102.868,352.159 111.946,353.054 103.861,358.86 128.315,440.507 			"/>
			<g>
				<path style="fill:#FFFFFF;" d="M153.38,425.056H99.998v-74.027c0-10.02-8.122-18.141-18.142-18.141
					c-29.125,14.08-18.142,110.309-18.142,110.309c0,10.02,8.122,18.143,18.142,18.143c0.07,0,0.138-0.01,0.208-0.012
					c0.07,0.002,0.138,0.012,0.209,0.012h71.107C163.4,461.339,163.4,425.056,153.38,425.056z"/>
				<path style="fill:#D9EAF1;" d="M159.677,443.39c0,9.295-2.371,16.83-5.295,16.83c-2.925,0-5.295-7.535-5.295-16.83
					c0-9.295,2.371-16.828,5.295-16.828C157.306,426.562,159.677,434.095,159.677,443.39z"/>
				<path style="opacity:0.5;fill:#D9EAF1;" d="M121.985,456.465c-13.815-2.512-27.989-7.177-38.395-16.686
					c-8.971-8.073-13.636-19.197-14.712-30.859c-2.473-25.433,6.876-51.735,13.672-75.997c-0.232-0.009-0.46-0.035-0.694-0.035
					c-29.125,14.08-18.142,110.309-18.142,110.309c0,10.02,8.122,18.143,18.142,18.143c0.07,0,0.138-0.01,0.208-0.012
					c0.07,0.002,0.138,0.012,0.209,0.012h71.107c1.087,0,2.048-0.447,2.899-1.209C144.726,459.681,133.239,458.716,121.985,456.465z
					"/>
			</g>
			<path style="fill:#B1DBFF;" d="M355.046,459.364c0,2.209-1.791,3.998-4,3.998H186.493c-2.209,0-3.999-1.789-3.999-3.998l0,0
				c0-2.211,1.79-4,3.999-4h164.553C353.255,455.364,355.046,457.153,355.046,459.364L355.046,459.364z"/>
			<g>
				<path style="fill:#FFBDAB;" d="M154.032,452.155l15.293-2.647c0,0,2.279,5.277,8.859,5.725c9.807,0.668,15.49-2.281,15.49-2.281
					c1.123,3.531,9.795,2.848,13.897,2.734c5.239-0.147,7.747-7.975,7.747-7.975s5.695,5.353,9.796,8.316
					c4.101,2.963,6.835-1.254,5.695-2.734c-5.629-7.32-21.301-22.555-24.947-23.467c-3.646-0.91-51.831,4.328-51.831,4.328
					S150.446,441.54,154.032,452.155z"/>
				<g>
					<g>
						<path style="fill:#DD8F7A;" d="M215.318,448.104c-0.12,0-0.238-0.055-0.315-0.158c-0.052-0.07-5.304-7.082-10.055-11.363
							c-0.161-0.145-0.173-0.393-0.029-0.555c0.145-0.162,0.394-0.174,0.555-0.027c4.809,4.332,10.105,11.404,10.158,11.477
							c0.13,0.174,0.094,0.418-0.08,0.549C215.482,448.079,215.399,448.104,215.318,448.104z"/>
					</g>
					<g>
						<path style="fill:#DD8F7A;" d="M209.281,455.739c-0.094,0-0.188-0.035-0.263-0.102c-0.161-0.145-0.174-0.395-0.028-0.555
							c0.86-0.951,0.883-4.002,0.365-6.141c-0.34-1.406-5.144-5.545-8.289-7.982c-0.171-0.133-0.203-0.379-0.07-0.551
							c0.134-0.172,0.38-0.201,0.55-0.07c0.823,0.639,8.057,6.297,8.571,8.42c0.481,1.986,0.64,5.537-0.545,6.852
							C209.494,455.694,209.387,455.739,209.281,455.739z"/>
					</g>
				</g>
			</g>
		</g>
		<g>
			<g>
				<g>
					<path style="fill:#B1DBFF;" d="M367.866,436.257c0-3.924-10.025-3.488-15.691-10.025c-5.666-6.539-4.795-43.588-4.795-43.588
						h-45.33c0,0,0.872,37.049-4.794,43.588c-5.667,6.537-15.691,6.102-15.691,10.025H367.866z"/>
					<path style="fill:#B1DBFF;" d="M367.698,436.257c0,2.385-1.926,4.318-4.303,4.318h-77.36c-2.375,0-4.303-1.934-4.303-4.318l0,0
						c0-2.387,1.928-4.32,4.303-4.32h77.36C365.772,431.937,367.698,433.87,367.698,436.257L367.698,436.257z"/>
					<path style="fill:#83B3FD;" d="M347.38,382.644h-45.33c0,0,0.309,13.098-0.634,25.094l47.583,8.697
						C346.896,403.243,347.38,382.644,347.38,382.644z"/>
				</g>
				<g>
					<path style="fill:#B1DBFF;" d="M441.065,397.28c0,4.381-3.553,7.934-7.934,7.934H216.298c-4.381,0-7.933-3.553-7.933-7.934
						v-153.9c0-4.381,3.552-7.933,7.933-7.933h216.834c4.381,0,7.934,3.552,7.934,7.933V397.28z"/>
					<path style="fill:#06003E;" d="M433.132,235.447H216.298c-4.381,0-7.933,3.552-7.933,7.933v135.391h232.7V243.38
						C441.065,238.999,437.513,235.447,433.132,235.447z"/>
					<path style="fill:#FFFFFF;" d="M331.589,390.935c0,3.795-3.078,6.873-6.875,6.873s-6.875-3.078-6.875-6.873
						c0-3.797,3.078-6.875,6.875-6.875S331.589,387.138,331.589,390.935z"/>
					<rect x="221.322" y="249.198" style="fill:#81B3FC;" width="206.786" height="116.879"/>
					<g>
						<g>
							<path style="fill:#0E6CC4;" d="M289.154,351.829c0,2.191-1.776,3.967-3.967,3.967h-49.603c-2.191,0-3.966-1.775-3.966-3.967
								v-31.99c0-2.189,1.775-3.967,3.966-3.967h49.603c2.19,0,3.967,1.777,3.967,3.967V351.829z"/>
							<path style="opacity:0.5;fill:#045DA5;" d="M265.508,337.583l0.127-0.428l-0.445-0.207c1.113-0.498,1.659-1.004,1.659-1.004
								c-0.853-0.672-1.124-2.711-1.193-4.236c0.379-0.223,0.634-0.633,0.634-1.105c0-0.48-0.267-0.9-0.66-1.119
								c-0.061-6.373-0.709-8.912-5.969-8.68c-4.993,0.221-4.676,5.189-4.551,8.785c-0.305,0.234-0.501,0.602-0.501,1.014
								c0,0.42,0.202,0.791,0.513,1.025c-0.082,2.045-0.496,3.742-1.563,4.316c0,0,0.535,0.572,1.82,1.098l-0.242,0.113l0.127,0.428
								c-1.674,1.461-2.733,3.609-2.733,6.004v12.209h0.096h3.667h0.166h3.424h1.007h3.593h0.166h3.498h0.095v-12.209
								C268.241,341.192,267.183,339.044,265.508,337.583z"/>
						</g>
						<g>
							<path style="fill:#0E6CC4;" d="M289.154,296.479c0,2.191-1.775,3.967-3.966,3.967h-49.603c-2.191,0-3.967-1.775-3.967-3.967
								v-31.99c0-2.189,1.776-3.967,3.967-3.967h49.603c2.19,0,3.966,1.777,3.966,3.967V296.479z"/>
							<path style="opacity:0.5;fill:#045DA5;" d="M265.959,280.911l0.138-0.465l-3.236-1.514l-0.052,0.77
								c-0.28-0.084-0.565-0.152-0.856-0.207v-0.484v-1.07c0.259-0.102,0.506-0.228,0.738-0.375
								c0.001-0.002,0.002-0.002,0.004-0.004c0.304-0.193,0.583-0.422,0.83-0.682c0.006-0.006,0.012-0.012,0.018-0.02
								c0.08-0.082,0.155-0.17,0.227-0.258c0.006-0.006,0.01-0.012,0.014-0.018c0.145-0.18,0.275-0.373,0.389-0.574
								c0.006-0.012,0.014-0.022,0.02-0.033c0.053-0.096,0.104-0.193,0.15-0.293c0.007-0.016,0.014-0.031,0.021-0.047
								c0.046-0.102,0.088-0.205,0.127-0.309c0.002-0.01,0.006-0.02,0.008-0.027c0.037-0.103,0.07-0.209,0.099-0.314
								c0.003-0.012,0.007-0.021,0.009-0.033c0.028-0.107,0.052-0.215,0.072-0.326c0.002-0.014,0.006-0.027,0.008-0.043
								c0.176,0.08,0.371,0.127,0.577,0.127c0.771,0,1.395-0.625,1.395-1.395c0-0.74-0.578-1.346-1.308-1.391
								c0.23-1.297,0.526-3.26,0.538-4.822c0.021-2.633-1.45-2.115-1.45-2.115c-0.625-2.482-7.698-2.344-9.559-0.043
								c-1.879,2.32,0.194,4.09,0.194,4.09l0.157,2.897c-0.693,0.082-1.231,0.67-1.231,1.385c0,0.77,0.624,1.395,1.395,1.395
								c0.206,0,0.401-0.047,0.577-0.127c0.273,1.58,1.383,2.873,2.857,3.404v0.824v0.68c-0.293,0.055-0.58,0.123-0.861,0.209
								l-0.053-0.77l-3.236,1.514l0.139,0.465c-1.822,1.59-2.975,3.926-2.975,6.533v13.279h0.105h3.806h0.18h3.91h1.095h3.725h0.181
								h3.99h0.103v-13.279C268.933,284.837,267.78,282.501,265.959,280.911z"/>
						</g>
						<g>
							<path style="fill:#0E6CC4;" d="M417.903,351.829c0,2.191-1.775,3.967-3.967,3.967h-49.604c-2.189,0-3.967-1.775-3.967-3.967
								v-31.99c0-2.189,1.777-3.967,3.967-3.967h49.604c2.191,0,3.967,1.777,3.967,3.967V351.829z"/>
							<path style="opacity:0.5;fill:#045DA5;" d="M394.708,335.983l0.139-0.467l-3.236-1.512l-0.053,0.768
								c-0.279-0.084-0.564-0.152-0.855-0.207v-0.484v-1.068c0.258-0.103,0.504-0.23,0.736-0.377
								c0.002-0.002,0.004-0.002,0.006-0.004c0.303-0.193,0.582-0.422,0.83-0.682c0.006-0.006,0.012-0.012,0.018-0.018
								c0.078-0.084,0.154-0.172,0.227-0.26c0.006-0.006,0.01-0.012,0.014-0.018c0.145-0.18,0.273-0.373,0.389-0.574
								c0.006-0.01,0.012-0.021,0.02-0.031c0.053-0.098,0.102-0.195,0.148-0.295c0.008-0.016,0.014-0.031,0.021-0.047
								c0.045-0.102,0.088-0.205,0.125-0.309c0.004-0.01,0.008-0.018,0.01-0.027c0.035-0.102,0.068-0.207,0.098-0.315
								c0.004-0.012,0.006-0.021,0.01-0.033c0.027-0.107,0.051-0.215,0.07-0.324c0.004-0.016,0.008-0.029,0.01-0.045
								c0.176,0.082,0.371,0.127,0.576,0.127c0.772,0,1.395-0.623,1.395-1.395c0-0.74-0.578-1.344-1.307-1.389
								c0.229-1.297,0.525-3.262,0.537-4.824c0.02-2.631-1.449-2.115-1.449-2.115c-0.625-2.482-7.699-2.342-9.559-0.043
								c-1.879,2.322,0.193,4.092,0.193,4.092l0.158,2.895c-0.693,0.082-1.232,0.67-1.232,1.385c0,0.772,0.625,1.395,1.395,1.395
								c0.207,0,0.4-0.045,0.578-0.127c0.273,1.582,1.383,2.873,2.857,3.404v0.824v0.682c-0.293,0.053-0.58,0.123-0.861,0.207
								l-0.053-0.768l-3.236,1.512l0.137,0.467c-1.82,1.588-2.973,3.926-2.973,6.531v13.281h0.104h3.805h0.182h3.91h1.094h3.725
								h0.182h3.988h0.104v-13.281C397.681,339.909,396.53,337.571,394.708,335.983z"/>
						</g>
						<g>
							<path style="fill:#0E6CC4;" d="M417.903,296.757c0,2.191-1.775,3.967-3.967,3.967h-49.602c-2.191,0-3.967-1.775-3.967-3.967
								v-31.988c0-2.191,1.775-3.967,3.967-3.967h49.602c2.191,0,3.967,1.775,3.967,3.967V296.757z"/>
							<path style="opacity:0.5;fill:#045DA5;" d="M393.19,282.44l0.127-0.43l-1.076-0.504c0.48,0.045,1.002-0.088,1.35-0.334
								c0.846-0.629,0.361-1.596-0.266-2.152c0.893,0.098,2.826-0.145,2.9-1.402c0.023-0.869-1.186-1.256-1.863-1.305
								c0.848-0.217,1.789-0.701,1.451-1.74c-0.289-0.871-1.16-1.16-1.982-1.232c0.531-0.484,0.992-1.064,0.652-1.814
								c-0.266-0.627-0.846-0.869-1.473-0.941c0.701-0.387,1.619-0.967,1.135-1.887c-0.363-0.701-1.088-0.846-1.787-0.676
								c0.457-0.701,0.652-1.668-0.315-2.078c-0.822-0.34-1.621,0.168-2.152,0.772c0.023-1.086-0.412-1.715-1.596-1.545
								c-0.701,0.096-1.547,0.41-1.643,1.207c-0.75-0.482-1.547-0.748-2.322-0.145c-0.557,0.459-0.652,1.065-0.314,1.668
								c-0.82-0.266-1.691-0.314-2.102,0.58c-0.363,0.822,0.072,1.426,0.773,1.838c-0.918,0.217-1.861,0.627-1.959,1.691
								c-0.096,1.137,0.967,1.451,1.887,1.596c-0.992,0.387-2.248,0.967-2.467,2.127c-0.242,1.33,1.355,1.498,2.297,1.619
								c-1.088,0.436-2.393,1.233-1.813,2.611c0.676,1.57,2.684,1.016,3.916,0.629c-0.088,0.232-0.123,0.447-0.119,0.645
								l-1.652,0.773l0.127,0.43c-1.682,1.465-2.744,3.623-2.744,6.027v12.256h0.096h3.682h0.166h3.438h1.012h3.607h0.166h3.512
								h0.096v-12.256C395.935,286.064,394.872,283.905,393.19,282.44z M391.179,281.011c0.002-0.059,0-0.117-0.006-0.178
								c0.041,0.094,0.096,0.176,0.158,0.248L391.179,281.011z"/>
						</g>
					</g>
				</g>
			</g>
			<g>
				<g>
					<path style="fill:#130A4B;" d="M324.706,308.511c14.039,0,20.793-6.272,20.793-6.272c-3.328-2.623-3.902-11.746-3.902-16.495
						c0-23.647-1.168-32.999-19.215-32.201c-17.99,0.796-14.547,20.756-14.547,32.201c0,7.715-1.201,14.403-5.078,16.495
						C302.757,302.238,308.598,308.511,324.706,308.511z"/>
					<g>
						<path style="fill:#222875;" d="M321.623,259.24c-0.727,5.142-3.686,9.773-8.68,11.636c-0.319,0.119-0.182,0.635,0.142,0.514
							c5.163-1.925,8.297-6.667,9.052-12.008C322.186,259.046,321.671,258.9,321.623,259.24z"/>
						<path style="fill:#222875;" d="M320.473,257.636c0.332-0.089,0.191-0.604-0.141-0.515c-5.262,1.416-9.867,6.519-9.176,12.193
							c0.042,0.337,0.576,0.341,0.535,0C311.026,263.867,315.419,258.996,320.473,257.636z"/>
						<path style="fill:#222875;" d="M336.359,268.034c-3.072,0.819-6.616-0.06-8.933-2.246c-1.991-1.879-2.572-4.786-2.893-7.387
							c-0.042-0.337-0.575-0.341-0.533,0c0.35,2.838,1.004,5.648,3.049,7.764c2.317,2.397,6.303,3.223,9.451,2.383
							C336.834,268.46,336.693,267.945,336.359,268.034z"/>
						<path style="fill:#222875;" d="M324.495,255.713c2.841,0.182,5.687,0.557,8.101,2.179c2.798,1.88,4.021,5.354,4.487,8.538
							c0.05,0.339,0.563,0.194,0.515-0.142c-0.481-3.279-1.725-6.449-4.362-8.583c-2.427-1.963-5.737-2.333-8.74-2.525
							C324.15,255.157,324.153,255.691,324.495,255.713z"/>
						<path style="fill:#222875;" d="M325.935,257.531c-0.228-0.26-0.603,0.119-0.378,0.377c3.058,3.491,6.43,6.696,10.739,8.567
							c0.314,0.136,0.585-0.324,0.27-0.461C332.297,264.161,328.964,260.989,325.935,257.531z"/>
						<path style="fill:#222875;" d="M342.872,301.295c-3.193-3.951-3.076-9.38-3.189-14.207c-0.122-5.318,0.132-10.64,0.311-15.955
							c0.012-0.344-0.522-0.343-0.533,0c-0.197,5.831-0.456,11.663-0.269,17.499c0.147,4.56,0.311,9.338,3.303,13.04
							C342.711,301.94,343.086,301.559,342.872,301.295z"/>
						<path style="fill:#222875;" d="M336.698,284.546c0.02-0.344-0.515-0.342-0.534,0c-0.368,6.382-1.33,13.096,1.401,19.117
							c0.141,0.315,0.602,0.042,0.46-0.27C335.343,297.479,336.336,290.812,336.698,284.546z"/>
						<path style="fill:#222875;" d="M331.39,293.754c-0.347,3.431-0.758,6.867-0.218,10.301c0.054,0.339,0.567,0.194,0.515-0.142
							c-0.531-3.38-0.104-6.783,0.237-10.159C331.959,293.411,331.424,293.415,331.39,293.754z"/>
						<path style="fill:#222875;" d="M318.886,294.776c-0.217,3.406-0.233,6.819-0.341,10.23c-0.011,0.345,0.522,0.343,0.533,0
							c0.108-3.411,0.124-6.824,0.341-10.23C319.44,294.433,318.907,294.436,318.886,294.776z"/>
						<path style="fill:#222875;" d="M310.021,273.065c-0.1,4.974-0.201,9.947-0.375,14.919c-0.08,2.31-0.092,4.646-0.504,6.927
							c-0.467,2.586-1.897,4.546-3.703,6.384c-0.242,0.245,0.135,0.623,0.377,0.377c1.439-1.463,2.68-2.988,3.396-4.932
							c0.768-2.088,0.802-4.429,0.888-6.624c0.221-5.682,0.342-11.366,0.454-17.051C310.56,272.721,310.027,272.722,310.021,273.065
							z"/>
						<path style="fill:#222875;" d="M313.998,289.889c-0.222,4.571,0.448,9.794-2.123,13.847c-0.184,0.292,0.277,0.559,0.461,0.27
							c2.626-4.141,1.968-9.45,2.195-14.116C314.549,289.545,314.014,289.546,313.998,289.889z"/>
					</g>
				</g>
				<path style="fill:#72CEBC;" d="M299.759,366.077v-38.236c0-13.783,11.175-24.956,24.956-24.956l0,0
					c13.783,0,24.956,11.173,24.956,24.956v38.236H299.759z"/>
				<g>
					<path style="fill:#FFAFB2;" d="M329.328,305.494c0,2.553-2.069,4.621-4.622,4.621l0,0c-2.552,0-4.621-2.068-4.621-4.621v-15.13
						c0-2.552,2.069-4.621,4.621-4.621l0,0c2.553,0,4.622,2.069,4.622,4.621V305.494z"/>
					<path style="fill:#E28F97;" d="M329.328,301.413v-11.049c0-2.552-2.069-4.621-4.622-4.621c-2.552,0-4.621,2.069-4.621,4.621
						v11.482C323.045,302.647,326.608,302.736,329.328,301.413z"/>
				</g>
				<g>
					<path style="fill:#FFAFB2;" d="M343.701,285.061c0,2.275-1.846,4.122-4.122,4.122c-2.276,0-4.121-1.847-4.121-4.122
						c0-2.276,1.845-4.122,4.121-4.122C341.855,280.939,343.701,282.784,343.701,285.061z"/>
					<path style="fill:#E28F97;" d="M341.769,283.049c-1.154-0.209-2.197,0.004-3.044,0.845c-0.558,0.556-0.805,1.254-0.923,1.99
						c-0.018,0.039-0.022,0.078-0.018,0.118c-0.086,0.604-0.093,1.23-0.108,1.826c-0.01,0.344,0.523,0.343,0.533,0
						c0-0.008,0-0.015,0-0.022c0.948,0.273,2.19-0.186,2.086-1.335c-0.087-0.958-1.042-1.311-1.824-1.054
						c0.089-0.279,0.207-0.554,0.374-0.822c0.603-0.967,1.728-1.222,2.782-1.031C341.963,283.624,342.106,283.111,341.769,283.049z
						 M339.771,286.658c0.008,0.746-1.025,0.768-1.547,0.586c0.012-0.385,0.032-0.763,0.089-1.134
						C338.856,285.646,339.763,285.838,339.771,286.658z"/>
				</g>
				<g>
					<path style="fill:#FFAFB2;" d="M306.135,285.061c0,2.275,1.845,4.122,4.122,4.122c2.275,0,4.119-1.847,4.119-4.122
						c0-2.276-1.844-4.122-4.119-4.122C307.979,280.939,306.135,282.784,306.135,285.061z"/>
					<path style="fill:#E28F97;" d="M308.209,283.564c1.054-0.19,2.179,0.064,2.782,1.031c0.167,0.269,0.285,0.543,0.374,0.822
						c-0.783-0.258-1.737,0.096-1.825,1.054c-0.104,1.148,1.138,1.608,2.087,1.335c0,0.008,0,0.015,0,0.022
						c0.01,0.343,0.543,0.344,0.535,0c-0.017-0.596-0.025-1.222-0.109-1.826c0.004-0.04-0.001-0.079-0.018-0.118
						c-0.118-0.736-0.365-1.434-0.925-1.99c-0.846-0.841-1.889-1.054-3.043-0.845C307.729,283.111,307.874,283.624,308.209,283.564z
						 M311.523,286.11c0.057,0.371,0.077,0.749,0.089,1.134c-0.521,0.182-1.555,0.16-1.548-0.586
						C310.073,285.838,310.979,285.646,311.523,286.11z"/>
				</g>
				<g>
					<path style="fill:#FFAFB2;" d="M323.205,264.728c-0.773,4.962-4.625,9.049-9.779,9.818c-0.54,0.08-1.075,0.119-1.604,0.124
						v11.898c0,7.222,5.853,13.075,13.073,13.075s13.075-5.853,13.075-13.075v-15.821c0-0.057-0.004-0.112-0.004-0.169
						c-0.803,0.317-1.651,0.552-2.539,0.685C330.272,272.032,325.394,269.247,323.205,264.728z"/>
					<path style="fill:#E28F97;" d="M314.862,274.228c-0.468,0.132-0.944,0.245-1.437,0.318c-0.54,0.08-1.075,0.119-1.604,0.124
						v11.898c0,7.127,5.702,12.919,12.793,13.068C314.296,297.37,314.248,284.194,314.862,274.228z"/>
				</g>
				<path style="fill:#FFFFFF;" d="M336.777,304.407l-10.443,61.67h23.645v-39.258C349.979,317.175,344.649,308.779,336.777,304.407
					z"/>
				<path style="fill:#FFFFFF;" d="M312.653,304.407l10.442,61.67h-23.644v-39.258C299.452,317.175,304.782,308.779,312.653,304.407
					z"/>
				<g>
					<path style="fill:#E28F97;" d="M325.398,284.297c0-1.754,0-3.506,0-5.26c0-0.344-0.533-0.344-0.533,0c0,1.844,0,3.687,0,5.53
						c0,0.145,0.121,0.267,0.267,0.267c1.003-0.006,3.268-0.281,3.037,1.343c-0.198,1.398-2.03,1.474-3.106,1.496
						c-0.343,0.008-0.344,0.541,0,0.533c1.47-0.03,3.581-0.319,3.665-2.2C328.808,284.206,326.761,284.275,325.398,284.297z"/>
					<g>
						<path style="fill:#FA8F95;" d="M318.463,288.825c0.264,3.272,1.917,6.548,5.523,6.951c1.684,0.19,3.456-0.197,4.758-1.339
							c1.66-1.456,2.279-3.409,2.604-5.542c0.052-0.336-0.462-0.48-0.515-0.142c-0.521,3.411-2.261,6.49-6.078,6.551
							c-3.682,0.06-5.497-3.248-5.759-6.479C318.969,288.484,318.436,288.483,318.463,288.825L318.463,288.825z"/>
					</g>
					<g>
						<path style="fill:#0B013D;" d="M318.729,277.884c-0.712,0-1.288,1.035-1.288,2.313c0,1.276,0.576,2.312,1.288,2.312
							c0.712,0,1.29-1.035,1.29-2.312C320.02,278.919,319.441,277.884,318.729,277.884z"/>
						<path style="fill:#0B013D;" d="M331.092,277.884c-0.713,0-1.29,1.035-1.29,2.313c0,1.276,0.577,2.312,1.29,2.312
							c0.711,0,1.289-1.035,1.289-2.312C332.381,278.919,331.803,277.884,331.092,277.884z"/>
					</g>
					<g>
						<path style="fill:#130A4B;" d="M333.159,275.535c-0.658-1.299-2.036-1.472-3.302-0.993c-0.318,0.12-0.181,0.636,0.142,0.514
							c1.044-0.394,2.143-0.35,2.699,0.749C332.854,276.111,333.314,275.842,333.159,275.535z"/>
						<path style="fill:#130A4B;" d="M319.932,274.542c-1.265-0.478-2.645-0.306-3.301,0.993c-0.155,0.307,0.305,0.576,0.459,0.27
							c0.556-1.099,1.657-1.143,2.7-0.749C320.113,275.178,320.251,274.662,319.932,274.542z"/>
					</g>
					<g>
						<path style="opacity:0.6;fill:#FA8F95;" d="M334.955,282.831c-1.232,0-2.229,0.998-2.229,2.23c0,1.23,0.997,2.228,2.229,2.228
							c1.23,0,2.23-0.998,2.23-2.228C337.185,283.829,336.186,282.831,334.955,282.831z"/>
						<path style="opacity:0.6;fill:#FA8F95;" d="M314.835,282.831c-1.232,0-2.229,0.998-2.229,2.23c0,1.23,0.997,2.228,2.229,2.228
							c1.23,0,2.228-0.998,2.228-2.228C317.063,283.829,316.065,282.831,314.835,282.831z"/>
					</g>
				</g>
				<g>
					<g>
						<path style="fill:#D9EAF1;" d="M311.554,366.077v-24.543c0-0.147,0.119-0.267,0.267-0.267c0.147,0,0.267,0.119,0.267,0.267
							v24.543H311.554z"/>
					</g>
					<g>
						<path style="fill:#D9EAF1;" d="M337.89,366.077v-24.543c0-0.147,0.119-0.267,0.268-0.267c0.147,0,0.267,0.119,0.267,0.267
							v24.543H337.89z"/>
					</g>
				</g>
				<g>
					<path style="fill:#81B3FC;" d="M339.895,320.283c-0.239,0-0.457-0.162-0.518-0.405c-1.216-4.926-3.432-7.156-3.454-7.179
						c-0.21-0.206-0.211-0.545-0.005-0.754c0.207-0.21,0.545-0.213,0.754-0.005c0.1,0.099,2.454,2.467,3.741,7.682
						c0.071,0.286-0.103,0.575-0.391,0.645C339.979,320.279,339.937,320.283,339.895,320.283z"/>
				</g>
				<g>
					<polygon style="fill:#FFFFFF;" points="332.031,301.661 341.597,306.133 338.077,318.05 334.446,318.405 337.681,320.729 
						328.511,353.225 					"/>
					<path style="fill:#D9EAF1;" d="M332.008,301.621l4.855,2.171l4.8,2.198l0.122,0.056l-0.038,0.132l-3.441,11.939l-0.044,0.154
						l-0.161,0.016l-3.632,0.346l0.111-0.413l3.222,2.34l0.119,0.087l-0.04,0.139l-2.364,8.104
						c-0.778,2.704-1.581,5.401-2.338,8.111l-4.478,16.278l-0.507,1.843l0.119-1.91l0.81-12.896l0.878-12.891l0.971-12.885
						c0.322-4.295,0.66-8.589,1.033-12.881L332.008,301.621z M332.056,301.703c-0.214,4.289-0.462,8.575-0.726,12.861l-0.789,12.896
						l-0.882,12.891l-0.951,12.887l-0.388-0.067l4.692-16.218c0.771-2.706,1.497-5.425,2.247-8.137l2.221-8.145l0.079,0.226
						l-3.247-2.307l-0.496-0.353l0.607-0.061l3.63-0.365l-0.205,0.17l3.598-11.894l0.084,0.186l-4.766-2.273L332.056,301.703z"/>
				</g>
				<g>
					<g>
						<path style="fill:#81B3FC;" d="M343.855,342.373c-0.186,0-0.352-0.13-0.391-0.32c-0.045-0.217,0.096-0.427,0.313-0.472
							c0.055-0.01,5.518-1.168,5.398-4.986c-0.112-3.653-5.455-15.04-8.477-17.155c-0.271-0.19-0.655-0.397-0.944-0.3
							c-0.211,0.068-0.437-0.044-0.505-0.253c-0.069-0.21,0.044-0.438,0.254-0.506c0.487-0.16,1.041-0.025,1.653,0.403
							c3.539,2.476,8.707,14.155,8.819,17.786c0.141,4.493-5.787,5.745-6.039,5.795C343.91,342.371,343.882,342.373,343.855,342.373
							z"/>
					</g>
					<g>
						<path style="fill:#0049A8;" d="M345.499,341.974c0,0.908-0.735,1.643-1.644,1.643c-0.907,0-1.643-0.735-1.643-1.643
							c0-0.907,0.735-1.643,1.643-1.643C344.764,340.331,345.499,341.066,345.499,341.974z"/>
					</g>
					<g>
						<path style="fill:#81B3FC;" d="M336.537,342.552c-0.021,0-0.041-0.001-0.061-0.004c-0.255-0.039-6.237-0.999-6.316-5.496
							c-0.064-3.632,4.528-15.549,7.942-18.194c0.591-0.456,1.14-0.62,1.633-0.483c0.213,0.059,0.338,0.28,0.278,0.493
							c-0.059,0.212-0.275,0.339-0.492,0.278c-0.291-0.08-0.666,0.143-0.928,0.346c-2.916,2.258-7.697,13.892-7.633,17.548
							c0.066,3.818,5.58,4.709,5.636,4.718c0.219,0.033,0.368,0.238,0.335,0.456C336.901,342.411,336.731,342.552,336.537,342.552z"
							/>
					</g>
					<g>
						<path style="fill:#0049A8;" d="M334.895,342.233c0.045,0.906,0.814,1.604,1.721,1.561c0.906-0.045,1.606-0.815,1.563-1.722
							c-0.045-0.907-0.815-1.606-1.722-1.563C335.55,340.556,334.85,341.326,334.895,342.233z"/>
					</g>
				</g>
				<g>
					<path style="fill:#81B3FC;" d="M306.683,343.749c-0.225,0-0.434-0.144-0.507-0.368c-7.835-23.967,4.595-36.819,4.721-36.947
						c0.207-0.209,0.545-0.209,0.754-0.003c0.209,0.208,0.211,0.547,0.003,0.756c-0.122,0.122-12.086,12.547-4.463,35.862
						c0.091,0.279-0.061,0.582-0.342,0.673C306.794,343.739,306.737,343.749,306.683,343.749z"/>
				</g>
				<g>
					<polygon style="fill:#FFFFFF;" points="317.4,301.661 307.835,306.133 311.354,318.05 314.983,318.405 311.751,320.729 
						320.919,353.225 					"/>
					<path style="fill:#D9EAF1;" d="M317.375,301.703l-4.709,2.299l-4.765,2.273l0.084-0.186l3.597,11.894l-0.205-0.17l3.629,0.365
						l0.607,0.061l-0.496,0.353l-3.245,2.307l0.079-0.226l2.22,8.145c0.751,2.712,1.476,5.431,2.247,8.137l4.691,16.218
						l-0.388,0.067l-0.951-12.887l-0.881-12.891l-0.79-12.896C317.837,310.278,317.589,305.992,317.375,301.703z M317.426,301.659
						c0.373,4.292,0.71,8.586,1.033,12.881l0.97,12.885l0.878,12.891l0.81,12.896l0.119,1.91l-0.507-1.843L316.252,337
						c-0.757-2.71-1.56-5.407-2.337-8.111l-2.364-8.104l-0.04-0.139l0.119-0.087l3.22-2.34l0.111,0.413l-3.631-0.346l-0.161-0.016
						l-0.044-0.154l-3.44-11.939l-0.038-0.132l0.122-0.056l4.8-2.198l4.854-2.171L317.426,301.659z"/>
				</g>
				<path style="fill:#0049A8;" d="M311.554,343.722c0,2.6-2.107,4.706-4.705,4.706c-2.599,0-4.705-2.107-4.705-4.706
					c0-2.599,2.106-4.706,4.705-4.706C309.447,339.016,311.554,341.123,311.554,343.722z"/>
				<path style="fill:#81B3FC;" d="M309.379,343.722c0,1.397-1.133,2.531-2.53,2.531c-1.397,0-2.53-1.134-2.53-2.531
					c0-1.397,1.133-2.53,2.53-2.53C308.246,341.191,309.379,342.325,309.379,343.722z"/>
			</g>
		</g>
	</g>
</g>
</svg>
