<?xml version="1.0" encoding="utf-8"?>
<!-- Generator: Adobe Illustrator 27.5.0, SVG Export Plug-In . SVG Version: 6.00 Build 0)  -->
<svg version="1.1" xmlns="http://www.w3.org/2000/svg" xmlns:xlink="http://www.w3.org/1999/xlink" x="0px" y="0px"
	 viewBox="0 0 500 500" style="enable-background:new 0 0 500 500;" xml:space="preserve">
<g id="Background_Complete">
	<g>
		<rect y="382.398" style="fill:#EBEBEB;" width="500" height="0.25"/>
		<rect x="416.779" y="398.494" style="fill:#EBEBEB;" width="33.122" height="0.25"/>
		<rect x="322.527" y="401.208" style="fill:#EBEBEB;" width="8.693" height="0.25"/>
		<rect x="396.586" y="389.208" style="fill:#EBEBEB;" width="19.192" height="0.25"/>
		<rect x="52.459" y="390.888" style="fill:#EBEBEB;" width="43.193" height="0.25"/>
		<rect x="104.556" y="390.888" style="fill:#EBEBEB;" width="6.333" height="0.25"/>
		<rect x="131.471" y="395.111" style="fill:#EBEBEB;" width="93.676" height="0.25"/>
		<path style="fill:#EBEBEB;" d="M237.014,337.8H43.915c-3.147,0-5.708-2.561-5.708-5.708V60.66c0-3.147,2.561-5.708,5.708-5.708
			h193.099c3.146,0,5.707,2.561,5.707,5.708v271.432C242.721,335.239,240.16,337.8,237.014,337.8z M43.915,55.203
			c-3.01,0-5.458,2.448-5.458,5.458v271.432c0,3.01,2.448,5.458,5.458,5.458h193.099c3.009,0,5.457-2.448,5.457-5.458V60.66
			c0-3.009-2.448-5.458-5.457-5.458H43.915z"/>
		<path style="fill:#EBEBEB;" d="M453.31,337.8H260.212c-3.147,0-5.707-2.561-5.707-5.708V60.66c0-3.147,2.561-5.708,5.707-5.708
			H453.31c3.148,0,5.708,2.561,5.708,5.708v271.432C459.019,335.239,456.458,337.8,453.31,337.8z M260.212,55.203
			c-3.009,0-5.457,2.448-5.457,5.458v271.432c0,3.01,2.448,5.458,5.457,5.458H453.31c3.01,0,5.458-2.448,5.458-5.458V60.66
			c0-3.009-2.448-5.458-5.458-5.458H260.212z"/>
	</g>
	<g>
		<path style="fill:#E0E0E0;" d="M81.559,365.34c-0.237-2.857,0.152-6.559,3.487-7.659c5.652-1.864,9.005-6.241,8.816-11.192
			c-0.189-4.951,5.76-9.768,10.222-5.129c4.462,4.64,3.867-3.568,9.817-5.562c5.949-1.995,10.992,2.844,9.363,7.267
			c-1.629,4.422,4.242,7.185,11.272,3.424c7.03-3.761,14.764,3.081,13.277,8.435c-1.487,5.355-0.27,5.95,4.178,4.165
			c3.594-1.442,9.476,1.584,10.132,6.251H81.559z"/>
		<path style="fill:#E0E0E0;" d="M362.071,365.34c-0.275-2.263-0.153-5.564,2.653-6.49c4.388-1.447,6.99-4.845,6.844-8.688
			c-0.147-3.843,4.472-7.583,7.936-3.981c3.464,3.602,3.002-2.77,7.621-4.318c4.618-1.548,8.533,2.208,7.269,5.641
			c-1.265,3.433,3.293,5.577,8.75,2.658c5.457-2.919,11.461,2.392,10.307,6.548c-1.155,4.157-0.209,4.619,3.244,3.233
			c2.927-1.174,7.79,1.472,7.893,5.397H362.071z"/>
		<path style="fill:#E0E0E0;" d="M390.823,365.34H288.112c-1.445-4.82,2.292-10.601,6.361-11.415c5-1,10.026-9.798,10.263-15.399
			c0.237-5.601,9.237-22.829,23.237-12.19c14,10.639,9.745,1.567,19.873-1.422c10.127-2.989,16.516,5.611,12.072,12.061
			c0,0,10.174-2.55,14.365,6.95c4.191,9.5,0,15.4,0,15.4S387.142,358.951,390.823,365.34z"/>
		<path style="fill:#F5F5F5;" d="M204.253,95.769c0-2.668-2.163-4.83-4.83-4.83c-0.482,0-0.947,0.073-1.387,0.204
			c0.07-0.484,0.108-0.979,0.108-1.483c0-5.649-4.58-10.229-10.229-10.229c-0.644,0-1.273,0.062-1.884,0.176
			c-1.572-2.573-4.398-4.296-7.634-4.296c-4.898,0-8.871,3.935-8.943,8.816c-0.05-0.001-0.099-0.007-0.149-0.007
			c-4.551,0-8.24,3.689-8.24,8.24c0,4.551,3.689,8.24,8.24,8.24h30.261l-0.006-0.007C202.163,100.52,204.253,98.391,204.253,95.769z
			"/>
		<path style="fill:#F5F5F5;" d="M383.485,124.249c0-2.668-2.163-4.83-4.83-4.83c-0.482,0-0.947,0.073-1.387,0.204
			c0.07-0.484,0.108-0.979,0.108-1.483c0-5.649-4.58-10.229-10.229-10.229c-0.644,0-1.273,0.062-1.884,0.176
			c-1.572-2.573-4.398-4.296-7.634-4.296c-4.898,0-8.871,3.935-8.943,8.816c-0.05-0.001-0.099-0.007-0.149-0.007
			c-4.551,0-8.24,3.689-8.24,8.24c0,4.551,3.689,8.24,8.24,8.24h30.261l-0.006-0.007C381.395,129,383.485,126.871,383.485,124.249z"
			/>
		<path style="fill:#F5F5F5;" d="M273.867,110.24c0-1.659-1.345-3.003-3.003-3.003c-0.3,0-0.589,0.045-0.862,0.127
			c0.044-0.301,0.067-0.609,0.067-0.922c0-3.512-2.847-6.359-6.359-6.359c-0.4,0-0.792,0.039-1.172,0.109
			c-0.977-1.6-2.734-2.671-4.746-2.671c-3.045,0-5.515,2.447-5.56,5.481c-0.031,0-0.061-0.005-0.093-0.005
			c-2.829,0-5.123,2.294-5.123,5.123s2.294,5.123,5.123,5.123h18.813l-0.004-0.004C272.568,113.194,273.867,111.87,273.867,110.24z"
			/>
		<path style="fill:#F5F5F5;" d="M430.743,104.372c0-1.659-1.345-3.003-3.003-3.003c-0.3,0-0.589,0.045-0.862,0.127
			c0.044-0.301,0.067-0.609,0.067-0.922c0-3.512-2.847-6.359-6.359-6.359c-0.4,0-0.792,0.039-1.172,0.109
			c-0.977-1.6-2.734-2.671-4.746-2.671c-3.045,0-5.515,2.447-5.56,5.481c-0.031,0-0.061-0.005-0.093-0.005
			c-2.829,0-5.123,2.294-5.123,5.123s2.294,5.123,5.123,5.123h18.813l-0.004-0.004C429.444,107.326,430.743,106.003,430.743,104.372
			z"/>
		<path style="fill:#F5F5F5;" d="M104.923,122.522c0-1.659-1.345-3.003-3.003-3.003c-0.3,0-0.589,0.045-0.862,0.127
			c0.044-0.301,0.067-0.609,0.067-0.922c0-3.512-2.847-6.36-6.359-6.36c-0.4,0-0.792,0.039-1.172,0.11
			c-0.977-1.6-2.734-2.671-4.746-2.671c-3.045,0-5.515,2.447-5.56,5.481c-0.031-0.001-0.061-0.005-0.093-0.005
			c-2.829,0-5.123,2.294-5.123,5.123s2.294,5.123,5.123,5.123h18.813l-0.004-0.004C103.624,125.475,104.923,124.152,104.923,122.522
			z"/>
		<g>
			<path style="fill:#EBEBEB;" d="M380.748,208.154c0.152-0.551,0.243-1.182,0.284-1.878c0.231-3.894,3.949-3.277,7.112-3.806
				c2.471-0.413-4.072-6.655,0.91-8.669c0.925-0.374,1.931-0.797,2.404-1.676c0.626-1.162-0.007-2.692-1.085-3.454
				c-1.078-0.762-2.463-0.924-3.783-0.949c-0.813-0.988-0.152-2.475,0.635-3.484c0.786-1.009,1.75-2.157,1.452-3.401
				c-0.45-1.879-3.075-1.946-4.972-1.581c-0.701-1.135-0.687-2.554-1.027-3.844c-0.34-1.29-1.366-2.644-2.69-2.482
				c-1.247,0.152-2.01,1.56-3.233,1.849c-1.421,0.335-2.651-0.922-3.765-1.864c-1.114-0.943-3.063-1.531-3.831-0.289
				c-0.46,0.743-0.184,1.779-0.662,2.511c-0.828,1.268-2.79,0.481-4.009-0.418c-1.219-0.899-3.16-1.714-4.017-0.465
				c-0.263,0.382-0.32,0.864-0.472,1.303c-0.577,1.664-2.375,2.492-3.775,3.559c-1.401,1.067-2.51,3.189-1.325,4.491
				c0.585,0.643,1.613,0.903,1.904,1.721c0.363,1.023-0.682,1.939-1.509,2.643c-1.377,1.171-1.626,4.675,0.194,5.633
				c0.764,0.402,1.885,0.526,2.072,1.369c0.168,0.754-0.597,1.34-1.105,1.921c-1.396,1.596-0.805,4.469,1.107,5.385
				c0.437,0.209,0.974,0.381,1.136,0.838c0.116,0.327-0.011,0.683-0.104,1.017c-0.177,0.632-0.237,1.297-0.175,1.95
				c0.021,0.224,0.067,0.466,0.237,0.612c0.155,0.133,0.373,0.153,0.577,0.162c2.629,0.117,3.896-0.813,5.501,1.474
				c0.154,0.22,0.316,0.446,0.547,0.581c0.217,0.127,0.475,0.16,0.725,0.181c1.807,0.149,2.988-0.979,4.639-1.189
				c2.291-0.292,2.776,0.889,4.795,1.838C378.613,211.237,380.152,210.317,380.748,208.154z"/>
			<path style="fill:#EBEBEB;" d="M350.477,204.883c0.152-0.551,0.243-1.182,0.284-1.878c0.231-3.894,3.949-3.277,7.112-3.806
				c2.471-0.413-4.072-6.655,0.91-8.669c0.925-0.374,1.931-0.797,2.404-1.676c0.626-1.162-0.007-2.692-1.085-3.455
				c-1.078-0.762-2.463-0.924-3.783-0.948c-0.813-0.988-0.152-2.475,0.635-3.484s1.75-2.157,1.452-3.401
				c-0.45-1.878-3.075-1.946-4.972-1.581c-0.701-1.135-0.687-2.554-1.027-3.844c-0.34-1.29-1.366-2.644-2.69-2.482
				c-1.248,0.152-2.01,1.56-3.233,1.849c-1.421,0.335-2.651-0.922-3.765-1.864c-1.114-0.943-3.063-1.531-3.831-0.289
				c-0.46,0.743-0.184,1.779-0.662,2.511c-0.828,1.268-2.791,0.481-4.009-0.418c-1.219-0.899-3.16-1.714-4.017-0.465
				c-0.263,0.382-0.32,0.864-0.472,1.303c-0.577,1.664-2.375,2.492-3.776,3.559c-1.401,1.067-2.51,3.189-1.325,4.491
				c0.585,0.642,1.613,0.902,1.904,1.721c0.363,1.023-0.682,1.94-1.509,2.643c-1.377,1.171-1.626,4.675,0.194,5.633
				c0.764,0.402,1.885,0.526,2.072,1.369c0.168,0.754-0.597,1.34-1.105,1.921c-1.396,1.596-0.805,4.469,1.107,5.386
				c0.437,0.209,0.974,0.381,1.136,0.838c0.116,0.327-0.011,0.683-0.104,1.017c-0.177,0.632-0.237,1.297-0.175,1.95
				c0.021,0.224,0.067,0.466,0.237,0.612c0.155,0.133,0.373,0.153,0.577,0.162c2.629,0.117,3.896-0.813,5.501,1.474
				c0.154,0.22,0.315,0.446,0.547,0.581c0.217,0.127,0.475,0.16,0.725,0.181c1.807,0.149,2.988-0.979,4.639-1.189
				c2.291-0.292,2.777,0.889,4.795,1.838C348.342,207.966,349.881,207.046,350.477,204.883z"/>
			<path style="fill:#EBEBEB;" d="M347.56,185.606c0.152-0.551,0.243-1.182,0.284-1.878c0.231-3.894,3.949-3.277,7.112-3.806
				c2.471-0.413-4.072-6.655,0.91-8.669c0.925-0.374,1.931-0.797,2.404-1.676c0.626-1.162-0.007-2.692-1.085-3.454
				c-1.078-0.762-2.463-0.924-3.783-0.949c-0.813-0.988-0.152-2.475,0.635-3.484s1.75-2.157,1.452-3.401
				c-0.45-1.878-3.075-1.946-4.972-1.581c-0.701-1.135-0.687-2.554-1.027-3.844c-0.34-1.29-1.366-2.644-2.69-2.482
				c-1.247,0.152-2.01,1.561-3.233,1.849c-1.421,0.335-2.651-0.922-3.765-1.864c-1.114-0.943-3.063-1.531-3.831-0.289
				c-0.46,0.743-0.184,1.779-0.662,2.511c-0.828,1.268-2.79,0.481-4.009-0.418c-1.219-0.899-3.16-1.714-4.017-0.465
				c-0.263,0.382-0.32,0.864-0.472,1.303c-0.577,1.664-2.375,2.492-3.775,3.559c-1.401,1.067-2.51,3.189-1.325,4.491
				c0.585,0.642,1.613,0.902,1.904,1.721c0.363,1.023-0.682,1.939-1.509,2.643c-1.377,1.171-1.626,4.675,0.194,5.633
				c0.764,0.402,1.885,0.526,2.072,1.369c0.168,0.754-0.597,1.34-1.105,1.921c-1.396,1.596-0.805,4.469,1.107,5.386
				c0.437,0.209,0.974,0.381,1.136,0.838c0.116,0.327-0.011,0.683-0.104,1.017c-0.177,0.632-0.237,1.297-0.175,1.95
				c0.021,0.224,0.067,0.466,0.237,0.612c0.154,0.133,0.373,0.153,0.577,0.163c2.628,0.117,3.896-0.813,5.501,1.474
				c0.154,0.22,0.316,0.446,0.547,0.581c0.217,0.126,0.475,0.16,0.725,0.181c1.807,0.149,2.988-0.979,4.639-1.189
				c2.291-0.292,2.776,0.889,4.795,1.838C345.425,188.689,346.964,187.769,347.56,185.606z"/>
			<path style="fill:#EBEBEB;" d="M327.619,195.208c0.152-0.551,0.242-1.182,0.284-1.877c0.231-3.895,3.949-3.277,7.112-3.806
				c2.471-0.413-4.072-6.655,0.91-8.669c0.925-0.374,1.931-0.797,2.404-1.676c0.626-1.162-0.007-2.692-1.085-3.454
				c-1.078-0.762-2.463-0.924-3.783-0.948c-0.813-0.988-0.152-2.475,0.635-3.484c0.786-1.009,1.75-2.157,1.452-3.401
				c-0.45-1.879-3.075-1.946-4.972-1.581c-0.701-1.135-0.687-2.554-1.027-3.844c-0.34-1.29-1.366-2.644-2.69-2.482
				c-1.247,0.152-2.01,1.561-3.233,1.849c-1.421,0.335-2.651-0.922-3.765-1.864c-1.114-0.943-3.063-1.531-3.831-0.289
				c-0.46,0.743-0.184,1.779-0.662,2.511c-0.828,1.268-2.79,0.481-4.009-0.418c-1.219-0.899-3.16-1.714-4.017-0.465
				c-0.263,0.382-0.32,0.864-0.472,1.303c-0.577,1.664-2.375,2.492-3.776,3.559c-1.401,1.067-2.51,3.189-1.325,4.491
				c0.585,0.642,1.613,0.903,1.904,1.721c0.363,1.023-0.682,1.94-1.509,2.643c-1.377,1.171-1.626,4.675,0.194,5.633
				c0.764,0.402,1.885,0.526,2.072,1.369c0.168,0.754-0.597,1.34-1.105,1.921c-1.396,1.596-0.805,4.469,1.107,5.385
				c0.437,0.209,0.974,0.381,1.136,0.838c0.116,0.327-0.011,0.683-0.104,1.017c-0.177,0.632-0.237,1.297-0.175,1.95
				c0.021,0.224,0.067,0.466,0.237,0.612c0.155,0.133,0.373,0.153,0.577,0.162c2.628,0.117,3.896-0.813,5.501,1.474
				c0.154,0.22,0.315,0.446,0.547,0.581c0.217,0.127,0.475,0.16,0.725,0.181c1.807,0.149,2.988-0.979,4.639-1.189
				c2.291-0.292,2.777,0.889,4.795,1.838C325.484,198.29,327.023,197.371,327.619,195.208z"/>
			<path style="fill:#EBEBEB;" d="M307.466,190.773c0.152-0.551,0.242-1.182,0.284-1.878c0.231-3.895,3.949-3.277,7.112-3.806
				c2.471-0.413-4.072-6.655,0.91-8.669c0.925-0.374,1.931-0.797,2.404-1.676c0.626-1.162-0.007-2.692-1.085-3.454
				c-1.078-0.762-2.463-0.924-3.783-0.948c-0.813-0.988-0.152-2.475,0.635-3.484c0.786-1.009,1.75-2.157,1.452-3.401
				c-0.45-1.878-3.075-1.946-4.972-1.581c-0.701-1.135-0.687-2.554-1.027-3.844c-0.34-1.29-1.366-2.644-2.69-2.482
				c-1.247,0.152-2.01,1.561-3.233,1.849c-1.421,0.335-2.651-0.922-3.765-1.864c-1.114-0.942-3.063-1.531-3.831-0.289
				c-0.46,0.743-0.184,1.779-0.662,2.511c-0.828,1.268-2.79,0.481-4.009-0.418c-1.219-0.899-3.16-1.714-4.017-0.465
				c-0.263,0.382-0.32,0.864-0.472,1.303c-0.577,1.664-2.375,2.492-3.776,3.559s-2.51,3.189-1.325,4.491
				c0.585,0.642,1.613,0.903,1.904,1.721c0.363,1.023-0.682,1.94-1.509,2.643c-1.377,1.171-1.626,4.675,0.194,5.633
				c0.764,0.402,1.885,0.526,2.072,1.369c0.168,0.754-0.597,1.34-1.105,1.921c-1.395,1.596-0.805,4.469,1.107,5.385
				c0.437,0.209,0.974,0.381,1.136,0.838c0.116,0.327-0.011,0.683-0.104,1.017c-0.177,0.632-0.237,1.297-0.175,1.95
				c0.021,0.224,0.067,0.466,0.237,0.612c0.154,0.133,0.373,0.153,0.577,0.162c2.629,0.117,3.896-0.813,5.501,1.474
				c0.154,0.22,0.316,0.446,0.548,0.581c0.217,0.126,0.475,0.16,0.725,0.181c1.807,0.149,2.988-0.979,4.639-1.189
				c2.291-0.292,2.776,0.889,4.795,1.838C305.331,193.855,306.87,192.936,307.466,190.773z"/>
			<path style="fill:#EBEBEB;" d="M307.203,212.331c0.12-0.434,0.191-0.931,0.223-1.478c0.182-3.066,3.11-2.581,5.6-2.997
				c1.946-0.325-3.206-5.24,0.717-6.826c0.729-0.295,1.521-0.628,1.893-1.32c0.493-0.915-0.006-2.12-0.854-2.72
				c-0.849-0.6-1.939-0.727-2.979-0.747c-0.64-0.778-0.119-1.949,0.5-2.743c0.619-0.795,1.378-1.699,1.143-2.678
				c-0.354-1.479-2.422-1.532-3.915-1.245c-0.552-0.894-0.541-2.011-0.809-3.027c-0.268-1.016-1.076-2.082-2.118-1.955
				c-0.982,0.12-1.583,1.229-2.546,1.456c-1.119,0.264-2.087-0.726-2.965-1.468c-0.877-0.742-2.412-1.205-3.016-0.228
				c-0.362,0.585-0.145,1.401-0.521,1.977c-0.652,0.999-2.197,0.379-3.157-0.329c-0.96-0.708-2.488-1.35-3.163-0.367
				c-0.207,0.301-0.252,0.681-0.372,1.026c-0.454,1.31-1.87,1.963-2.973,2.803c-1.103,0.84-1.977,2.511-1.043,3.536
				c0.461,0.506,1.27,0.711,1.499,1.355c0.286,0.805-0.537,1.527-1.188,2.081c-1.084,0.922-1.28,3.681,0.153,4.435
				c0.602,0.317,1.484,0.414,1.632,1.078c0.132,0.593-0.47,1.055-0.87,1.513c-1.099,1.257-0.634,3.519,0.872,4.241
				c0.344,0.165,0.767,0.3,0.894,0.66c0.091,0.257-0.008,0.538-0.082,0.801c-0.14,0.498-0.187,1.021-0.138,1.536
				c0.017,0.176,0.053,0.367,0.187,0.482c0.122,0.104,0.294,0.121,0.454,0.128c2.07,0.092,3.068-0.64,4.331,1.161
				c0.121,0.173,0.248,0.351,0.431,0.458c0.171,0.099,0.374,0.126,0.571,0.142c1.423,0.117,2.353-0.771,3.653-0.936
				c1.804-0.23,2.186,0.7,3.775,1.447C305.522,214.758,306.734,214.034,307.203,212.331z"/>
			<path style="fill:#EBEBEB;" d="M295.911,204.883c0.152-0.551,0.242-1.182,0.284-1.878c0.231-3.894,3.949-3.277,7.112-3.806
				c2.471-0.413-4.072-6.655,0.91-8.669c0.925-0.374,1.931-0.797,2.404-1.676c0.626-1.162-0.007-2.692-1.085-3.455
				c-1.078-0.762-2.463-0.924-3.783-0.948c-0.813-0.988-0.152-2.475,0.635-3.484c0.786-1.009,1.75-2.157,1.451-3.401
				c-0.45-1.878-3.075-1.946-4.972-1.581c-0.701-1.135-0.687-2.554-1.027-3.844c-0.34-1.29-1.366-2.644-2.69-2.482
				c-1.247,0.152-2.01,1.56-3.233,1.849c-1.421,0.335-2.651-0.922-3.765-1.864c-1.114-0.943-3.063-1.531-3.831-0.289
				c-0.46,0.743-0.184,1.779-0.662,2.511c-0.828,1.268-2.79,0.481-4.009-0.418c-1.219-0.899-3.16-1.714-4.017-0.465
				c-0.263,0.382-0.32,0.864-0.472,1.303c-0.577,1.664-2.375,2.492-3.776,3.559c-1.401,1.067-2.51,3.189-1.325,4.491
				c0.585,0.642,1.613,0.902,1.904,1.721c0.363,1.023-0.682,1.94-1.509,2.643c-1.377,1.171-1.626,4.675,0.194,5.633
				c0.764,0.402,1.885,0.526,2.072,1.369c0.168,0.754-0.597,1.34-1.105,1.921c-1.395,1.596-0.805,4.469,1.107,5.386
				c0.437,0.209,0.974,0.381,1.136,0.838c0.116,0.327-0.011,0.683-0.104,1.017c-0.178,0.632-0.237,1.297-0.175,1.95
				c0.021,0.224,0.067,0.466,0.237,0.612c0.154,0.133,0.373,0.153,0.577,0.162c2.629,0.117,3.896-0.813,5.501,1.474
				c0.154,0.22,0.315,0.446,0.547,0.581c0.217,0.127,0.475,0.16,0.725,0.181c1.807,0.149,2.988-0.979,4.639-1.189
				c2.291-0.292,2.776,0.889,4.795,1.838C293.776,207.966,295.314,207.046,295.911,204.883z"/>
			<path style="fill:#EBEBEB;" d="M327.619,171.495c0.152-0.551,0.242-1.182,0.284-1.878c0.231-3.894,3.949-3.277,7.112-3.806
				c2.471-0.413-4.072-6.655,0.91-8.669c0.925-0.374,1.931-0.797,2.404-1.676c0.626-1.162-0.007-2.692-1.085-3.454
				c-1.078-0.762-2.463-0.924-3.783-0.948c-0.813-0.988-0.152-2.475,0.635-3.484s1.75-2.157,1.452-3.401
				c-0.45-1.879-3.075-1.946-4.972-1.581c-0.701-1.135-0.687-2.554-1.027-3.844c-0.34-1.29-1.366-2.644-2.69-2.482
				c-1.247,0.152-2.01,1.561-3.233,1.849c-1.421,0.335-2.651-0.922-3.765-1.864c-1.114-0.942-3.063-1.531-3.831-0.289
				c-0.46,0.743-0.184,1.779-0.662,2.511c-0.828,1.268-2.79,0.481-4.009-0.418c-1.219-0.899-3.16-1.714-4.017-0.465
				c-0.263,0.382-0.32,0.864-0.472,1.303c-0.577,1.664-2.375,2.492-3.776,3.559c-1.401,1.067-2.51,3.189-1.325,4.491
				c0.585,0.642,1.613,0.903,1.904,1.721c0.363,1.023-0.682,1.94-1.509,2.643c-1.377,1.171-1.626,4.675,0.194,5.633
				c0.764,0.402,1.885,0.526,2.072,1.369c0.168,0.754-0.597,1.34-1.105,1.921c-1.396,1.596-0.805,4.469,1.107,5.385
				c0.437,0.209,0.974,0.381,1.136,0.838c0.116,0.327-0.011,0.683-0.104,1.017c-0.177,0.632-0.237,1.297-0.175,1.95
				c0.021,0.223,0.067,0.466,0.237,0.612c0.155,0.133,0.373,0.153,0.577,0.163c2.628,0.117,3.896-0.813,5.501,1.474
				c0.154,0.22,0.315,0.446,0.547,0.581c0.217,0.126,0.475,0.16,0.725,0.181c1.807,0.149,2.988-0.979,4.639-1.189
				c2.291-0.292,2.777,0.889,4.795,1.838C325.484,174.578,327.023,173.658,327.619,171.495z"/>
			<path style="fill:#EBEBEB;" d="M353.509,172.819c0.152-0.551,0.243-1.182,0.284-1.878c0.231-3.894,3.949-3.277,7.112-3.806
				c2.471-0.413-4.072-6.655,0.91-8.669c0.925-0.374,1.931-0.797,2.404-1.676c0.626-1.162-0.007-2.692-1.085-3.455
				c-1.078-0.762-2.463-0.924-3.783-0.948c-0.813-0.988-0.152-2.475,0.635-3.484c0.786-1.009,1.75-2.157,1.452-3.401
				c-0.45-1.878-3.075-1.946-4.972-1.581c-0.701-1.135-0.687-2.554-1.027-3.844c-0.34-1.29-1.366-2.644-2.69-2.482
				c-1.247,0.152-2.01,1.561-3.233,1.849c-1.421,0.335-2.651-0.921-3.765-1.864c-1.114-0.942-3.063-1.531-3.831-0.289
				c-0.46,0.743-0.184,1.779-0.662,2.511c-0.828,1.268-2.79,0.481-4.009-0.418c-1.219-0.899-3.16-1.714-4.017-0.465
				c-0.263,0.382-0.32,0.864-0.472,1.303c-0.577,1.663-2.375,2.492-3.775,3.559c-1.401,1.067-2.51,3.189-1.325,4.491
				c0.585,0.642,1.613,0.903,1.904,1.721c0.363,1.023-0.682,1.939-1.509,2.643c-1.377,1.171-1.626,4.675,0.194,5.633
				c0.764,0.402,1.885,0.526,2.072,1.369c0.168,0.754-0.597,1.34-1.105,1.921c-1.396,1.596-0.805,4.47,1.107,5.386
				c0.437,0.209,0.974,0.381,1.136,0.838c0.116,0.327-0.011,0.683-0.104,1.017c-0.177,0.632-0.237,1.297-0.175,1.95
				c0.021,0.223,0.067,0.466,0.237,0.612c0.155,0.133,0.373,0.153,0.577,0.163c2.629,0.117,3.896-0.813,5.501,1.474
				c0.154,0.22,0.316,0.446,0.547,0.581c0.217,0.126,0.475,0.16,0.725,0.181c1.807,0.149,2.988-0.979,4.639-1.189
				c2.291-0.292,2.776,0.889,4.795,1.838C351.374,175.902,352.913,174.982,353.509,172.819z"/>
			<path style="fill:#EBEBEB;" d="M369.235,183.414c0.152-0.551,0.243-1.182,0.284-1.878c0.231-3.894,3.949-3.277,7.112-3.806
				c2.471-0.413-4.072-6.655,0.91-8.669c0.925-0.374,1.931-0.797,2.404-1.676c0.626-1.162-0.007-2.692-1.085-3.454
				c-1.078-0.762-2.463-0.924-3.783-0.949c-0.813-0.988-0.152-2.475,0.635-3.484c0.786-1.009,1.75-2.157,1.452-3.401
				c-0.45-1.879-3.075-1.946-4.972-1.581c-0.701-1.135-0.687-2.554-1.027-3.844c-0.34-1.29-1.366-2.644-2.69-2.482
				c-1.247,0.152-2.01,1.561-3.233,1.849c-1.421,0.335-2.651-0.922-3.765-1.864c-1.114-0.943-3.063-1.531-3.831-0.289
				c-0.46,0.743-0.184,1.779-0.662,2.511c-0.828,1.268-2.79,0.481-4.009-0.418c-1.219-0.899-3.16-1.714-4.017-0.465
				c-0.263,0.382-0.32,0.864-0.472,1.303c-0.577,1.664-2.375,2.492-3.775,3.559c-1.401,1.067-2.51,3.189-1.325,4.491
				c0.585,0.642,1.613,0.903,1.904,1.721c0.363,1.023-0.682,1.939-1.509,2.643c-1.377,1.171-1.626,4.675,0.194,5.633
				c0.764,0.402,1.885,0.526,2.072,1.369c0.168,0.754-0.597,1.34-1.105,1.921c-1.396,1.596-0.805,4.469,1.107,5.386
				c0.437,0.209,0.974,0.381,1.136,0.838c0.116,0.327-0.011,0.683-0.104,1.017c-0.177,0.632-0.237,1.297-0.175,1.95
				c0.021,0.223,0.067,0.466,0.237,0.612c0.155,0.133,0.373,0.153,0.577,0.162c2.629,0.117,3.896-0.813,5.501,1.474
				c0.154,0.22,0.315,0.446,0.547,0.581c0.217,0.126,0.475,0.16,0.725,0.181c1.807,0.149,2.988-0.979,4.639-1.189
				c2.291-0.292,2.776,0.889,4.795,1.838C367.1,186.497,368.639,185.577,369.235,183.414z"/>
			<path style="fill:#E6E6E6;" d="M364.467,196.805c0,0-6.577,9.298-8.845,12.246c-2.268,2.948-13.607,21.317-15.15,33.467
				c-0.165,1.297-0.327,2.413-0.485,3.389c4.877,32.193,4.112,91.091,3.94,101.175h-15.452c-0.142-11.37-1.455-115.31-1.94-118.484
				c-0.512-3.357-6.972-16.146-16.95-21.4c-9.978-5.254-18.601-22.64-18.601-22.64h3.18c0,0,5.896,10.659,14.287,16.555
				c1.219,0.856,2.48,1.569,3.775,2.238c-0.301-9.605,3.337-18.793,3.337-18.793l1.717,1.587
				c-2.318,9.493-2.013,15.573-1.312,19.066c2.816,1.411,5.738,3.045,8.676,5.806c8.704-11.318,13.598-37.202,13.598-37.202
				l2.229,1.217c0,0-0.724,7.03-2.878,15.875c-1.631,6.699-6.43,19.313-8.663,25.04c2.219,3.082,4.423,7.067,6.575,12.342
				c0.244-0.375,0.519-0.717,0.84-1.007c5.67-5.126,16.328-29.345,16.328-29.345c2.578-5.63-1.361-20.41-1.361-20.41h2.975
				l1.333,12.926l7.484-8.164l1.361,1.134l-7.937,10.205l-4.082,12.93l10.659-11.796L364.467,196.805z"/>
		</g>
		<g>
			<path style="fill:#EBEBEB;" d="M83.655,242.833c-0.117-0.423-0.186-0.907-0.218-1.441c-0.178-2.988-3.03-2.515-5.457-2.92
				c-1.896-0.317,3.124-5.106-0.698-6.651c-0.71-0.287-1.482-0.611-1.845-1.286c-0.48-0.892,0.006-2.066,0.833-2.651
				c0.827-0.585,1.89-0.709,2.902-0.728c0.623-0.758,0.116-1.899-0.487-2.673c-0.603-0.774-1.342-1.655-1.114-2.609
				c0.345-1.441,2.359-1.493,3.815-1.213c0.538-0.871,0.527-1.96,0.788-2.949c0.261-0.99,1.048-2.029,2.064-1.905
				c0.957,0.117,1.542,1.197,2.48,1.419c1.09,0.257,2.034-0.707,2.889-1.43c0.855-0.723,2.35-1.174,2.939-0.222
				c0.353,0.57,0.141,1.365,0.508,1.927c0.635,0.973,2.141,0.369,3.076-0.321c0.935-0.69,2.424-1.315,3.082-0.357
				c0.201,0.293,0.246,0.663,0.362,0.999c0.442,1.277,1.822,1.912,2.897,2.731c1.075,0.819,1.926,2.447,1.017,3.446
				c-0.449,0.493-1.238,0.692-1.461,1.321c-0.279,0.785,0.523,1.488,1.158,2.028c1.056,0.898,1.248,3.587-0.149,4.322
				c-0.586,0.309-1.446,0.404-1.59,1.05c-0.129,0.578,0.458,1.028,0.848,1.474c1.071,1.225,0.618,3.429-0.85,4.132
				c-0.335,0.161-0.747,0.292-0.871,0.643c-0.089,0.251,0.008,0.524,0.08,0.78c0.136,0.485,0.182,0.995,0.135,1.496
				c-0.016,0.172-0.052,0.357-0.182,0.47c-0.119,0.102-0.286,0.118-0.443,0.125c-2.017,0.09-2.99-0.624-4.22,1.131
				c-0.118,0.169-0.242,0.342-0.42,0.446c-0.167,0.097-0.364,0.123-0.556,0.139c-1.386,0.114-2.293-0.751-3.559-0.912
				c-1.758-0.224-2.13,0.682-3.679,1.41C85.294,245.198,84.113,244.493,83.655,242.833z"/>
			<path style="fill:#EBEBEB;" d="M106.881,240.323c-0.117-0.423-0.186-0.907-0.218-1.441c-0.177-2.988-3.03-2.515-5.457-2.92
				c-1.896-0.317,3.124-5.106-0.698-6.651c-0.71-0.287-1.482-0.611-1.845-1.286c-0.48-0.892,0.006-2.066,0.833-2.65
				c0.827-0.585,1.89-0.709,2.902-0.728c0.624-0.758,0.117-1.899-0.487-2.673c-0.603-0.774-1.342-1.655-1.114-2.609
				c0.345-1.441,2.36-1.493,3.815-1.213c0.538-0.871,0.527-1.96,0.788-2.949c0.261-0.99,1.048-2.029,2.064-1.905
				c0.957,0.117,1.542,1.197,2.481,1.418c1.09,0.257,2.034-0.707,2.889-1.43c0.855-0.723,2.351-1.174,2.939-0.222
				c0.353,0.57,0.141,1.365,0.508,1.927c0.635,0.973,2.141,0.369,3.076-0.321s2.424-1.315,3.082-0.357
				c0.201,0.294,0.246,0.663,0.362,0.999c0.442,1.277,1.822,1.912,2.897,2.731c1.075,0.819,1.926,2.447,1.017,3.446
				c-0.449,0.493-1.238,0.693-1.461,1.321c-0.279,0.785,0.523,1.488,1.158,2.028c1.056,0.898,1.248,3.587-0.149,4.322
				c-0.586,0.309-1.446,0.403-1.59,1.05c-0.129,0.578,0.458,1.028,0.848,1.474c1.071,1.225,0.618,3.429-0.85,4.132
				c-0.335,0.161-0.747,0.292-0.871,0.643c-0.089,0.251,0.008,0.524,0.08,0.78c0.136,0.485,0.182,0.995,0.134,1.497
				c-0.016,0.171-0.051,0.357-0.182,0.47c-0.119,0.102-0.287,0.118-0.443,0.125c-2.017,0.09-2.99-0.624-4.22,1.131
				c-0.118,0.169-0.242,0.342-0.42,0.446c-0.167,0.097-0.364,0.123-0.556,0.139c-1.386,0.114-2.293-0.751-3.559-0.912
				c-1.758-0.224-2.13,0.682-3.679,1.41C108.52,242.689,107.339,241.983,106.881,240.323z"/>
			<path style="fill:#EBEBEB;" d="M109.119,225.532c-0.117-0.423-0.186-0.907-0.218-1.441c-0.178-2.988-3.03-2.515-5.457-2.92
				c-1.896-0.317,3.124-5.106-0.699-6.651c-0.71-0.287-1.482-0.611-1.845-1.286c-0.48-0.892,0.006-2.066,0.833-2.651
				c0.827-0.585,1.89-0.709,2.902-0.728c0.624-0.758,0.116-1.899-0.487-2.673c-0.604-0.774-1.342-1.655-1.114-2.609
				c0.345-1.441,2.36-1.493,3.815-1.213c0.538-0.871,0.527-1.96,0.788-2.95c0.261-0.99,1.048-2.028,2.064-1.905
				c0.957,0.117,1.542,1.197,2.48,1.418c1.09,0.257,2.034-0.707,2.889-1.43c0.855-0.723,2.35-1.174,2.939-0.222
				c0.353,0.57,0.142,1.365,0.508,1.926c0.635,0.973,2.141,0.369,3.076-0.321c0.935-0.69,2.425-1.315,3.083-0.357
				c0.201,0.293,0.246,0.663,0.362,0.999c0.442,1.276,1.822,1.912,2.897,2.731c1.075,0.819,1.926,2.447,1.017,3.446
				c-0.449,0.493-1.238,0.693-1.461,1.321c-0.279,0.785,0.523,1.488,1.158,2.028c1.056,0.898,1.248,3.587-0.149,4.322
				c-0.586,0.309-1.446,0.403-1.59,1.05c-0.129,0.578,0.458,1.028,0.848,1.474c1.071,1.225,0.618,3.429-0.85,4.132
				c-0.335,0.161-0.747,0.292-0.871,0.643c-0.089,0.251,0.008,0.524,0.08,0.78c0.136,0.485,0.182,0.995,0.134,1.496
				c-0.016,0.172-0.051,0.357-0.182,0.47c-0.118,0.102-0.286,0.118-0.443,0.125c-2.017,0.09-2.99-0.624-4.221,1.131
				c-0.118,0.169-0.242,0.342-0.42,0.446c-0.167,0.097-0.364,0.123-0.557,0.139c-1.386,0.114-2.293-0.751-3.559-0.912
				c-1.758-0.224-2.13,0.682-3.679,1.41C110.758,227.897,109.577,227.192,109.119,225.532z"/>
			<path style="fill:#EBEBEB;" d="M124.419,232.9c-0.116-0.423-0.186-0.907-0.218-1.441c-0.177-2.988-3.03-2.514-5.457-2.92
				c-1.896-0.317,3.124-5.106-0.699-6.651c-0.71-0.287-1.482-0.612-1.845-1.286c-0.48-0.892,0.006-2.066,0.833-2.651
				c0.827-0.585,1.89-0.709,2.902-0.728c0.624-0.758,0.117-1.899-0.487-2.673c-0.603-0.774-1.342-1.655-1.114-2.609
				c0.345-1.441,2.36-1.493,3.815-1.213c0.538-0.871,0.527-1.96,0.788-2.95c0.261-0.99,1.048-2.028,2.064-1.905
				c0.957,0.117,1.542,1.197,2.48,1.419c1.09,0.257,2.034-0.707,2.889-1.43c0.855-0.723,2.35-1.174,2.939-0.222
				c0.353,0.57,0.141,1.365,0.508,1.926c0.635,0.973,2.141,0.369,3.076-0.321s2.424-1.315,3.082-0.357
				c0.202,0.294,0.246,0.663,0.362,1c0.442,1.276,1.822,1.912,2.897,2.731c1.075,0.819,1.926,2.447,1.017,3.446
				c-0.449,0.493-1.238,0.693-1.461,1.321c-0.279,0.785,0.523,1.488,1.158,2.028c1.056,0.898,1.248,3.587-0.149,4.322
				c-0.586,0.309-1.446,0.403-1.59,1.05c-0.129,0.578,0.458,1.028,0.848,1.474c1.071,1.225,0.617,3.429-0.85,4.132
				c-0.335,0.161-0.747,0.292-0.871,0.643c-0.089,0.251,0.008,0.524,0.08,0.78c0.136,0.485,0.182,0.995,0.134,1.497
				c-0.016,0.171-0.051,0.357-0.182,0.47c-0.119,0.102-0.286,0.118-0.443,0.125c-2.017,0.09-2.99-0.624-4.221,1.131
				c-0.118,0.169-0.242,0.342-0.42,0.446c-0.167,0.097-0.364,0.123-0.557,0.139c-1.386,0.114-2.292-0.751-3.559-0.912
				c-1.758-0.224-2.13,0.682-3.679,1.41C126.058,235.265,124.877,234.559,124.419,232.9z"/>
			<path style="fill:#EBEBEB;" d="M139.882,229.497c-0.117-0.423-0.186-0.907-0.218-1.441c-0.178-2.988-3.03-2.515-5.457-2.92
				c-1.896-0.317,3.124-5.106-0.699-6.651c-0.71-0.287-1.482-0.611-1.845-1.286c-0.48-0.892,0.006-2.066,0.833-2.651
				c0.827-0.585,1.89-0.709,2.902-0.728c0.623-0.758,0.116-1.899-0.487-2.673c-0.603-0.774-1.342-1.655-1.114-2.609
				c0.345-1.441,2.359-1.493,3.815-1.213c0.538-0.871,0.527-1.96,0.788-2.95c0.261-0.99,1.048-2.028,2.064-1.905
				c0.957,0.117,1.542,1.197,2.48,1.419c1.09,0.257,2.034-0.707,2.889-1.43c0.855-0.723,2.35-1.174,2.939-0.222
				c0.353,0.57,0.141,1.365,0.508,1.926c0.635,0.973,2.141,0.369,3.076-0.321c0.935-0.69,2.425-1.315,3.082-0.357
				c0.202,0.293,0.246,0.663,0.362,0.999c0.442,1.276,1.822,1.912,2.897,2.731c1.075,0.819,1.926,2.447,1.017,3.446
				c-0.449,0.493-1.238,0.693-1.461,1.321c-0.279,0.785,0.523,1.488,1.158,2.028c1.056,0.898,1.248,3.587-0.149,4.322
				c-0.586,0.309-1.446,0.403-1.59,1.05c-0.129,0.578,0.458,1.028,0.848,1.474c1.071,1.225,0.618,3.429-0.849,4.132
				c-0.335,0.161-0.747,0.292-0.872,0.643c-0.089,0.251,0.008,0.524,0.08,0.78c0.136,0.485,0.182,0.995,0.134,1.497
				c-0.016,0.172-0.051,0.357-0.182,0.47c-0.119,0.102-0.286,0.118-0.443,0.125c-2.017,0.09-2.99-0.624-4.221,1.131
				c-0.118,0.169-0.242,0.342-0.42,0.446c-0.167,0.097-0.364,0.123-0.557,0.139c-1.386,0.114-2.292-0.751-3.559-0.912
				c-1.758-0.224-2.13,0.682-3.679,1.41C141.52,231.862,140.34,231.156,139.882,229.497z"/>
			<path style="fill:#EBEBEB;" d="M140.084,246.037c-0.092-0.333-0.146-0.714-0.171-1.134c-0.14-2.353-2.386-1.98-4.297-2.299
				c-1.493-0.249,2.46-4.021-0.55-5.237c-0.559-0.226-1.167-0.481-1.452-1.012c-0.378-0.702,0.004-1.626,0.656-2.087
				c0.651-0.461,1.488-0.558,2.285-0.573c0.491-0.597,0.092-1.495-0.383-2.105c-0.475-0.61-1.057-1.303-0.877-2.055
				c0.272-1.135,1.858-1.176,3.004-0.955c0.423-0.686,0.415-1.543,0.621-2.323c0.205-0.779,0.825-1.597,1.625-1.5
				c0.754,0.092,1.214,0.943,1.953,1.117c0.858,0.202,1.601-0.557,2.275-1.126c0.673-0.569,1.851-0.925,2.314-0.175
				c0.278,0.449,0.111,1.075,0.4,1.517c0.5,0.766,1.686,0.291,2.422-0.253c0.736-0.543,1.909-1.035,2.427-0.281
				c0.159,0.231,0.194,0.522,0.285,0.787c0.348,1.005,1.435,1.506,2.281,2.15c0.846,0.645,1.517,1.927,0.801,2.713
				c-0.353,0.388-0.975,0.545-1.15,1.04c-0.219,0.618,0.412,1.172,0.912,1.597c0.832,0.707,0.982,2.824-0.117,3.403
				c-0.462,0.243-1.139,0.318-1.252,0.827c-0.101,0.455,0.361,0.81,0.668,1.161c0.843,0.964,0.486,2.7-0.669,3.253
				c-0.264,0.127-0.588,0.23-0.686,0.506c-0.07,0.197,0.006,0.413,0.063,0.615c0.107,0.382,0.143,0.783,0.106,1.178
				c-0.013,0.135-0.041,0.281-0.143,0.37c-0.093,0.08-0.226,0.093-0.349,0.098c-1.588,0.071-2.354-0.491-3.323,0.891
				c-0.093,0.133-0.191,0.27-0.331,0.351c-0.131,0.077-0.287,0.097-0.438,0.109c-1.092,0.09-1.805-0.591-2.803-0.718
				c-1.384-0.176-1.677,0.537-2.897,1.11C141.374,247.9,140.444,247.344,140.084,246.037z"/>
			<path style="fill:#EBEBEB;" d="M148.748,240.323c-0.117-0.423-0.186-0.907-0.218-1.441c-0.178-2.988-3.03-2.515-5.457-2.92
				c-1.896-0.317,3.124-5.106-0.698-6.651c-0.71-0.287-1.482-0.611-1.845-1.286c-0.48-0.892,0.006-2.066,0.833-2.65
				c0.827-0.585,1.89-0.709,2.902-0.728c0.623-0.758,0.117-1.899-0.487-2.673c-0.603-0.774-1.342-1.655-1.114-2.609
				c0.345-1.441,2.359-1.493,3.815-1.213c0.538-0.871,0.527-1.96,0.788-2.949s1.048-2.029,2.064-1.905
				c0.957,0.117,1.542,1.197,2.48,1.418c1.09,0.257,2.034-0.707,2.889-1.43c0.855-0.723,2.35-1.174,2.939-0.222
				c0.353,0.57,0.141,1.365,0.508,1.927c0.635,0.973,2.141,0.369,3.076-0.321c0.935-0.69,2.424-1.315,3.082-0.357
				c0.202,0.294,0.246,0.663,0.362,0.999c0.442,1.277,1.822,1.912,2.897,2.731c1.075,0.819,1.926,2.447,1.017,3.446
				c-0.449,0.493-1.238,0.693-1.461,1.321c-0.279,0.785,0.523,1.488,1.158,2.028c1.056,0.898,1.248,3.587-0.149,4.322
				c-0.586,0.309-1.446,0.403-1.59,1.05c-0.129,0.578,0.458,1.028,0.848,1.474c1.071,1.225,0.617,3.429-0.85,4.132
				c-0.335,0.161-0.747,0.292-0.872,0.643c-0.089,0.251,0.008,0.524,0.08,0.78c0.136,0.485,0.182,0.995,0.135,1.497
				c-0.016,0.171-0.051,0.357-0.182,0.47c-0.119,0.102-0.287,0.118-0.443,0.125c-2.017,0.09-2.99-0.624-4.221,1.131
				c-0.118,0.169-0.242,0.342-0.42,0.446c-0.167,0.097-0.364,0.123-0.557,0.139c-1.386,0.114-2.292-0.751-3.559-0.912
				c-1.758-0.224-2.13,0.682-3.679,1.41C150.387,242.689,149.206,241.983,148.748,240.323z"/>
			<path style="fill:#EBEBEB;" d="M124.419,214.706c-0.116-0.423-0.186-0.907-0.218-1.441c-0.177-2.988-3.03-2.514-5.457-2.92
				c-1.896-0.317,3.124-5.106-0.699-6.651c-0.71-0.287-1.482-0.611-1.845-1.286c-0.48-0.892,0.006-2.066,0.833-2.651
				c0.827-0.585,1.89-0.709,2.902-0.728c0.624-0.758,0.117-1.899-0.487-2.673c-0.603-0.774-1.342-1.655-1.114-2.609
				c0.345-1.441,2.36-1.493,3.815-1.213c0.538-0.871,0.527-1.96,0.788-2.95c0.261-0.99,1.048-2.028,2.064-1.905
				c0.957,0.117,1.542,1.197,2.48,1.419c1.09,0.257,2.034-0.707,2.889-1.43c0.855-0.723,2.35-1.174,2.939-0.222
				c0.353,0.57,0.141,1.365,0.508,1.926c0.635,0.973,2.141,0.369,3.076-0.321s2.424-1.315,3.082-0.357
				c0.202,0.293,0.246,0.663,0.362,1c0.442,1.276,1.822,1.912,2.897,2.731s1.926,2.447,1.017,3.446
				c-0.449,0.493-1.238,0.693-1.461,1.321c-0.279,0.785,0.523,1.488,1.158,2.028c1.056,0.898,1.248,3.587-0.149,4.322
				c-0.586,0.309-1.446,0.403-1.59,1.05c-0.129,0.578,0.458,1.028,0.848,1.474c1.071,1.225,0.617,3.429-0.85,4.132
				c-0.335,0.161-0.747,0.292-0.871,0.643c-0.089,0.251,0.008,0.524,0.08,0.78c0.136,0.485,0.182,0.995,0.134,1.496
				c-0.016,0.172-0.051,0.357-0.182,0.47c-0.119,0.102-0.286,0.118-0.443,0.125c-2.017,0.09-2.99-0.624-4.221,1.131
				c-0.118,0.169-0.242,0.342-0.42,0.446c-0.167,0.097-0.364,0.123-0.557,0.139c-1.386,0.114-2.292-0.751-3.559-0.913
				c-1.758-0.224-2.13,0.682-3.679,1.41C126.058,217.071,124.877,216.365,124.419,214.706z"/>
			<path style="fill:#EBEBEB;" d="M104.555,215.721c-0.117-0.423-0.186-0.907-0.218-1.441c-0.177-2.988-3.03-2.515-5.457-2.92
				c-1.896-0.317,3.124-5.106-0.698-6.651c-0.71-0.287-1.482-0.612-1.845-1.286c-0.48-0.892,0.006-2.066,0.833-2.65
				c0.827-0.585,1.89-0.709,2.902-0.728c0.624-0.758,0.117-1.899-0.487-2.673c-0.604-0.774-1.342-1.655-1.114-2.609
				c0.345-1.441,2.36-1.493,3.815-1.213c0.538-0.871,0.527-1.96,0.788-2.949c0.261-0.99,1.048-2.029,2.064-1.905
				c0.957,0.117,1.542,1.197,2.48,1.419c1.09,0.257,2.034-0.707,2.889-1.43c0.855-0.723,2.35-1.174,2.939-0.222
				c0.353,0.57,0.141,1.365,0.508,1.926c0.635,0.973,2.141,0.369,3.076-0.321c0.935-0.69,2.424-1.315,3.082-0.357
				c0.201,0.294,0.246,0.663,0.362,0.999c0.442,1.277,1.822,1.912,2.897,2.731c1.075,0.819,1.926,2.447,1.017,3.446
				c-0.449,0.493-1.238,0.692-1.461,1.321c-0.279,0.785,0.523,1.488,1.158,2.028c1.056,0.898,1.248,3.587-0.149,4.322
				c-0.586,0.309-1.446,0.403-1.59,1.05c-0.129,0.578,0.458,1.028,0.848,1.474c1.071,1.225,0.618,3.429-0.85,4.132
				c-0.335,0.161-0.747,0.292-0.871,0.643c-0.089,0.251,0.008,0.524,0.08,0.78c0.136,0.485,0.182,0.995,0.134,1.497
				c-0.016,0.171-0.051,0.357-0.182,0.47c-0.119,0.102-0.287,0.118-0.443,0.125c-2.017,0.09-2.99-0.624-4.221,1.131
				c-0.118,0.169-0.242,0.342-0.42,0.446c-0.167,0.097-0.364,0.123-0.556,0.139c-1.386,0.114-2.293-0.751-3.559-0.912
				c-1.758-0.224-2.13,0.682-3.679,1.41C106.193,218.087,105.012,217.381,104.555,215.721z"/>
			<path style="fill:#EBEBEB;" d="M92.489,223.85c-0.117-0.423-0.186-0.907-0.218-1.44c-0.178-2.988-3.03-2.515-5.457-2.92
				c-1.896-0.317,3.124-5.106-0.699-6.651c-0.71-0.287-1.482-0.611-1.845-1.286c-0.48-0.892,0.006-2.066,0.833-2.65
				c0.827-0.585,1.89-0.709,2.902-0.728c0.624-0.758,0.117-1.899-0.487-2.673c-0.604-0.774-1.342-1.655-1.114-2.609
				c0.345-1.441,2.36-1.493,3.815-1.213c0.538-0.871,0.527-1.96,0.788-2.95c0.261-0.99,1.048-2.028,2.064-1.905
				c0.957,0.117,1.542,1.197,2.48,1.419c1.09,0.257,2.034-0.707,2.889-1.43c0.855-0.723,2.35-1.174,2.939-0.222
				c0.353,0.57,0.142,1.365,0.508,1.927c0.635,0.973,2.141,0.369,3.076-0.321c0.935-0.69,2.425-1.315,3.082-0.357
				c0.201,0.294,0.246,0.663,0.362,1c0.442,1.276,1.822,1.912,2.897,2.731c1.075,0.819,1.926,2.447,1.017,3.446
				c-0.449,0.493-1.238,0.692-1.461,1.321c-0.279,0.785,0.524,1.488,1.158,2.028c1.056,0.898,1.248,3.587-0.149,4.322
				c-0.586,0.309-1.446,0.403-1.59,1.05c-0.129,0.578,0.458,1.028,0.848,1.474c1.071,1.225,0.618,3.429-0.85,4.132
				c-0.335,0.161-0.747,0.292-0.871,0.643c-0.089,0.251,0.008,0.524,0.08,0.781c0.136,0.485,0.182,0.995,0.134,1.496
				c-0.016,0.171-0.051,0.357-0.182,0.47c-0.118,0.102-0.286,0.118-0.443,0.124c-2.017,0.09-2.99-0.624-4.221,1.131
				c-0.118,0.169-0.242,0.343-0.42,0.446c-0.167,0.097-0.364,0.123-0.557,0.139c-1.386,0.114-2.292-0.751-3.559-0.913
				c-1.758-0.224-2.13,0.682-3.679,1.41C94.127,226.216,92.946,225.51,92.489,223.85z"/>
			<path style="fill:#E6E6E6;" d="M96.147,234.125c0,0,5.046,7.134,6.786,9.396c1.74,2.262,10.44,16.356,11.624,25.678
				c0.126,0.995,0.251,1.851,0.372,2.6c-3.742,24.701-3.155,69.892-3.023,77.629h11.856c0.109-8.724,1.117-88.474,1.488-90.909
				c0.393-2.576,5.349-12.388,13.005-16.419c7.656-4.031,14.272-17.371,14.272-17.371h-2.44c0,0-4.524,8.178-10.962,12.702
				c-0.935,0.657-1.903,1.204-2.897,1.717c0.231-7.37-2.56-14.419-2.56-14.419l-1.317,1.218c1.779,7.284,1.545,11.949,1.006,14.629
				c-2.161,1.083-4.402,2.336-6.657,4.455c-6.678-8.684-10.433-28.544-10.433-28.544l-1.71,0.934c0,0,0.556,5.394,2.208,12.18
				c1.251,5.14,4.933,14.818,6.647,19.212c-1.703,2.365-3.394,5.422-5.045,9.469c-0.187-0.288-0.398-0.55-0.644-0.772
				c-4.35-3.933-12.528-22.515-12.528-22.515c-1.978-4.32,1.044-15.66,1.044-15.66h-2.283l-1.023,9.918l-5.742-6.264l-1.044,0.87
				l6.09,7.83l3.132,9.92l-8.178-9.05L96.147,234.125z"/>
		</g>
		<path style="fill:#E0E0E0;" d="M66.203,363.4h367.594c4.371,0,7.915,3.544,7.915,7.915v11.922H58.288v-11.922
			C58.288,366.943,61.832,363.4,66.203,363.4z"/>
	</g>
</g>
<g id="Background_Simple" style="display:none;">
	<g style="display:inline;">
		<path style="fill:#407BFF;" d="M298.673,208.3c-69.138-19.558-94.993-169.434-196.032-88.754
			c-71.682,57.238-26.09,198.982,64.387,183.401c54.764-9.431,46.287-10.534,93.03,16.798
			c47.369,27.698,99.366,41.872,149.229-5.927c25.804-24.736,35.438-85.537,9.825-117.3
			C387.079,156.794,340.909,220.249,298.673,208.3z"/>
		<path style="opacity:0.9;fill:#FFFFFF;" d="M298.673,208.3c-69.138-19.558-94.993-169.434-196.032-88.754
			c-71.682,57.238-26.09,198.982,64.387,183.401c54.764-9.431,46.287-10.534,93.03,16.798
			c47.369,27.698,99.366,41.872,149.229-5.927c25.804-24.736,35.438-85.537,9.825-117.3
			C387.079,156.794,340.909,220.249,298.673,208.3z"/>
	</g>
</g>
<g id="Shadow_1_">
	<ellipse id="_x3C_Path_x3E__359_" style="fill:#F5F5F5;" cx="250" cy="416.238" rx="193.889" ry="11.323"/>
</g>
<g id="Plant">
	<g>
		<path style="fill:#263238;" d="M105.42,391.158c0,0-1.388-10.175-7.895-11.288c-6.506-1.113-4.545-6.033-6.24-7.937
			c-1.695-1.904-6.122,3.714-2.33,9.156c3.793,5.443,0.692,3.732,2.33,8.793C92.923,394.943,106.015,399.591,105.42,391.158z"/>
		<path style="opacity:0.2;fill:#FFFFFF;enable-background:new    ;" d="M105.42,391.158c0,0-1.388-10.175-7.895-11.288
			c-6.506-1.113-4.545-6.033-6.24-7.937c-1.695-1.904-6.122,3.714-2.33,9.156c3.793,5.443,0.692,3.732,2.33,8.793
			C92.923,394.943,106.015,399.591,105.42,391.158z"/>
		
			<path style="fill:none;stroke:#263238;stroke-width:0.9024;stroke-linecap:round;stroke-linejoin:round;stroke-miterlimit:10;" d="
			M105.149,397.764c0,0-4.987-10.364-2.369-27.279c2.618-16.915,12.451-23.48,3.904-42.092
			c-8.547-18.613-18.314-31.884-13.429-45.091"/>
		<path style="fill:#263238;" d="M101.393,395.73c0,0-4.206-6.338,1.865-9.596c6.07-3.258,7.286-0.635,11.042-2.978
			c3.756-2.343,6.601-8.021,7.242-4.388c0.64,3.632-3.697,5.705-2.163,7.366C120.912,387.796,109.169,398.587,101.393,395.73z"/>
		<g>
			<path style="fill:#263238;" d="M91.472,288.595c0,0-4.098-12.454,5.22-12.715C106.011,275.619,95.74,287.267,91.472,288.595z"/>
			<path style="fill:#263238;" d="M99.566,298.169c0,0,2.777-11.324,9.392-8.936C115.572,291.622,106.159,298.378,99.566,298.169z"
				/>
			<path style="fill:#263238;" d="M88.345,299.151c0,0,0.997-9.037-6.022-9.216C75.305,289.755,78.429,297.691,88.345,299.151z"/>
			<path style="fill:#263238;" d="M93.015,317.585c0,0-9.42-8.397-12.807-2.148S87.313,322.988,93.015,317.585z"/>
			<path style="fill:#263238;" d="M109.68,316.095c0,0,1.771-13.947,9.38-9.572C126.67,310.897,116.309,317.489,109.68,316.095z"/>
			<path style="fill:#263238;" d="M116.375,336.063c0,0-5.616-14.092,4.82-12.504C131.632,325.146,123.743,332.643,116.375,336.063z
				"/>
			<path style="fill:#263238;" d="M100.36,341.091c0,0-8.816-10.385-15.552-7.092C78.071,337.293,83.577,347.617,100.36,341.091z"/>
			<path style="fill:#263238;" d="M108.36,364.1c0,0,7.51-16.676,14.188-11.056C129.225,358.665,118.288,367.067,108.36,364.1z"/>
			<path style="fill:#263238;" d="M97.446,363.124c0,0,1.984-12.936-5.451-11.896C84.561,352.268,86.513,360.182,97.446,363.124z"/>
			<g style="opacity:0.2;enable-background:new    ;">
				<path style="fill:#FFFFFF;" d="M91.472,288.595c0,0-4.098-12.454,5.22-12.715C106.011,275.619,95.74,287.267,91.472,288.595z"/>
				<path style="fill:#FFFFFF;" d="M99.566,298.169c0,0,2.777-11.324,9.392-8.936C115.572,291.622,106.159,298.378,99.566,298.169z"
					/>
				<path style="fill:#FFFFFF;" d="M88.345,299.151c0,0,0.997-9.037-6.022-9.216C75.305,289.755,78.429,297.691,88.345,299.151z"/>
				<path style="fill:#FFFFFF;" d="M93.015,317.585c0,0-9.42-8.397-12.807-2.148S87.313,322.988,93.015,317.585z"/>
				<path style="fill:#FFFFFF;" d="M109.68,316.095c0,0,1.771-13.947,9.38-9.572C126.67,310.897,116.309,317.489,109.68,316.095z"/>
				<path style="fill:#FFFFFF;" d="M116.375,336.063c0,0-5.616-14.092,4.82-12.504C131.632,325.146,123.743,332.643,116.375,336.063
					z"/>
				<path style="fill:#FFFFFF;" d="M100.36,341.091c0,0-8.816-10.385-15.552-7.092C78.071,337.293,83.577,347.617,100.36,341.091z"
					/>
				<path style="fill:#FFFFFF;" d="M108.36,364.1c0,0,7.51-16.676,14.188-11.056C129.225,358.665,118.288,367.067,108.36,364.1z"/>
				<path style="fill:#FFFFFF;" d="M97.446,363.124c0,0,1.984-12.936-5.451-11.896C84.561,352.268,86.513,360.182,97.446,363.124z"
					/>
			</g>
		</g>
		
			<path style="fill:none;stroke:#263238;stroke-width:0.9024;stroke-linecap:round;stroke-linejoin:round;stroke-miterlimit:10;" d="
			M86.009,296.188c0,0,4.009,5.957,9.494,9.028c0,0,3.628-7,6.458-8.697"/>
		
			<path style="fill:none;stroke:#263238;stroke-width:0.9024;stroke-linecap:round;stroke-linejoin:round;stroke-miterlimit:10;" d="
			M85.782,316.75c0,0,10.194-0.329,18.263,5.771c0,0,4.48-7.594,10.358-11.055"/>
		
			<path style="fill:none;stroke:#263238;stroke-width:0.9024;stroke-linecap:round;stroke-linejoin:round;stroke-miterlimit:10;" d="
			M119.449,329.39c0,0-4.376,11.517-9.964,15.999c0,0-11.58-6.713-20.084-6.881"/>
		
			<path style="fill:none;stroke:#263238;stroke-width:0.9024;stroke-linecap:round;stroke-linejoin:round;stroke-miterlimit:10;" d="
			M92.856,355.424c0,0,5.722,11.169,9.99,13.61c0,0,3.989-5.626,12.619-8.217"/>
		<path style="fill:#263238;" d="M102.039,394.218c0,0-3.606-5.74-7.679-6.557c-4.073-0.817-5.828-5.508-7.331-2.687
			C85.525,387.796,89.67,397.15,102.039,394.218z"/>
		<g>
			<polygon style="fill:#407BFF;" points="83.323,416.749 122.701,416.749 125.336,392.46 80.688,392.46 			"/>
			<polygon style="fill:#407BFF;" points="79.769,397.062 126.256,397.062 126.85,391.915 79.174,391.915 			"/>
			<polygon style="opacity:0.3;fill:#FFFFFF;" points="79.769,397.062 126.256,397.062 126.85,391.915 79.174,391.915 			"/>
		</g>
	</g>
</g>
<g id="Lamp">
	<g>
		<polygon style="fill:#263238;" points="428.898,154.064 425.478,186.913 408.358,186.913 404.938,154.064 		"/>
		<polygon style="opacity:0.3;fill:#FFFFFF;" points="428.898,154.064 425.478,186.913 408.358,186.913 404.938,154.064 		"/>
		<rect x="413.733" y="179.849" style="fill:#263238;" width="6.371" height="236.9"/>
		<rect x="413.733" y="179.849" style="opacity:0.3;fill:#FFFFFF;" width="6.371" height="236.9"/>
		<polygon style="fill:#407BFF;" points="423.677,184.909 410.16,184.909 407.16,156.061 426.677,156.061 		"/>
		<polygon style="opacity:0.4;fill:#FFFFFF;enable-background:new    ;" points="423.677,184.909 410.16,184.909 407.16,156.061 
			426.677,156.061 		"/>
		<polygon style="fill:#263238;" points="415.141,185.36 414.218,185.36 413.218,155.061 414.141,155.061 		"/>
		<polygon style="opacity:0.3;fill:#FFFFFF;" points="415.141,185.36 414.218,185.36 413.218,155.061 414.141,155.061 		"/>
		<polygon style="opacity:0.2;fill:#FFFFFF;" points="428.898,154.064 425.478,186.913 414.718,186.913 413.428,154.064 		"/>
		<path style="fill:#263238;" d="M416.919,143.503c0,0-10.154,10.022-17.934,10.022l2.414,1.582h15.52h15.52l2.414-1.582
			C427.073,153.525,416.919,143.503,416.919,143.503z"/>
		<path style="opacity:0.4;fill:#FFFFFF;" d="M434.848,153.524l-2.41,1.58h-31.04l-2.41-1.58c7.78,0,17.93-10.02,17.93-10.02
			S427.068,153.524,434.848,153.524z"/>
		<path style="opacity:0.2;fill:#FFFFFF;" d="M434.848,153.524l-2.41,1.58h-20.16c-0.61-0.99-1.04-1.71-1.04-1.71
			c5.41-2.51,5.68-9.89,5.68-9.89S427.068,153.524,434.848,153.524z"/>
		<path style="fill:#263238;" d="M422.387,412.366h-10.936c-1.366,0-2.473,1.107-2.473,2.473v1.911h15.881v-1.911
			C424.859,413.473,423.752,412.366,422.387,412.366z"/>
		<path style="opacity:0.5;fill:#FFFFFF;" d="M422.387,412.366h-10.936c-1.366,0-2.473,1.107-2.473,2.473v1.911h15.881v-1.911
			C424.859,413.473,423.752,412.366,422.387,412.366z"/>
	</g>
</g>
<g id="Interface">
	<g>
		<path style="fill:#407BFF;" d="M240.014,316.12H109.433c-4.324,0-7.83-3.505-7.83-7.83V125.374c0-4.324,3.506-7.83,7.83-7.83
			h130.581c4.324,0,7.83,3.506,7.83,7.83V308.29C247.844,312.615,244.338,316.12,240.014,316.12z"/>
		<path style="opacity:0.6;fill:#FFFFFF;enable-background:new    ;" d="M240.014,316.12H109.433c-4.324,0-7.83-3.505-7.83-7.83
			V125.374c0-4.324,3.506-7.83,7.83-7.83h130.581c4.324,0,7.83,3.506,7.83,7.83V308.29
			C247.844,312.615,244.338,316.12,240.014,316.12z"/>
		<g>
			<path style="fill:#407BFF;" d="M194.363,170.79c0,6.11-2.79,11.57-7.17,15.18c-3.39,2.78-7.73,4.46-12.47,4.46
				c-4.73,0-9.07-1.67-12.46-4.46c-4.38-3.6-7.18-9.06-7.18-15.18c0-10.84,8.8-19.63,19.64-19.63
				C185.573,151.16,194.363,159.95,194.363,170.79z"/>
			<path style="opacity:0.7;fill:#FFFFFF;" d="M194.363,170.79c0,6.11-2.79,11.57-7.17,15.18c-3.39,2.78-7.73,4.46-12.47,4.46
				c-4.73,0-9.07-1.67-12.46-4.46c-4.38-3.6-7.18-9.06-7.18-15.18c0-10.84,8.8-19.63,19.64-19.63
				C185.573,151.16,194.363,159.95,194.363,170.79z"/>
			<g>
				<circle style="fill:#FFFFFF;" cx="174.724" cy="168.945" r="7.033"/>
				<path style="fill:#FFFFFF;" d="M187.193,185.97c-3.39,2.78-7.73,4.46-12.47,4.46c-4.73,0-9.07-1.67-12.46-4.46
					c1.84-5.39,5.63-9.37,10.18-10.38c0.74-0.16,1.5-0.25,2.28-0.25c0.78,0,1.54,0.09,2.28,0.25
					C181.563,176.6,185.343,180.58,187.193,185.97z"/>
			</g>
		</g>
		<text transform="matrix(1 0 0 1 162.1393 247.8185)" style="opacity:0.5; font-family:'Montserrat-Regular'; font-size:4px;">Sign up now</text>
		<path style="fill:#407BFF;" d="M214.285,269.93h-79.125c-4.514,0-8.174-3.659-8.174-8.174v0c0-4.514,3.66-8.174,8.174-8.174
			h79.125c4.514,0,8.174,3.66,8.174,8.174v0C222.459,266.271,218.8,269.93,214.285,269.93z"/>
		<g style="opacity:0.5;">
			<text transform="matrix(1 0 0 1 156.731 280.8609)" style="font-family:'Montserrat-Regular'; font-size:4px;">Forgot Password?</text>
		</g>
		<text transform="matrix(1 0 0 1 163.207 264.2962)" style="fill:#FFFFFF; font-family:'Montserrat-Medium'; font-size:8px;">Login</text>
		<path style="fill:#FFFFFF;" d="M214.285,214.726h-79.125c-4.514,0-8.174-3.66-8.174-8.174v0c0-4.514,3.66-8.174,8.174-8.174
			h79.125c4.514,0,8.174,3.66,8.174,8.174v0C222.459,211.066,218.8,214.726,214.285,214.726z"/>
		<path style="fill:#FFFFFF;" d="M214.285,237.91h-79.125c-4.514,0-8.174-3.66-8.174-8.174v0c0-4.514,3.66-8.174,8.174-8.174h79.125
			c4.514,0,8.174,3.66,8.174,8.174v0C222.459,234.25,218.8,237.91,214.285,237.91z"/>
		<g style="opacity:0.5;">
			<text transform="matrix(1 0 0 1 137.4617 208.0222)" style="font-family:'Montserrat-Regular'; font-size:5px;">Name@mail.com</text>
		</g>
		<text transform="matrix(1 0 0 1 137.4617 234.1825)" style="opacity:0.5; font-family:'Montserrat-Regular'; font-size:7px;">*******</text>
		<path style="opacity:0.2;" d="M205.658,202.713v7.678h10.878v-7.678H205.658z M214.761,203.55l-3.663,2.496l-3.664-2.496H214.761z
			 M206.495,209.554v-5.632l4.602,3.136l4.602-3.136v5.632H206.495z"/>
		<g style="opacity:0.2;">
			<g>
				<path d="M213.667,228.464v-0.933c0-1.174-0.955-2.129-2.129-2.129h-1.159c-1.174,0-2.129,0.955-2.129,2.129v0.933H206.5v6.382
					h9.195v-6.382H213.667z M209.088,227.53c0-0.713,0.579-1.292,1.292-1.292h1.159c0.713,0,1.292,0.579,1.292,1.292v0.933h-3.743
					V227.53z M214.858,234.008h-7.522V229.3h7.522V234.008z"/>
				<path d="M210.856,231.91v0.758h0.483v-0.758c0.138-0.083,0.235-0.228,0.235-0.401c0-0.263-0.213-0.476-0.476-0.476
					c-0.263,0-0.476,0.213-0.476,0.476C210.622,231.682,210.718,231.827,210.856,231.91z"/>
			</g>
		</g>
	</g>
</g>
<g id="Speech_bubble">
	<g>
		<g>
			<path style="fill:#407BFF;" d="M351.658,145.652H322.93c-4.886,0-8.846,3.961-8.846,8.846V179.5c0,4.885,3.961,8.846,8.846,8.846
				h11.362l3.002,7.894l3.002-7.894h11.363c4.885,0,8.846-3.96,8.846-8.846v-25.002
				C360.504,149.613,356.544,145.652,351.658,145.652z"/>
			<path style="opacity:0.7;fill:#FFFFFF;" d="M351.658,145.652H322.93c-4.886,0-8.846,3.961-8.846,8.846V179.5
				c0,4.885,3.961,8.846,8.846,8.846h11.362l3.002,7.894l3.002-7.894h11.363c4.885,0,8.846-3.96,8.846-8.846v-25.002
				C360.504,149.613,356.544,145.652,351.658,145.652z"/>
		</g>
		<g>
			<g style="enable-background:new    ;">
				
					<ellipse transform="matrix(0.7071 -0.7071 0.7071 0.7071 -19.2188 287.3842)" style="fill:#407BFF;" cx="337.294" cy="166.891" rx="14.258" ry="14.258"/>
			</g>
			<g>
				<path style="fill:#FFFFFF;" d="M335.797,173.26c-0.385,0-0.75-0.169-0.999-0.462l-5.594-6.591
					c-0.468-0.552-0.4-1.378,0.151-1.847c0.551-0.467,1.378-0.401,1.847,0.151l4.595,5.414l7.588-8.94
					c0.469-0.553,1.296-0.619,1.847-0.151c0.552,0.468,0.62,1.295,0.151,1.847l-8.587,10.118
					C336.547,173.091,336.182,173.26,335.797,173.26z"/>
			</g>
		</g>
	</g>
</g>
<g id="Character">
	<g>
		<polygon style="fill:#263238;" points="390.688,416.749 397.291,416.749 383.792,340.555 377.188,340.555 		"/>
		<polygon style="fill:#263238;" points="245.532,416.749 252.136,416.749 238.637,340.555 232.033,340.555 		"/>
		<polygon style="opacity:0.3;fill:#FFFFFF;" points="390.688,416.749 397.291,416.749 383.792,340.555 377.188,340.555 		"/>
		<polygon style="opacity:0.3;fill:#FFFFFF;" points="245.532,416.749 252.136,416.749 238.637,340.555 232.033,340.555 		"/>
		
			<rect x="188.086" y="378.652" transform="matrix(-1 -1.224647e-16 1.224647e-16 -1 575.326 763.9917)" style="fill:#263238;" width="199.153" height="6.688"/>
		
			<rect x="188.086" y="378.652" transform="matrix(-1 -1.224647e-16 1.224647e-16 -1 575.326 763.9917)" style="opacity:0.5;fill:#FFFFFF;" width="199.153" height="6.688"/>
		<polygon style="fill:#263238;" points="329.793,416.749 323.19,416.749 336.689,340.555 343.293,340.555 		"/>
		<polygon style="fill:#263238;" points="184.639,416.749 178.035,416.749 191.534,340.555 198.138,340.555 		"/>
		<polygon style="opacity:0.3;fill:#FFFFFF;" points="329.793,416.749 323.19,416.749 336.689,340.555 343.293,340.555 		"/>
		<polygon style="opacity:0.3;fill:#FFFFFF;" points="184.639,416.749 178.035,416.749 191.534,340.555 198.138,340.555 		"/>
		<polygon style="fill:#263238;" points="244.521,337.594 251.092,337.594 262.092,276.444 255.52,276.444 		"/>
		<polygon style="opacity:0.3;fill:#FFFFFF;" points="244.521,337.594 251.092,337.594 262.092,276.444 255.52,276.444 		"/>
		<polygon style="fill:#263238;" points="375.006,337.594 381.578,337.594 392.577,276.444 386.006,276.444 		"/>
		<polygon style="fill:#263238;" points="309.763,337.594 316.335,337.594 327.335,276.444 320.763,276.444 		"/>
		<polygon style="opacity:0.3;fill:#FFFFFF;" points="375.006,337.594 381.578,337.594 392.577,276.444 386.006,276.444 		"/>
		<polygon style="opacity:0.3;fill:#FFFFFF;" points="309.763,337.594 316.335,337.594 327.335,276.444 320.763,276.444 		"/>
		<polygon style="fill:#263238;" points="233.171,280.621 405.741,280.621 407.8,269.176 235.23,269.176 		"/>
		<polygon style="fill:#263238;" points="229.447,301.323 402.018,301.323 404.076,289.878 231.506,289.878 		"/>
		<polygon style="fill:#263238;" points="225.723,322.025 398.294,322.025 400.353,310.58 227.782,310.58 		"/>
		
			<rect x="176.655" y="335.792" transform="matrix(-1 -1.224647e-16 1.224647e-16 -1 573.2399 679.5005)" style="fill:#263238;" width="219.929" height="7.917"/>
		<polygon style="opacity:0.5;fill:#FFFFFF;" points="233.171,280.621 405.741,280.621 407.8,269.176 235.23,269.176 		"/>
		<polygon style="opacity:0.5;fill:#FFFFFF;" points="229.447,301.323 402.018,301.323 404.076,289.878 231.506,289.878 		"/>
		<polygon style="opacity:0.5;fill:#FFFFFF;" points="225.723,322.025 398.294,322.025 400.353,310.58 227.782,310.58 		"/>
		
			<rect x="176.655" y="335.792" transform="matrix(-1 -1.224647e-16 1.224647e-16 -1 573.2399 679.5005)" style="opacity:0.5;fill:#FFFFFF;" width="219.929" height="7.917"/>
		
			<rect x="176.655" y="335.792" transform="matrix(-1 -1.224647e-16 1.224647e-16 -1 519.2418 679.5005)" style="opacity:0.2;fill:#FFFFFF;" width="165.931" height="7.917"/>
	</g>
	<g>
		<g>
			<path style="fill:#E9B376;" d="M325.585,254.205c-2.804,3.101-5.662,5.955-8.784,8.74c-1.563,1.382-3.168,2.742-4.935,4.044
				c-0.883,0.654-1.805,1.299-2.837,1.934c-0.522,0.313-1.076,0.623-1.708,0.93c-0.642,0.303-1.344,0.618-2.374,0.876
				c-0.541,0.121-1.165,0.243-2.06,0.208c-0.234-0.014-0.501-0.042-0.705-0.075l-0.364-0.081c-0.239-0.057-0.491-0.117-0.713-0.184
				c-0.831-0.274-1.543-0.596-2.135-0.925c-1.204-0.67-2.153-1.381-3.053-2.098c-1.786-1.428-3.271-2.954-4.715-4.488
				c-2.847-3.107-5.322-6.337-7.608-9.822c-0.755-1.152-0.434-2.697,0.717-3.453c0.948-0.622,2.164-0.514,2.985,0.186l0.054,0.047
				c2.975,2.54,6.009,5.124,9.016,7.471c1.492,1.18,3.031,2.284,4.488,3.2c0.724,0.447,1.454,0.834,2.039,1.061
				c0.297,0.13,0.52,0.172,0.643,0.195c0.019-0.003,0.013-0.018,0.018-0.019l0.002-0.001c-0.08-0.018-0.222-0.038-0.332-0.041
				c-0.395-0.021-0.522,0.014-0.579,0.014c-0.064-0.005,0.153-0.099,0.397-0.258c0.254-0.159,0.557-0.365,0.873-0.598
				c0.641-0.461,1.328-1.009,2.013-1.595c1.369-1.182,2.764-2.472,4.138-3.804c2.741-2.659,5.517-5.49,8.175-8.233l0.051-0.053
				c1.919-1.981,5.082-2.031,7.062-0.111C327.293,249.146,327.377,252.218,325.585,254.205z"/>
		</g>
		<path style="fill:#407BFF;" d="M323.046,245.249v14.33c0,0-3.03,2.52-6.75,5.3c-1.86,1.39-3.89,2.84-5.79,4.07
			c-2.89,1.88-5.49,3.26-6.81,3.18c-3.94-0.24-12.49-6.35-12.49-6.35l5.62-9.36c0,0,6.46,3.95,6.87,4.22
			C304.106,260.899,317.655,245.339,323.046,245.249z"/>
		<path style="opacity:0.2;" d="M316.296,264.879c-1.86,1.39-3.89,2.84-5.79,4.07c0.45-8.22,4.32-11.38,4.32-11.38
			C316.026,259.869,316.415,262.439,316.296,264.879z"/>
		<path style="fill:#263238;" d="M328.515,207.567c-6.9,5.631-6.089,21.83,1.668,32.461c0,0,16.559,1.388,25.756-2.73
			c9.197-4.118-0.969-30.348-10.691-32.413C335.525,202.82,328.515,207.567,328.515,207.567z"/>
		<path style="fill:#263238;" d="M328.916,224.404c-2.527-4.365-5.04-16.13,5.478-19.765c13.129-4.539,19.015,3.833,20.149,12.132
			c1.134,8.298-3.542,14.573-12.219,13.949C333.646,230.095,330.665,227.423,328.916,224.404z"/>
		<path style="fill:#263238;" d="M314.824,257.572c-1.285,6.066,0.966,20.367,1.336,31.145l30.918,3.564
			c0.008-3.383,0.634-8.285,2.648-16.072c1.16-4.562,2.812-10.116,5.082-16.935c0.334-1.014,0.681-2.047,1.047-3.116
			c1.628-4.764-1.18-9.572-6.035-10.332c-1.295-0.206-2.676-0.388-4.086-0.525c-5.506-0.562-10.031-0.98-14.951-0.794
			c-1.632,0.054-3.328,0.176-4.955,0.312C319.978,245.311,316.023,251.887,314.824,257.572z"/>
		<g>
			<path style="fill:#EBB376;" d="M345.575,228.409c-1.557,4.741-3.624,13.469-0.668,16.844c0,0-4.52-0.926-14.51,4.541
				c-2.587-4.166-0.438-5.336-0.438-5.336c5.527-0.99,5.897-4.962,5.44-8.734L345.575,228.409z"/>
			<path style="opacity:0.2;" d="M341.426,231.394l-6.023,4.327c0.111,0.893,0.171,1.796,0.122,2.668
				c2.087-0.186,5.189-2.277,5.68-4.402C341.45,232.926,341.536,231.9,341.426,231.394z"/>
		</g>
		<g>
			<path style="fill:#FFB573;" d="M347.639,217.338c0.107,7.913,0.32,11.26-3.355,15.601c-5.528,6.53-15.271,4.93-17.739-2.792
				c-2.222-6.95-2.023-18.723,5.452-22.435C339.362,204.055,347.533,209.426,347.639,217.338z"/>
			<path style="fill:#263238;" d="M340.93,209.938c-2.194,2.749,2.805,11.41,6.739,12.886
				C355.322,220.301,347.478,201.733,340.93,209.938z"/>
			<path style="fill:#263238;" d="M331.561,206.252c-2.91,1.28-5.641,6.749-5.997,8.792c4.326,0.325,15.472-4.677,15.472-4.677
				s7.856,1.447,3.63-2.102C340.44,204.716,331.561,206.252,331.561,206.252z"/>
			<path style="fill:#263238;" d="M334.481,220.558c0.048,0.641-0.253,1.187-0.672,1.218c-0.419,0.031-0.798-0.463-0.846-1.104
				c-0.048-0.641,0.253-1.187,0.672-1.218C334.054,219.422,334.433,219.917,334.481,220.558z"/>
			<path style="fill:#263238;" d="M327.232,221.101c0.048,0.641-0.253,1.187-0.672,1.218c-0.419,0.031-0.798-0.463-0.846-1.104
				c-0.048-0.641,0.253-1.187,0.672-1.218C326.805,219.966,327.184,220.46,327.232,221.101z"/>
			<path style="fill:#263238;" d="M326.574,220.019L325,219.69C325,219.69,325.88,220.834,326.574,220.019z"/>
			<path style="fill:#ED893E;" d="M330.306,221.902c0,0-0.881,2.843-1.98,4.265c0.906,0.727,2.319,0.258,2.319,0.258
				L330.306,221.902z"/>
			<path style="fill:#263238;" d="M334.331,228.674c-0.292,0.068-0.605,0.117-0.94,0.142c-0.104,0.008-0.195-0.07-0.202-0.174
				c-0.008-0.104,0.079-0.195,0.174-0.202c2.823-0.212,3.982-2.276,3.993-2.296c0.05-0.091,0.164-0.125,0.257-0.074
				c0.091,0.05,0.125,0.165,0.074,0.257C337.642,226.407,336.667,228.133,334.331,228.674z"/>
			<path style="fill:#FFB573;" d="M350.315,224.401c-0.445,1.579-1.578,2.805-2.764,3.445c-1.785,0.963-3.122-0.526-2.999-2.444
				c0.111-1.726,1.173-4.307,3.144-4.479C349.637,220.753,350.823,222.595,350.315,224.401z"/>
			<path style="fill:#263238;" d="M338.033,218.676c-0.155,0.036-0.322-0.029-0.409-0.173c-0.903-1.496-3.146-1.674-3.168-1.675
				c-0.208-0.015-0.365-0.196-0.35-0.404c0.014-0.208,0.194-0.365,0.404-0.35c0.108,0.008,2.658,0.211,3.761,2.038
				c0.108,0.179,0.05,0.411-0.128,0.519C338.108,218.653,338.071,218.668,338.033,218.676z"/>
			<path style="fill:#263238;" d="M325.556,217.729c-0.126,0.029-0.263-0.007-0.359-0.107c-0.144-0.151-0.139-0.39,0.011-0.534
				c1.508-1.445,3.212-1.07,3.283-1.053c0.203,0.047,0.33,0.251,0.282,0.454c-0.047,0.202-0.249,0.329-0.452,0.283l0,0
				c-0.056-0.012-1.386-0.292-2.591,0.862C325.681,217.682,325.62,217.714,325.556,217.729z"/>
			<path style="fill:#263238;" d="M333.823,219.475l-1.574-0.329C332.249,219.147,333.13,220.291,333.823,219.475z"/>
		</g>
		<path style="fill:#EBB376;" d="M305.721,248.688l0.749,2.343c0.282,0.881,0.972,1.572,1.853,1.854l4.117,1.319
			c1.646,0.527,3.445,0.225,4.828-0.812l0.856-0.642c-0.977-3.971-4.958-7.542-4.958-7.542l-1.022-1.144
			c-0.911-1.018-2.38-1.136-3.376-0.269l-2.293,1.995C305.683,246.479,305.383,247.632,305.721,248.688z"/>
		<path style="fill:#EBB376;" d="M278.035,250.834l0.749,2.343c0.282,0.881,0.972,1.572,1.853,1.854l4.117,1.319
			c1.646,0.527,3.445,0.225,4.828-0.812l0.856-0.642c-0.977-3.971-4.958-7.542-4.958-7.542l-1.022-1.144
			c-0.91-1.018-2.38-1.136-3.376-0.269l-2.293,1.995C277.997,248.625,277.697,249.778,278.035,250.834z"/>
		<path style="opacity:0.2;" d="M337.801,263.394c1.988,5.859,7.065,10.23,11.924,12.815c1.16-4.562,2.812-10.116,5.082-16.935
			c-3.048-4.265-7.321-7.294-12.754-6.475C342.053,252.799,335.787,257.459,337.801,263.394z"/>
		<g>
			<path style="fill:#EBB376;" d="M228.07,379.655l5.218,2.107c0,0,44.357-66.906,48.462-64.392
				c14.87,9.109,45.439,25.389,59.907,15.531c14.466-9.849,5.88-35.85,5.88-35.85s-28.135-9.875-31.611-3.77
				c-0.675,1.18-1.63,3.57-2.391,5.625c-0.727,1.935-1.286,3.569-1.286,3.569s-0.009-0.002-0.017-0.013
				c-0.851-0.404-28.431-13.67-41.419-8.206C257.618,299.816,228.07,379.655,228.07,379.655z"/>
		</g>
		<path style="fill:#EBB376;" d="M324.248,336.472c0,0-13.952,0.912-33.061-5.581c0,0-4.711,53.281-7.873,82.196l-6.409-0.902
			c0,0-10.888-78.933-8.734-88.556c2.154-9.624,13.801-10.255,13.801-10.255S304.271,329.736,324.248,336.472z"/>
		<path style="fill:#407BFF;" d="M324.248,336.472c-0.311-0.062-13.952,0.509-27.904-3.449l1.815-7.58
			C305.193,330.073,314.984,332.899,324.248,336.472z"/>
		<path style="opacity:0.4;fill:#FFFFFF;" d="M324.248,336.472c-0.311-0.062-13.952,0.509-27.904-3.449l1.815-7.58
			C305.193,330.073,314.984,332.899,324.248,336.472z"/>
		<polygon style="fill:#407BFF;" points="296.981,324.654 295.308,333.09 297.854,333.957 299.81,326.509 		"/>
		<polygon style="opacity:0.6;fill:#FFFFFF;enable-background:new    ;" points="296.981,324.654 295.308,333.09 297.854,333.957 
			299.81,326.509 		"/>
		<path style="opacity:0.2;enable-background:new    ;" d="M270.486,357.185c-1.008-20.968-1.441-31.84,2.008-36.177
			c3.449-4.336,8.85-5.118,8.85-5.118c4.476,11.35,24.025,18.435,24.536,18.624c0.009,0.002,0.009,0.002,0.009,0.002
			c7.294,1.515,18.094,1.904,18.358,1.956c-11.065-2.285-19.056-6.399-26.09-11.03c-9.73-6.411-16.188-12.065-16.188-12.065
			s-11.647,0.632-13.801,10.255c-0.878,3.934,0.425,19.46,2.263,36.445C270.508,359.003,270.523,358.035,270.486,357.185z"/>
		<g>
			<path style="fill:#263238;" d="M222.856,375.26c-0.097-0.199-0.14-0.524,0.199-0.943c0.165-0.203,0.393-0.319,0.678-0.344
				c0.538-0.049,1.239,0.253,1.884,0.631c-0.49-0.647-0.865-1.332-0.696-1.764c0.111-0.281,0.392-0.426,0.837-0.43
				c0.417-0.005,0.77,0.146,1.048,0.449c0.876,0.95,0.689,3.12,0.68,3.222c-0.003,0.035-0.014,0.07-0.034,0.102
				c-0.01,0.017-0.023,0.032-0.037,0.046c-0.022,0.021-0.047,0.037-0.074,0.048l-0.001,0l-0.001,0
				c-0.025,0.01-0.053,0.016-0.082,0.016c-0.384,0.005-1.689,0.003-2.789-0.216C223.715,375.928,223.058,375.678,222.856,375.26z
				 M223.774,374.436c-0.157,0.014-0.274,0.071-0.358,0.174c-0.225,0.277-0.163,0.405-0.143,0.447
				c0.234,0.484,1.904,0.719,3.313,0.764C225.783,375.208,224.505,374.369,223.774,374.436z M225.762,372.875
				c-0.133,0.001-0.363,0.021-0.408,0.136c-0.146,0.37,0.711,1.519,1.689,2.516c0.003-0.665-0.072-1.802-0.579-2.353
				c-0.138-0.15-0.299-0.243-0.488-0.28C225.909,372.88,225.837,372.874,225.762,372.875z"/>
		</g>
		<g>
			<path style="fill:#263238;" d="M270.651,407.62c-0.172-0.138-0.351-0.413-0.225-0.937c0.062-0.254,0.217-0.456,0.464-0.602
				c0.464-0.274,1.226-0.302,1.972-0.24c-0.72-0.374-1.354-0.831-1.386-1.293c-0.021-0.301,0.171-0.553,0.571-0.748
				c0.374-0.183,0.758-0.197,1.139-0.045c1.2,0.482,1.964,2.525,1.998,2.617c0.013,0.034,0.018,0.071,0.013,0.108v0.001v0
				c-0.002,0.017-0.006,0.034-0.012,0.05l0,0c0,0,0,0,0,0.001c-0.011,0.031-0.029,0.06-0.052,0.082
				c-0.016,0.017-0.035,0.031-0.056,0.043c0,0,0,0,0,0l0,0c-0.003,0.001-0.006,0.003-0.008,0.004
				c-0.467,0.229-2.438,1.16-3.667,1.16C271.092,407.823,270.83,407.764,270.651,407.62z M271.126,406.482
				c-0.136,0.08-0.217,0.182-0.248,0.31c-0.084,0.347,0.027,0.436,0.063,0.465c0.418,0.335,2.028-0.169,3.32-0.733
				C273.271,406.316,271.757,406.108,271.126,406.482z M272.25,404.218c-0.12,0.058-0.319,0.175-0.311,0.298
				c0.028,0.396,1.295,1.066,2.606,1.546c-0.282-0.602-0.839-1.597-1.533-1.875c-0.117-0.047-0.233-0.07-0.348-0.07
				C272.527,404.116,272.39,404.15,272.25,404.218z"/>
		</g>
		<path style="fill:#263238;" d="M236.58,379.509c0.285-0.658-7.952-3.838-7.952-3.838s-7.232,2.737-12.533,1.657
			c-5.301-1.08-3.952,3.022,1.393,5.487c5.345,2.465,9.424,4.346,13.222,6.097C234.507,390.663,233.625,386.333,236.58,379.509z"/>
		<path style="fill:#263238;" d="M284.87,405.56c-0.025-0.717-8.83-0.049-8.83-0.049s-5.355,5.579-10.606,6.881
			c-5.251,1.302-2.27,4.426,3.615,4.356c5.885-0.071,10.377-0.125,14.559-0.175C287.789,416.523,285.133,412.992,284.87,405.56z"/>
		<g>
			<path style="fill:#407BFF;" d="M347.535,297.05c0,0-28.135-9.875-31.611-3.77c-0.675,1.18-1.63,3.57-2.391,5.625
				c-0.727,1.935-1.286,3.569-1.286,3.569s-0.009-0.002-0.017-0.013c-0.034-0.016-2.307-1.059-2.307-1.059l-9.428,28.132
				c14.985,8.312,36.175,9.278,44.852,3.366C359.814,323.052,347.535,297.05,347.535,297.05z"/>
		</g>
		<g style="opacity:0.4;">
			<path style="fill:#FFFFFF;" d="M347.535,297.05c0,0-28.135-9.875-31.611-3.77c-0.675,1.18-1.63,3.57-2.391,5.625
				c-0.727,1.935-1.286,3.569-1.286,3.569s-0.009-0.002-0.017-0.013c-0.034-0.016-2.307-1.059-2.307-1.059l-9.428,28.132
				c14.985,8.312,36.175,9.278,44.852,3.366C359.814,323.052,347.535,297.05,347.535,297.05z"/>
		</g>
		<path style="opacity:0.3;enable-background:new    ;" d="M312.247,302.474l16.235,6.888c0,0-8.334-7.027-14.949-10.457
			C312.807,300.84,312.247,302.474,312.247,302.474z"/>
		<g>
			<polygon style="fill:#407BFF;" points="315.524,294.054 316.092,287.109 347.536,291.288 347.952,297.992 			"/>
			<polygon style="opacity:0.4;fill:#FFFFFF;" points="315.524,294.054 316.092,287.109 347.536,291.288 347.952,297.992 			"/>
			<g>
				<polygon style="fill:#263238;" points="316.155,287.789 317.796,288.029 317.286,293.439 315.926,293.279 				"/>
				<polygon style="fill:#263238;" points="319.356,288.249 337.086,290.829 336.626,295.749 318.856,293.629 				"/>
				<polygon style="fill:#263238;" points="347.536,297.049 338.195,295.939 338.646,291.059 338.655,291.059 347.086,292.279 				
					"/>
				<polygon style="opacity:0.2;enable-background:new    ;" points="316.155,287.789 317.796,288.029 317.286,293.439 
					315.926,293.279 				"/>
				<polygon style="opacity:0.2;enable-background:new    ;" points="319.356,288.249 337.086,290.829 336.626,295.749 
					318.856,293.629 				"/>
				<polygon style="opacity:0.2;enable-background:new    ;" points="347.536,297.049 338.195,295.939 338.646,291.059 
					338.655,291.059 347.086,292.279 				"/>
			</g>
			<path style="fill:none;stroke:#FFFFFF;stroke-linecap:round;stroke-linejoin:round;stroke-miterlimit:10;" d="M323.575,294.284
				l5.05,0.669c0.513,0.068,0.984-0.293,1.052-0.806l0.448-3.381c0.068-0.513-0.293-0.984-0.806-1.052l-5.05-0.669
				c-0.513-0.068-0.984,0.293-1.052,0.806l-0.448,3.381C322.701,293.746,323.062,294.216,323.575,294.284z"/>
			
				<line style="fill:none;stroke:#FFFFFF;stroke-linecap:round;stroke-linejoin:round;stroke-miterlimit:10;" x1="327.2" y1="291.999" x2="328.98" y2="292.281"/>
		</g>
		<g>
			<polygon style="fill:#407BFF;" points="308.576,299.458 311.198,300.841 302.308,331.058 298.576,330.318 			"/>
			<polygon style="opacity:0.6;fill:#FFFFFF;enable-background:new    ;" points="308.576,299.458 311.198,300.841 302.308,331.058 
				298.576,330.318 			"/>
		</g>
		<g>
			<path style="fill:#263238;" d="M306.479,268.949h-22.032c-0.849,0-1.597-0.691-1.671-1.544l-3.067-29.241
				c-0.074-0.853,0.555-1.544,1.404-1.544h22.032c0.849,0,1.597,0.691,1.671,1.544l3.068,29.241
				C307.956,268.258,307.328,268.949,306.479,268.949z"/>
			<path style="opacity:0.6;fill:#FFFFFF;" d="M306.479,268.949h-22.032c-0.849,0-1.597-0.691-1.671-1.544l-3.067-29.241
				c-0.074-0.853,0.555-1.544,1.404-1.544h22.032c0.849,0,1.597,0.691,1.671,1.544l3.068,29.241
				C307.956,268.258,307.328,268.949,306.479,268.949z"/>
			<path style="opacity:0.2;fill:#FFFFFF;" d="M305.558,268.949h-21.111c-0.849,0-1.597-0.691-1.671-1.544l-3.067-29.241
				c-0.074-0.853,0.555-1.544,1.404-1.544h21.111c0.849,0,1.597,0.691,1.671,1.544l3.068,29.241
				C307.035,268.258,306.407,268.949,305.558,268.949z"/>
			<path style="fill:#263238;" d="M292.712,250.394c-1.314,0-2.287,1.07-2.173,2.391c0.114,1.32,1.272,2.391,2.587,2.391
				s2.287-1.07,2.173-2.391C293.984,252.785,292.826,251.714,292.712,250.394z"/>
			<path style="opacity:0.3;" d="M297.48,238.942h-11.637c-0.568,0-1.11-0.348-1.366-0.879l-0.697-1.443h15.361l-0.448,1.443
				C298.53,238.594,298.048,238.942,297.48,238.942z"/>
		</g>
		<path style="fill:#407BFF;" d="M353.655,305.869h-4.09c0,0-5.11-15.34-8.09-28.34c-0.89-3.83-1.58-7.46-1.91-10.43
			c-0.49-4.41,0.06-8.33,0.99-11.58c1.84-6.39,5.18-10.22,5.18-10.22l-0.83-0.05c7.74-0.08,11.92,2.6,12.44,7.42
			c0.53,4.81-8.04,33.42-8.44,37.24C348.516,293.739,353.655,305.869,353.655,305.869z"/>
		<path style="fill:#407BFF;" d="M327.237,244.708c0,0-8.184,12.898-10.376,18.385c-2.193,5.487-0.935,21.176-0.935,21.176
			s-4.19-18.885-1.493-28.248C317.128,246.659,321.785,244.735,327.237,244.708z"/>
		<g>
			<path style="fill:#E9B376;" d="M355.285,256.335c-2.5,3.748-5.11,7.115-8.253,10.414c-1.58,1.639-3.246,3.231-5.357,4.734
				c-1.071,0.745-2.225,1.499-3.863,2.098c-0.825,0.291-1.8,0.555-3.017,0.592c-0.624,0.004-1.278-0.036-1.981-0.217
				c-0.324-0.072-0.733-0.22-0.992-0.323l-0.522-0.241c-1.37-0.656-2.442-1.395-3.422-2.163c-0.978-0.767-1.854-1.555-2.678-2.358
				c-1.65-1.607-3.094-3.287-4.466-4.992c-2.734-3.43-5.081-6.981-7.216-10.781c-0.673-1.199-0.248-2.716,0.951-3.389
				c1.008-0.566,2.242-0.355,3.009,0.44l0.052,0.055c2.826,2.929,5.765,5.874,8.695,8.595c1.467,1.361,2.969,2.657,4.463,3.807
				c1.46,1.145,3.073,2.151,4.199,2.554l0.197,0.07c-0.012-0.02-0.176-0.07-0.243-0.094c-0.195-0.048-0.321-0.078-0.424-0.077
				c-0.171-0.017-0.123-0.023,0.025-0.109c0.31-0.17,0.926-0.569,1.526-1.072c1.229-1.019,2.534-2.395,3.792-3.821
				c2.496-2.877,4.989-6.16,7.235-9.293l0.078-0.109c1.607-2.241,4.727-2.755,6.968-1.148
				C356.233,251.079,356.767,254.106,355.285,256.335z"/>
		</g>
		<path style="opacity:0.2;" d="M354.195,260.039c0,0-7.2,12.28-12.72,17.49c-0.89-3.83-1.58-7.46-1.91-10.43
			c-0.49-4.41,0.06-8.33,0.99-11.58c2.29-1.88,4.55-3.75,5.7-4.7C349.095,248.449,354.195,260.039,354.195,260.039z"/>
		<path style="fill:#407BFF;" d="M354.711,248.675c3.768,2.031,2.627,7.478-2.313,13.94c-4.94,6.461-13.88,15.188-18.575,13.594
			s-10.01-7.837-10.01-7.837l3.424-9.68c0,0,6.736,5.11,8.138,4.846c1.402-0.264,8.256-9.134,10.236-11.886
			C347.59,248.9,350.623,246.472,354.711,248.675z"/>
		<path style="fill:#FFB573;" d="M284.434,249.246l-0.143,1.919c-0.077,1.026-0.854,1.863-1.872,2.014l-2.608,0.387l0.616-7.041
			l2.179,0.387C283.726,247.102,284.518,248.113,284.434,249.246z"/>
	</g>
</g>
</svg>
