<?xml version="1.0" encoding="utf-8"?>
<!-- Generator: Adobe Illustrator 27.5.0, SVG Export Plug-In . SVG Version: 6.00 Build 0)  -->
<svg version="1.1" xmlns="http://www.w3.org/2000/svg" xmlns:xlink="http://www.w3.org/1999/xlink" x="0px" y="0px"
	 viewBox="0 0 500 500" style="enable-background:new 0 0 500 500;" xml:space="preserve">
<g id="Floor">
	
		<line style="fill:none;stroke:#263238;stroke-width:2.5;stroke-linecap:round;stroke-linejoin:round;stroke-miterlimit:10;" x1="46.313" y1="467.306" x2="453.687" y2="467.306"/>
</g>
<g id="User_icon">
	<g>
		<g>
			
				<circle style="fill:#EC644E;stroke:#EC644E;stroke-width:2.5;stroke-linecap:round;stroke-linejoin:round;stroke-miterlimit:10;" cx="121.654" cy="135.107" r="50.361"/>
			<path style="fill:#FFFFFF;" d="M172.02,135.112c0,18.83-10.34,35.25-25.66,43.89c12.54-9.16,20.68-23.97,20.68-40.68
				c0-27.82-22.55-50.36-50.36-50.36c-9.01,0-17.46,2.36-24.77,6.5c8.33-6.11,18.61-9.72,29.74-9.72
				C149.47,84.742,172.02,107.292,172.02,135.112z"/>
			
				<circle style="fill:none;stroke:#EC644E;stroke-width:2.5;stroke-linecap:round;stroke-linejoin:round;stroke-miterlimit:10;" cx="121.654" cy="135.107" r="50.361"/>
			<g>
				<g>
					
						<path style="fill:#FFFFFF;stroke:#EC644E;stroke-width:2.5;stroke-linecap:round;stroke-linejoin:round;stroke-miterlimit:10;" d="
						M140.603,130.937c0,10.467-8.484,18.951-18.95,18.951c-10.466,0-18.95-8.484-18.95-18.951c0-10.466,8.484-18.95,18.95-18.95
						C132.12,111.987,140.603,120.471,140.603,130.937z"/>
					
						<path style="fill:#FFFFFF;stroke:#EC644E;stroke-width:2.5;stroke-linecap:round;stroke-linejoin:round;stroke-miterlimit:10;" d="
						M153.249,174.062c-8.438,7.357-19.526,11.785-31.59,11.785c-12.064,0-23.152-4.428-31.59-11.785
						c3.731-13.912,16.457-24.163,31.59-24.163C136.792,149.899,149.518,160.15,153.249,174.062z"/>
				</g>
			</g>
		</g>
		
			<path style="fill:#FFFFFF;stroke:#EC644E;stroke-width:2.5;stroke-linecap:round;stroke-linejoin:round;stroke-miterlimit:10;" d="
			M65.587,172.113c-7.551,1.383-7.193,15.741,0.596,24.073c8.445,9.034,26.724,10.783,27.914,1.923
			c0.884-6.583-10.605-5.612-16.375-12.396C71.952,178.93,71.456,171.039,65.587,172.113z"/>
		
			<path style="fill:#FFFFFF;stroke:#EC644E;stroke-width:2.5;stroke-linecap:round;stroke-linejoin:round;stroke-miterlimit:10;" d="
			M182.672,117.755c5.439,0.661,7.708-10.884,4.062-17.835c-3.953-7.536-13.052-11.801-16.937-6.468
			c-2.876,3.948,3.107,7.83,5.685,13.372C178.061,112.365,178.445,117.241,182.672,117.755z"/>
		
			<path style="fill:#FFFFFF;stroke:#EC644E;stroke-width:2.5;stroke-linecap:round;stroke-linejoin:round;stroke-miterlimit:10;" d="
			M117.258,203.273c0,2.638-2.139,4.777-4.776,4.777c-2.638,0-4.777-2.139-4.777-4.777c0-2.638,2.139-4.776,4.777-4.776
			C115.12,198.496,117.258,200.635,117.258,203.273z"/>
	</g>
</g>
<g id="Device">
	<g>
		<path style="fill:#EC644E;" d="M424.294,42.804h-187.46c-10.46,0-18.96,8.64-18.96,19.32v385.87c0,10.65,8.5,19.31,18.96,19.31
			h187.46c10.46,0,18.98-8.66,18.98-19.31V62.124C443.274,51.444,434.754,42.804,424.294,42.804z M431.404,436.064
			c0,10.15-7.6,18.37-16.98,18.37h-167.7c-9.4,0-17.01-8.22-17.01-18.37V76.744c0-20.69,7.61-21.7,17.01-21.7h33.6
			c1.95,0,3.55,2.22,3.55,4.97v1.19c0,6.44,3.52,6.46,7.85,6.46h77.68c4.37,0,7.87-0.02,7.87-6.46v-1.19c0-2.75,1.58-4.97,3.56-4.97
			h33.59c9.38,0,16.98,2.75,16.98,21.7V436.064z"/>
		<path style="fill:#FFFFFF;" d="M424.29,42.8h-6.7c10.46,0,18.98,8.64,18.98,19.32v385.87c0,10.65-8.52,19.31-18.98,19.31h6.7
			c10.46,0,18.98-8.66,18.98-19.31V62.12C443.27,51.44,434.75,42.8,424.29,42.8z M370.57,60.01v1.19c0,6.44-3.5,6.46-7.87,6.46h6.7
			c4.37,0,7.87-0.02,7.87-6.46v-1.19c0-2.75,1.58-4.97,3.56-4.97h-6.7C372.15,55.04,370.57,57.26,370.57,60.01z"/>
		<path style="fill:#EC644E;" d="M283.87,61.2v-1.19c0-2.75-1.6-4.97-3.55-4.97h-6.7c1.95,0,3.55,2.22,3.55,4.97v1.19
			c0,6.44,3.52,6.46,7.85,6.46h6.7C287.39,67.66,283.87,67.64,283.87,61.2z"/>
		<path style="fill:none;stroke:#263238;stroke-width:2.5;stroke-linecap:round;stroke-linejoin:round;stroke-miterlimit:10;" d="
			M424.294,42.804h-187.46c-10.46,0-18.96,8.64-18.96,19.32v385.87c0,10.65,8.5,19.31,18.96,19.31h187.46
			c10.46,0,18.98-8.66,18.98-19.31V62.124C443.274,51.444,434.754,42.804,424.294,42.804z M431.404,436.064
			c0,10.15-7.6,18.37-16.98,18.37h-167.7c-9.4,0-17.01-8.22-17.01-18.37V76.744c0-20.69,7.61-21.7,17.01-21.7h33.6
			c1.95,0,3.55,2.22,3.55,4.97v1.19c0,6.44,3.52,6.46,7.85,6.46h77.68c4.37,0,7.87-0.02,7.87-6.46v-1.19c0-2.75,1.58-4.97,3.56-4.97
			h33.59c9.38,0,16.98,2.75,16.98,21.7V436.064z"/>
		
			<path style="fill:#FFFFFF;stroke:#263238;stroke-width:2.5;stroke-linecap:round;stroke-linejoin:round;stroke-miterlimit:10;" d="
			M431.378,117.014v319.05c0,10.15-7.6,18.37-16.98,18.37h-167.69c-9.4,0-17.01-8.22-17.01-18.37V99.124
			c42.21-7.43,79.73-0.86,122.38,10.47c3.94,1.04,7.92,2.12,11.95,3.24C397.988,122.254,422.208,118.964,431.378,117.014z"/>
		<g>
			
				<path style="fill:#9ABAE3;stroke:#263238;stroke-width:2.5;stroke-linecap:round;stroke-linejoin:round;stroke-miterlimit:10;" d="
				M431.378,76.744v50.27c-9.17,1.95-33.39,5.24-67.35-4.18c-4.03-1.12-8.01-2.2-11.95-3.24c-42.65-11.33-80.17-17.9-122.38-10.47
				v-32.38c0-20.69,7.61-21.7,17.01-21.7h33.6c1.95,0,3.55,2.22,3.55,4.97v1.19c0,6.44,3.52,6.46,7.85,6.46h77.67
				c4.37,0,7.87-0.02,7.87-6.46v-1.19c0-2.75,1.58-4.97,3.56-4.97h33.59C423.778,55.044,431.378,57.794,431.378,76.744z"/>
			
				<circle style="fill:#9ABAE3;stroke:#263238;stroke-width:2.5;stroke-linecap:round;stroke-linejoin:round;stroke-miterlimit:10;" cx="400.238" cy="128.964" r="13.852"/>
			
				<circle style="fill:#9ABAE3;stroke:#263238;stroke-width:2.5;stroke-linecap:round;stroke-linejoin:round;stroke-miterlimit:10;" cx="383.23" cy="154.311" r="8.06"/>
			<g>
				<g>
					<path style="fill:#FFFFFF;" d="M405.024,127.687c0,2.644-2.143,4.786-4.786,4.786c-2.643,0-4.786-2.143-4.786-4.786
						c0-2.643,2.143-4.786,4.786-4.786C402.882,122.901,405.024,125.044,405.024,127.687z"/>
					<path style="fill:#FFFFFF;" d="M408.218,138.579c-2.131,1.858-4.931,2.977-7.978,2.977c-3.047,0-5.847-1.118-7.978-2.977
						c0.942-3.514,4.157-6.103,7.978-6.103S407.276,135.065,408.218,138.579z"/>
				</g>
			</g>
		</g>
		<g>
			
				<polygon style="fill:#FFFFFF;stroke:#FFFFFF;stroke-width:2.5;stroke-linecap:round;stroke-linejoin:round;stroke-miterlimit:10;" points="
				260.119,85.118 258.249,85.118 258.249,91.685 249.149,91.685 249.149,85.118 247.279,85.118 253.699,79.798 			"/>
			<g>
				
					<line style="fill:none;stroke:#FFFFFF;stroke-width:2.5;stroke-linecap:round;stroke-linejoin:round;stroke-miterlimit:10;" x1="401.161" y1="81.503" x2="413.797" y2="81.503"/>
				
					<line style="fill:none;stroke:#FFFFFF;stroke-width:2.5;stroke-linecap:round;stroke-linejoin:round;stroke-miterlimit:10;" x1="401.161" y1="86.074" x2="413.797" y2="86.074"/>
				
					<line style="fill:none;stroke:#FFFFFF;stroke-width:2.5;stroke-linecap:round;stroke-linejoin:round;stroke-miterlimit:10;" x1="401.161" y1="90.646" x2="413.797" y2="90.646"/>
			</g>
		</g>
		
			<line style="fill:none;stroke:#9ABAE3;stroke-width:2.5;stroke-linecap:round;stroke-linejoin:round;stroke-miterlimit:10;" x1="259.482" y1="361.09" x2="401.595" y2="361.09"/>
		<g>
			<g>
				
					<path style="fill:#FFFFFF;stroke:#9ABAE3;stroke-width:2.5;stroke-linecap:round;stroke-linejoin:round;stroke-miterlimit:10;" d="
					M399.751,221.314H261.098c-1.895,0-3.432-1.536-3.432-3.432v-7.972c0-1.895,1.536-3.432,3.432-3.432h138.654
					c1.895,0,3.432,1.536,3.432,3.432v7.972C403.183,219.778,401.646,221.314,399.751,221.314z"/>
				<g>
					<g>
						<path style="fill:#263238;" d="M253.938,202.235v-5.942h4.034v1.205h-2.661v1.281h2.192v1.113h-2.192v2.343H253.938z"/>
						<path style="fill:#263238;" d="M258.592,197.339v-1.214h1.339v1.214H258.592z M258.592,202.235v-4.394h1.339v4.394H258.592z"
							/>
						<path style="fill:#263238;" d="M263.639,198.987c-0.323,0.006-0.616,0.059-0.879,0.159c-0.262,0.101-0.452,0.251-0.569,0.452
							v2.636h-1.339v-4.394h1.23v0.887c0.15-0.295,0.345-0.527,0.582-0.695c0.236-0.167,0.489-0.253,0.757-0.259
							c0.061,0,0.106,0,0.134,0c0.028,0,0.056,0.003,0.084,0.008V198.987z"/>
						<path style="fill:#263238;" d="M265.932,202.318c-0.374,0-0.742-0.06-1.104-0.18c-0.363-0.12-0.67-0.295-0.921-0.523
							l0.478-0.82c0.268,0.184,0.528,0.326,0.782,0.427s0.498,0.151,0.732,0.151c0.173,0,0.307-0.031,0.401-0.092
							c0.095-0.062,0.143-0.151,0.143-0.268c0-0.117-0.061-0.21-0.18-0.28c-0.12-0.069-0.331-0.144-0.632-0.222
							c-0.296-0.083-0.546-0.164-0.749-0.243c-0.204-0.078-0.37-0.165-0.498-0.259c-0.129-0.095-0.221-0.204-0.276-0.327
							c-0.056-0.122-0.084-0.268-0.084-0.435c0-0.223,0.045-0.427,0.134-0.611c0.09-0.184,0.212-0.34,0.368-0.469
							c0.156-0.128,0.342-0.229,0.557-0.301c0.215-0.073,0.448-0.109,0.699-0.109c0.329,0,0.638,0.045,0.925,0.134
							c0.287,0.089,0.564,0.251,0.833,0.485l-0.52,0.804c-0.251-0.173-0.474-0.298-0.669-0.377
							c-0.195-0.078-0.386-0.117-0.569-0.117c-0.146,0-0.268,0.029-0.368,0.088c-0.101,0.059-0.15,0.152-0.15,0.281
							c0,0.122,0.054,0.215,0.163,0.276c0.108,0.062,0.311,0.128,0.606,0.201c0.313,0.084,0.576,0.167,0.791,0.251
							c0.215,0.083,0.389,0.177,0.523,0.28c0.134,0.104,0.231,0.222,0.292,0.356c0.061,0.134,0.093,0.292,0.093,0.477
							c0,0.435-0.162,0.781-0.485,1.038C266.922,202.19,266.484,202.318,265.932,202.318z"/>
						<path style="fill:#263238;" d="M271.222,202.001c-0.185,0.078-0.395,0.151-0.633,0.218c-0.236,0.067-0.476,0.1-0.715,0.1
							c-0.168,0-0.325-0.021-0.474-0.063c-0.147-0.042-0.277-0.109-0.389-0.201c-0.111-0.092-0.199-0.213-0.264-0.364
							c-0.064-0.151-0.097-0.332-0.097-0.544v-2.294h-0.561v-1.013h0.561v-1.397h1.34v1.397h0.896v1.013h-0.896v1.833
							c0,0.145,0.036,0.25,0.108,0.314c0.072,0.064,0.165,0.096,0.276,0.096c0.101,0,0.203-0.017,0.309-0.05
							c0.105-0.034,0.198-0.07,0.276-0.109L271.222,202.001z"/>
						<path style="fill:#263238;" d="M277.925,202.235h-1.339v-2.469c0-0.29-0.055-0.501-0.163-0.632
							c-0.109-0.131-0.253-0.196-0.432-0.196c-0.095,0-0.189,0.02-0.284,0.059c-0.095,0.039-0.186,0.093-0.276,0.163
							c-0.089,0.07-0.169,0.152-0.238,0.247c-0.07,0.095-0.124,0.198-0.163,0.31v2.519h-1.339v-4.394h1.205v0.737
							c0.161-0.262,0.391-0.465,0.686-0.607c0.296-0.142,0.637-0.213,1.021-0.213c0.284,0,0.514,0.052,0.687,0.155
							c0.173,0.103,0.307,0.237,0.401,0.402c0.095,0.165,0.158,0.344,0.189,0.54c0.03,0.195,0.046,0.385,0.046,0.569V202.235z"/>
						<path style="fill:#263238;" d="M280.06,202.318c-0.218,0-0.42-0.035-0.608-0.105c-0.186-0.07-0.347-0.167-0.481-0.293
							c-0.134-0.126-0.239-0.273-0.317-0.443c-0.078-0.17-0.117-0.356-0.117-0.557c0-0.218,0.046-0.415,0.138-0.594
							c0.092-0.179,0.222-0.332,0.39-0.461c0.167-0.128,0.365-0.229,0.594-0.301c0.228-0.072,0.482-0.109,0.762-0.109
							c0.185,0,0.362,0.016,0.536,0.046c0.173,0.031,0.323,0.077,0.451,0.138v-0.201c0-0.508-0.293-0.762-0.878-0.762
							c-0.24,0-0.469,0.041-0.686,0.122c-0.218,0.081-0.446,0.202-0.686,0.364l-0.394-0.837c0.29-0.189,0.592-0.332,0.904-0.427
							c0.313-0.095,0.645-0.142,0.996-0.142c0.664,0,1.177,0.156,1.54,0.469c0.362,0.313,0.544,0.77,0.544,1.372v1.13
							c0,0.134,0.021,0.227,0.063,0.28c0.042,0.053,0.115,0.085,0.222,0.096v1.13c-0.117,0.028-0.224,0.046-0.318,0.054
							c-0.095,0.009-0.181,0.013-0.259,0.013c-0.251,0-0.441-0.049-0.569-0.146c-0.129-0.098-0.209-0.235-0.243-0.414l-0.024-0.201
							c-0.195,0.252-0.429,0.444-0.699,0.578C280.646,202.251,280.36,202.318,280.06,202.318z M280.452,201.356
							c0.146,0,0.286-0.025,0.423-0.075c0.137-0.05,0.25-0.117,0.339-0.201c0.129-0.101,0.192-0.207,0.192-0.318v-0.418
							c-0.117-0.045-0.244-0.08-0.381-0.105s-0.264-0.038-0.38-0.038c-0.246,0-0.448,0.056-0.607,0.167
							c-0.159,0.111-0.238,0.256-0.238,0.435c0,0.162,0.061,0.294,0.184,0.398C280.106,201.305,280.263,201.356,280.452,201.356z"/>
						<path style="fill:#263238;" d="M290.663,202.235h-1.339v-2.469c0-0.29-0.054-0.501-0.159-0.632
							c-0.106-0.131-0.243-0.196-0.41-0.196c-0.09,0-0.18,0.02-0.272,0.059c-0.092,0.039-0.177,0.093-0.255,0.163
							c-0.078,0.07-0.149,0.152-0.214,0.247c-0.064,0.095-0.115,0.198-0.154,0.31v2.519h-1.339v-2.469
							c0-0.29-0.054-0.501-0.159-0.632c-0.106-0.131-0.243-0.196-0.41-0.196c-0.179,0-0.354,0.071-0.523,0.213
							c-0.17,0.142-0.294,0.331-0.372,0.565v2.519h-1.339v-4.394h1.205v0.737c0.161-0.268,0.381-0.472,0.656-0.611
							c0.276-0.139,0.599-0.209,0.967-0.209c0.185,0,0.345,0.023,0.482,0.067c0.137,0.045,0.256,0.106,0.355,0.184
							c0.101,0.078,0.182,0.169,0.243,0.272c0.061,0.104,0.105,0.213,0.134,0.33c0.167-0.273,0.388-0.484,0.661-0.632
							c0.273-0.148,0.586-0.222,0.938-0.222c0.279,0,0.504,0.052,0.674,0.155c0.17,0.103,0.303,0.237,0.397,0.402
							c0.095,0.165,0.157,0.344,0.189,0.54c0.03,0.195,0.046,0.385,0.046,0.569V202.235z"/>
						<path style="fill:#263238;" d="M293.643,202.318c-0.368,0-0.699-0.06-0.992-0.18c-0.293-0.12-0.541-0.283-0.745-0.49
							c-0.203-0.206-0.358-0.445-0.464-0.715c-0.106-0.27-0.159-0.554-0.159-0.85c0-0.318,0.053-0.618,0.159-0.9
							c0.105-0.282,0.259-0.528,0.46-0.741c0.201-0.212,0.448-0.379,0.741-0.502c0.293-0.123,0.626-0.184,1-0.184
							c0.373,0,0.705,0.062,0.996,0.184c0.29,0.123,0.535,0.289,0.736,0.498c0.2,0.209,0.352,0.451,0.456,0.724
							c0.104,0.273,0.154,0.561,0.154,0.862c0,0.078-0.003,0.155-0.008,0.23c-0.006,0.076-0.014,0.141-0.025,0.197h-3.247
							c0.022,0.296,0.13,0.521,0.322,0.674c0.192,0.153,0.411,0.23,0.657,0.23c0.195,0,0.383-0.047,0.564-0.142
							c0.182-0.095,0.303-0.223,0.364-0.385l1.138,0.318c-0.173,0.346-0.441,0.627-0.803,0.845
							C294.585,202.21,294.15,202.318,293.643,202.318z M294.571,199.624c-0.028-0.279-0.128-0.499-0.301-0.661
							c-0.174-0.162-0.389-0.243-0.645-0.243c-0.263,0-0.479,0.083-0.649,0.247c-0.17,0.165-0.269,0.383-0.297,0.657H294.571z"/>
					</g>
				</g>
			</g>
			<g>
				
					<path style="fill:#FFFFFF;stroke:#9ABAE3;stroke-width:2.5;stroke-linecap:round;stroke-linejoin:round;stroke-miterlimit:10;" d="
					M399.751,255.738H261.098c-1.895,0-3.432-1.536-3.432-3.432v-7.972c0-1.895,1.536-3.432,3.432-3.432h138.654
					c1.895,0,3.432,1.536,3.432,3.432v7.972C403.183,254.202,401.646,255.738,399.751,255.738z"/>
				<g>
					<g>
						<path style="fill:#263238;" d="M253.938,236.659v-5.942h1.373v4.737h2.879v1.205H253.938z"/>
						<path style="fill:#263238;" d="M259.973,236.743c-0.218,0-0.42-0.035-0.607-0.104c-0.188-0.07-0.348-0.168-0.481-0.293
							c-0.134-0.126-0.24-0.273-0.318-0.444c-0.078-0.17-0.117-0.355-0.117-0.557c0-0.217,0.046-0.415,0.139-0.594
							c0.092-0.179,0.222-0.332,0.389-0.46c0.168-0.129,0.365-0.23,0.595-0.302c0.229-0.072,0.482-0.108,0.762-0.108
							c0.184,0,0.362,0.015,0.535,0.046c0.173,0.03,0.323,0.076,0.452,0.138v-0.2c0-0.508-0.293-0.762-0.879-0.762
							c-0.24,0-0.469,0.04-0.687,0.121c-0.218,0.081-0.446,0.202-0.686,0.364l-0.393-0.837c0.29-0.19,0.591-0.332,0.903-0.427
							s0.645-0.143,0.996-0.143c0.664,0,1.178,0.156,1.54,0.469s0.544,0.77,0.544,1.372v1.13c0,0.134,0.022,0.228,0.063,0.28
							c0.042,0.054,0.116,0.086,0.223,0.097v1.13c-0.117,0.028-0.224,0.046-0.318,0.055c-0.095,0.008-0.182,0.013-0.26,0.013
							c-0.251,0-0.44-0.05-0.569-0.146c-0.128-0.098-0.209-0.236-0.242-0.415l-0.025-0.2c-0.195,0.251-0.428,0.443-0.698,0.577
							C260.56,236.676,260.274,236.743,259.973,236.743z M260.366,235.78c0.145,0,0.286-0.025,0.423-0.075
							c0.137-0.05,0.249-0.117,0.339-0.201c0.128-0.101,0.192-0.206,0.192-0.317v-0.419c-0.117-0.045-0.244-0.079-0.381-0.104
							c-0.137-0.025-0.264-0.038-0.381-0.038c-0.245,0-0.448,0.057-0.607,0.168c-0.159,0.111-0.239,0.257-0.239,0.434
							c0,0.162,0.061,0.295,0.185,0.399C260.021,235.729,260.177,235.78,260.366,235.78z"/>
						<path style="fill:#263238;" d="M265.362,236.743c-0.374,0-0.742-0.061-1.105-0.181c-0.363-0.119-0.67-0.294-0.921-0.523
							l0.478-0.82c0.268,0.184,0.528,0.326,0.782,0.427c0.254,0.101,0.498,0.15,0.732,0.15c0.173,0,0.307-0.03,0.401-0.092
							c0.095-0.061,0.142-0.15,0.142-0.268s-0.06-0.211-0.18-0.28c-0.12-0.07-0.331-0.143-0.632-0.222
							c-0.296-0.084-0.546-0.165-0.749-0.243c-0.204-0.078-0.37-0.164-0.498-0.26c-0.129-0.095-0.221-0.203-0.276-0.326
							c-0.056-0.123-0.084-0.268-0.084-0.436c0-0.223,0.045-0.427,0.134-0.61c0.09-0.184,0.212-0.341,0.368-0.469
							c0.156-0.129,0.342-0.229,0.557-0.302c0.215-0.072,0.448-0.108,0.699-0.108c0.329,0,0.638,0.045,0.925,0.134
							c0.287,0.089,0.565,0.251,0.833,0.485l-0.52,0.804c-0.251-0.173-0.474-0.299-0.669-0.377
							c-0.195-0.078-0.386-0.117-0.569-0.117c-0.145,0-0.268,0.029-0.368,0.088c-0.101,0.059-0.15,0.152-0.15,0.28
							c0,0.123,0.054,0.215,0.163,0.276c0.108,0.062,0.311,0.129,0.607,0.201c0.313,0.084,0.576,0.167,0.791,0.251
							c0.215,0.084,0.389,0.177,0.523,0.28c0.134,0.104,0.232,0.222,0.292,0.355c0.062,0.134,0.093,0.293,0.093,0.477
							c0,0.435-0.162,0.781-0.485,1.037C266.352,236.614,265.915,236.743,265.362,236.743z"/>
						<path style="fill:#263238;" d="M270.652,236.425c-0.184,0.078-0.395,0.15-0.633,0.218c-0.236,0.066-0.476,0.101-0.715,0.101
							c-0.168,0-0.325-0.021-0.474-0.063c-0.147-0.041-0.277-0.108-0.389-0.2c-0.111-0.093-0.199-0.214-0.264-0.364
							c-0.064-0.15-0.097-0.332-0.097-0.544v-2.293h-0.561v-1.013h0.561v-1.398h1.34v1.398h0.895v1.013h-0.895v1.833
							c0,0.145,0.036,0.249,0.108,0.314c0.072,0.064,0.165,0.096,0.276,0.096c0.101,0,0.203-0.017,0.31-0.05
							c0.105-0.033,0.198-0.069,0.276-0.108L270.652,236.425z"/>
						<path style="fill:#263238;" d="M277.355,236.659h-1.339v-2.469c0-0.29-0.055-0.501-0.163-0.632
							c-0.109-0.131-0.253-0.197-0.432-0.197c-0.095,0-0.19,0.02-0.284,0.059c-0.095,0.039-0.186,0.094-0.276,0.163
							c-0.089,0.07-0.169,0.152-0.238,0.247c-0.07,0.095-0.124,0.198-0.163,0.31v2.52h-1.339v-4.394h1.205v0.736
							c0.161-0.263,0.391-0.465,0.685-0.607c0.296-0.142,0.637-0.213,1.022-0.213c0.284,0,0.514,0.052,0.686,0.154
							c0.173,0.104,0.307,0.237,0.401,0.402c0.095,0.164,0.158,0.345,0.189,0.54c0.03,0.195,0.046,0.385,0.046,0.568V236.659z"/>
						<path style="fill:#263238;" d="M279.49,236.743c-0.218,0-0.42-0.035-0.607-0.104c-0.186-0.07-0.347-0.168-0.481-0.293
							c-0.134-0.126-0.239-0.273-0.317-0.444c-0.078-0.17-0.117-0.355-0.117-0.557c0-0.217,0.046-0.415,0.138-0.594
							c0.092-0.179,0.222-0.332,0.39-0.46c0.167-0.129,0.365-0.23,0.594-0.302c0.229-0.072,0.482-0.108,0.762-0.108
							c0.185,0,0.362,0.015,0.536,0.046c0.173,0.03,0.323,0.076,0.451,0.138v-0.2c0-0.508-0.293-0.762-0.878-0.762
							c-0.24,0-0.469,0.04-0.687,0.121c-0.218,0.081-0.446,0.202-0.687,0.364l-0.394-0.837c0.29-0.19,0.592-0.332,0.904-0.427
							s0.645-0.143,0.996-0.143c0.664,0,1.177,0.156,1.54,0.469c0.362,0.313,0.544,0.77,0.544,1.372v1.13
							c0,0.134,0.021,0.228,0.063,0.28c0.042,0.054,0.115,0.086,0.222,0.097v1.13c-0.117,0.028-0.224,0.046-0.318,0.055
							c-0.095,0.008-0.181,0.013-0.259,0.013c-0.251,0-0.441-0.05-0.569-0.146c-0.129-0.098-0.209-0.236-0.243-0.415l-0.024-0.2
							c-0.195,0.251-0.429,0.443-0.699,0.577C280.077,236.676,279.791,236.743,279.49,236.743z M279.883,235.78
							c0.146,0,0.286-0.025,0.423-0.075c0.137-0.05,0.25-0.117,0.339-0.201c0.129-0.101,0.192-0.206,0.192-0.317v-0.419
							c-0.117-0.045-0.244-0.079-0.381-0.104c-0.137-0.025-0.264-0.038-0.38-0.038c-0.246,0-0.448,0.057-0.607,0.168
							c-0.159,0.111-0.238,0.257-0.238,0.434c0,0.162,0.061,0.295,0.184,0.399C279.537,235.729,279.693,235.78,279.883,235.78z"/>
						<path style="fill:#263238;" d="M290.094,236.659h-1.339v-2.469c0-0.29-0.054-0.501-0.159-0.632
							c-0.106-0.131-0.243-0.197-0.41-0.197c-0.09,0-0.18,0.02-0.272,0.059c-0.092,0.039-0.177,0.094-0.255,0.163
							c-0.078,0.07-0.149,0.152-0.214,0.247c-0.063,0.095-0.115,0.198-0.154,0.31v2.52h-1.339v-2.469
							c0-0.29-0.054-0.501-0.159-0.632c-0.107-0.131-0.243-0.197-0.41-0.197c-0.179,0-0.354,0.071-0.523,0.214
							c-0.17,0.143-0.294,0.33-0.372,0.564v2.52h-1.339v-4.394h1.205v0.736c0.161-0.268,0.381-0.472,0.656-0.611
							c0.276-0.14,0.599-0.209,0.967-0.209c0.185,0,0.345,0.023,0.481,0.066c0.137,0.045,0.256,0.107,0.355,0.185
							c0.101,0.078,0.182,0.169,0.243,0.272c0.061,0.103,0.105,0.213,0.134,0.33c0.167-0.273,0.388-0.484,0.661-0.632
							c0.273-0.147,0.586-0.222,0.938-0.222c0.279,0,0.504,0.052,0.674,0.154c0.17,0.104,0.303,0.237,0.398,0.402
							c0.095,0.164,0.157,0.345,0.188,0.54c0.03,0.195,0.046,0.385,0.046,0.568V236.659z"/>
						<path style="fill:#263238;" d="M293.073,236.743c-0.368,0-0.699-0.061-0.992-0.181c-0.293-0.119-0.541-0.282-0.745-0.489
							c-0.203-0.206-0.358-0.444-0.464-0.716c-0.107-0.271-0.159-0.554-0.159-0.85c0-0.317,0.053-0.617,0.159-0.899
							c0.105-0.281,0.259-0.528,0.46-0.74c0.201-0.212,0.448-0.38,0.741-0.503c0.293-0.122,0.626-0.184,1-0.184
							c0.373,0,0.705,0.062,0.996,0.184c0.29,0.123,0.535,0.289,0.736,0.498c0.2,0.21,0.353,0.451,0.456,0.725
							c0.104,0.273,0.154,0.561,0.154,0.861c0,0.079-0.003,0.155-0.008,0.23c-0.006,0.075-0.014,0.141-0.025,0.197h-3.247
							c0.023,0.295,0.13,0.52,0.322,0.673c0.192,0.154,0.411,0.23,0.657,0.23c0.195,0,0.383-0.047,0.564-0.143
							c0.182-0.095,0.303-0.223,0.364-0.385l1.138,0.318c-0.173,0.346-0.44,0.628-0.803,0.845
							C294.016,236.634,293.581,236.743,293.073,236.743z M294.002,234.048c-0.028-0.279-0.128-0.499-0.301-0.661
							c-0.174-0.162-0.389-0.243-0.645-0.243c-0.263,0-0.478,0.083-0.649,0.247c-0.17,0.165-0.268,0.384-0.297,0.657H294.002z"/>
					</g>
				</g>
			</g>
			<g>
				
					<path style="fill:#FFFFFF;stroke:#9ABAE3;stroke-width:2.5;stroke-linecap:round;stroke-linejoin:round;stroke-miterlimit:10;" d="
					M399.751,290.162H261.098c-1.895,0-3.432-1.536-3.432-3.432v-7.972c0-1.895,1.536-3.432,3.432-3.432h138.654
					c1.895,0,3.432,1.536,3.432,3.432v7.972C403.183,288.626,401.646,290.162,399.751,290.162z"/>
				<g>
					<g>
						<path style="fill:#263238;" d="M258.115,269.878v1.205h-4.177v-5.942h4.101v1.205h-2.728v1.155h2.343v1.113h-2.343v1.264
							H258.115z"/>
						<path style="fill:#263238;" d="M258.685,269.384v-1.205h2.577v1.205H258.685z"/>
						<path style="fill:#263238;" d="M269.12,271.083h-1.339v-2.469c0-0.29-0.053-0.501-0.159-0.632
							c-0.105-0.131-0.242-0.197-0.41-0.197c-0.089,0-0.18,0.02-0.271,0.059c-0.092,0.039-0.178,0.094-0.256,0.163
							c-0.078,0.07-0.148,0.152-0.213,0.247c-0.064,0.095-0.116,0.198-0.155,0.31v2.52h-1.339v-2.469
							c0-0.29-0.053-0.501-0.159-0.632c-0.105-0.131-0.242-0.197-0.41-0.197c-0.179,0-0.353,0.071-0.523,0.214
							c-0.171,0.143-0.295,0.33-0.373,0.565v2.52h-1.339v-4.393h1.205v0.736c0.162-0.268,0.381-0.472,0.657-0.611
							c0.276-0.14,0.599-0.209,0.967-0.209c0.184,0,0.345,0.022,0.482,0.066c0.137,0.045,0.255,0.106,0.355,0.185
							c0.101,0.078,0.181,0.169,0.242,0.272c0.062,0.103,0.107,0.213,0.135,0.33c0.167-0.274,0.388-0.484,0.661-0.632
							c0.272-0.147,0.586-0.222,0.937-0.222c0.279,0,0.504,0.052,0.674,0.154c0.171,0.104,0.303,0.237,0.397,0.402
							c0.096,0.164,0.158,0.345,0.189,0.54c0.031,0.195,0.046,0.385,0.046,0.568V271.083z"/>
						<path style="fill:#263238;" d="M271.246,271.167c-0.218,0-0.42-0.035-0.607-0.104c-0.188-0.07-0.348-0.168-0.481-0.293
							c-0.134-0.126-0.24-0.273-0.318-0.444c-0.078-0.17-0.117-0.355-0.117-0.557c0-0.217,0.046-0.415,0.139-0.594
							c0.092-0.179,0.222-0.332,0.389-0.46c0.168-0.129,0.365-0.229,0.595-0.302c0.228-0.072,0.482-0.108,0.762-0.108
							c0.184,0,0.362,0.015,0.535,0.046c0.173,0.03,0.323,0.076,0.452,0.138v-0.2c0-0.508-0.293-0.762-0.879-0.762
							c-0.24,0-0.469,0.04-0.686,0.121c-0.218,0.081-0.446,0.202-0.686,0.364l-0.393-0.837c0.29-0.189,0.591-0.332,0.903-0.427
							c0.313-0.095,0.645-0.142,0.996-0.142c0.664,0,1.178,0.156,1.54,0.469s0.544,0.77,0.544,1.372v1.13
							c0,0.134,0.022,0.228,0.063,0.28c0.042,0.054,0.116,0.086,0.223,0.097v1.13c-0.117,0.028-0.224,0.046-0.318,0.055
							c-0.095,0.008-0.182,0.013-0.26,0.013c-0.251,0-0.44-0.05-0.569-0.146c-0.128-0.098-0.209-0.236-0.242-0.415l-0.025-0.2
							c-0.195,0.251-0.428,0.443-0.698,0.577C271.833,271.1,271.548,271.167,271.246,271.167z M271.64,270.204
							c0.145,0,0.286-0.025,0.423-0.075c0.137-0.05,0.249-0.117,0.339-0.201c0.128-0.101,0.192-0.206,0.192-0.317v-0.419
							c-0.117-0.045-0.244-0.079-0.381-0.104c-0.137-0.025-0.264-0.038-0.381-0.038c-0.245,0-0.448,0.057-0.606,0.168
							c-0.159,0.111-0.239,0.257-0.239,0.435c0,0.162,0.062,0.295,0.185,0.398C271.294,270.152,271.45,270.204,271.64,270.204z"/>
						<path style="fill:#263238;" d="M274.903,266.186v-1.213h1.339v1.213H274.903z M274.903,271.083v-4.393h1.339v4.393H274.903z"
							/>
						<path style="fill:#263238;" d="M277.146,264.974h1.339v4.544c0,0.335,0.143,0.503,0.427,0.503c0.067,0,0.142-0.01,0.222-0.029
							c0.081-0.02,0.155-0.049,0.223-0.088l0.175,1.004c-0.167,0.078-0.359,0.14-0.577,0.185c-0.218,0.044-0.421,0.066-0.61,0.066
							c-0.386,0-0.682-0.101-0.888-0.301c-0.206-0.201-0.31-0.491-0.31-0.871V264.974z"/>
					</g>
				</g>
			</g>
			<g>
				
					<path style="fill:#FFFFFF;stroke:#9ABAE3;stroke-width:2.5;stroke-linecap:round;stroke-linejoin:round;stroke-miterlimit:10;" d="
					M399.751,324.587H261.098c-1.895,0-3.432-1.536-3.432-3.432v-7.972c0-1.895,1.536-3.432,3.432-3.432h138.654
					c1.895,0,3.432,1.536,3.432,3.432v7.972C403.183,323.05,401.646,324.587,399.751,324.587z"/>
				<g>
					<g>
						<path style="fill:#263238;" d="M253.938,305.508v-5.942h2.536c0.284,0,0.545,0.059,0.782,0.176
							c0.237,0.117,0.44,0.27,0.611,0.46c0.17,0.19,0.304,0.405,0.401,0.645c0.098,0.24,0.146,0.483,0.146,0.728
							c0,0.263-0.046,0.514-0.138,0.753c-0.093,0.24-0.221,0.455-0.386,0.645c-0.164,0.19-0.363,0.341-0.598,0.452
							c-0.234,0.111-0.494,0.167-0.778,0.167h-1.205v1.917H253.938z M255.311,302.395h1.121c0.162,0,0.301-0.07,0.418-0.209
							c0.117-0.14,0.176-0.344,0.176-0.611c0-0.14-0.018-0.26-0.054-0.36c-0.036-0.1-0.085-0.184-0.146-0.251
							c-0.062-0.066-0.132-0.115-0.209-0.146c-0.079-0.03-0.157-0.046-0.234-0.046h-1.071V302.395z"/>
						<path style="fill:#263238;" d="M260.249,305.592c-0.218,0-0.42-0.035-0.607-0.104c-0.186-0.07-0.347-0.168-0.481-0.293
							c-0.134-0.126-0.239-0.273-0.317-0.444c-0.078-0.17-0.117-0.355-0.117-0.557c0-0.217,0.046-0.415,0.138-0.594
							c0.092-0.179,0.222-0.332,0.39-0.46c0.167-0.129,0.365-0.229,0.594-0.302c0.229-0.072,0.482-0.108,0.762-0.108
							c0.185,0,0.362,0.015,0.536,0.046c0.173,0.03,0.323,0.076,0.451,0.138v-0.2c0-0.508-0.293-0.762-0.878-0.762
							c-0.24,0-0.469,0.04-0.687,0.121c-0.218,0.081-0.446,0.202-0.687,0.364l-0.393-0.837c0.29-0.189,0.592-0.332,0.904-0.427
							c0.313-0.095,0.645-0.143,0.996-0.143c0.664,0,1.177,0.156,1.54,0.469c0.362,0.313,0.544,0.77,0.544,1.372v1.13
							c0,0.134,0.021,0.227,0.063,0.28c0.042,0.054,0.115,0.086,0.222,0.097v1.13c-0.117,0.028-0.224,0.046-0.318,0.055
							c-0.095,0.008-0.181,0.013-0.259,0.013c-0.251,0-0.441-0.05-0.569-0.146c-0.129-0.098-0.209-0.236-0.243-0.415l-0.024-0.2
							c-0.195,0.251-0.429,0.443-0.699,0.577C260.836,305.524,260.55,305.592,260.249,305.592z M260.642,304.629
							c0.145,0,0.286-0.025,0.423-0.075c0.137-0.05,0.25-0.117,0.339-0.201c0.129-0.1,0.192-0.206,0.192-0.317v-0.419
							c-0.117-0.045-0.244-0.079-0.381-0.105c-0.137-0.025-0.264-0.038-0.38-0.038c-0.246,0-0.448,0.057-0.607,0.168
							c-0.159,0.111-0.238,0.257-0.238,0.435c0,0.162,0.061,0.295,0.184,0.398C260.296,304.577,260.452,304.629,260.642,304.629z"/>
						<path style="fill:#263238;" d="M265.639,305.592c-0.374,0-0.742-0.06-1.105-0.181c-0.362-0.119-0.669-0.294-0.92-0.522
							l0.477-0.82c0.268,0.184,0.528,0.326,0.782,0.427c0.254,0.101,0.498,0.15,0.732,0.15c0.173,0,0.308-0.03,0.402-0.092
							c0.095-0.062,0.142-0.15,0.142-0.268s-0.06-0.211-0.18-0.28c-0.12-0.07-0.33-0.144-0.632-0.222
							c-0.296-0.084-0.545-0.165-0.749-0.243c-0.204-0.078-0.369-0.164-0.498-0.26c-0.128-0.095-0.221-0.203-0.276-0.326
							c-0.056-0.123-0.083-0.268-0.083-0.436c0-0.223,0.044-0.427,0.134-0.61c0.089-0.185,0.212-0.341,0.368-0.469
							c0.156-0.129,0.342-0.228,0.557-0.302c0.215-0.072,0.447-0.108,0.698-0.108c0.329,0,0.638,0.045,0.925,0.134
							c0.288,0.089,0.565,0.251,0.833,0.485l-0.518,0.804c-0.251-0.173-0.475-0.299-0.67-0.377
							c-0.195-0.078-0.385-0.117-0.569-0.117c-0.145,0-0.268,0.029-0.368,0.088c-0.1,0.059-0.15,0.152-0.15,0.28
							c0,0.123,0.055,0.215,0.163,0.276c0.109,0.062,0.312,0.129,0.607,0.201c0.311,0.084,0.575,0.167,0.79,0.251
							c0.215,0.084,0.39,0.177,0.523,0.28c0.134,0.104,0.231,0.222,0.293,0.355c0.061,0.134,0.092,0.293,0.092,0.478
							c0,0.435-0.162,0.781-0.485,1.037C266.629,305.463,266.19,305.592,265.639,305.592z"/>
						<path style="fill:#263238;" d="M269.815,305.592c-0.374,0-0.742-0.06-1.105-0.181c-0.362-0.119-0.669-0.294-0.92-0.522
							l0.477-0.82c0.268,0.184,0.528,0.326,0.782,0.427c0.254,0.101,0.498,0.15,0.732,0.15c0.173,0,0.308-0.03,0.402-0.092
							c0.095-0.062,0.142-0.15,0.142-0.268s-0.06-0.211-0.18-0.28c-0.12-0.07-0.33-0.144-0.632-0.222
							c-0.296-0.084-0.545-0.165-0.749-0.243c-0.204-0.078-0.369-0.164-0.498-0.26c-0.128-0.095-0.221-0.203-0.276-0.326
							c-0.056-0.123-0.083-0.268-0.083-0.436c0-0.223,0.044-0.427,0.134-0.61c0.089-0.185,0.212-0.341,0.368-0.469
							c0.156-0.129,0.342-0.228,0.557-0.302c0.215-0.072,0.447-0.108,0.698-0.108c0.329,0,0.638,0.045,0.925,0.134
							c0.288,0.089,0.565,0.251,0.833,0.485l-0.519,0.804c-0.251-0.173-0.475-0.299-0.67-0.377
							c-0.195-0.078-0.385-0.117-0.569-0.117c-0.145,0-0.268,0.029-0.368,0.088c-0.101,0.059-0.15,0.152-0.15,0.28
							c0,0.123,0.055,0.215,0.163,0.276c0.109,0.062,0.311,0.129,0.607,0.201c0.311,0.084,0.575,0.167,0.79,0.251
							c0.215,0.084,0.39,0.177,0.523,0.28c0.134,0.104,0.231,0.222,0.293,0.355c0.062,0.134,0.092,0.293,0.092,0.478
							c0,0.435-0.162,0.781-0.485,1.037C270.806,305.463,270.367,305.592,269.815,305.592z"/>
						<path style="fill:#263238;" d="M277.59,301.114h1.273l-1.816,4.394h-1.097l-0.678-1.808l-0.678,1.808h-1.097l-1.816-4.394
							h1.265l1.196,3.155l0.41-1.197l-0.778-1.958h1.071l0.427,1.322l0.419-1.322h1.071l-0.771,1.958l0.41,1.197L277.59,301.114z"/>
						<path style="fill:#263238;" d="M281.223,305.592c-0.374,0-0.708-0.061-1-0.185c-0.293-0.122-0.54-0.289-0.741-0.498
							c-0.201-0.209-0.352-0.452-0.456-0.728c-0.103-0.276-0.155-0.565-0.155-0.866c0-0.302,0.052-0.591,0.155-0.866
							c0.104-0.276,0.255-0.52,0.456-0.728c0.201-0.209,0.448-0.377,0.741-0.502c0.292-0.126,0.626-0.189,1-0.189
							c0.373,0,0.705,0.063,0.996,0.189c0.29,0.125,0.535,0.293,0.736,0.502c0.2,0.209,0.354,0.452,0.46,0.728
							c0.106,0.275,0.159,0.565,0.159,0.866c0,0.301-0.052,0.59-0.155,0.866c-0.102,0.275-0.255,0.519-0.456,0.728
							c-0.2,0.209-0.447,0.376-0.74,0.498C281.93,305.53,281.596,305.592,281.223,305.592z M280.243,303.315
							c0,0.346,0.092,0.623,0.276,0.832c0.184,0.21,0.418,0.314,0.703,0.314c0.139,0,0.268-0.028,0.385-0.084
							c0.117-0.056,0.219-0.134,0.306-0.234c0.086-0.101,0.154-0.222,0.205-0.364c0.05-0.142,0.075-0.297,0.075-0.464
							c0-0.347-0.092-0.624-0.276-0.833c-0.185-0.209-0.416-0.314-0.694-0.314c-0.14,0-0.27,0.028-0.39,0.084
							c-0.12,0.056-0.223,0.134-0.31,0.234c-0.087,0.101-0.154,0.222-0.205,0.364C280.269,302.993,280.243,303.147,280.243,303.315z
							"/>
						<path style="fill:#263238;" d="M287.022,302.261c-0.324,0.005-0.617,0.059-0.879,0.159c-0.263,0.1-0.452,0.251-0.569,0.451
							v2.637h-1.339v-4.394h1.229v0.887c0.151-0.296,0.345-0.527,0.582-0.694c0.237-0.168,0.489-0.254,0.758-0.26
							c0.061,0,0.105,0,0.134,0c0.027,0,0.056,0.003,0.084,0.009V302.261z"/>
						<path style="fill:#263238;" d="M289.189,305.592c-0.302,0-0.579-0.058-0.833-0.172c-0.254-0.114-0.473-0.274-0.657-0.481
							c-0.184-0.206-0.327-0.447-0.431-0.724c-0.104-0.276-0.154-0.579-0.154-0.908c0-0.318,0.047-0.616,0.142-0.896
							c0.095-0.279,0.229-0.521,0.402-0.724c0.173-0.204,0.378-0.364,0.614-0.481c0.237-0.117,0.498-0.176,0.783-0.176
							c0.307,0,0.584,0.072,0.833,0.218c0.248,0.145,0.438,0.34,0.573,0.586v-2.436h1.339v4.603c0,0.134,0.021,0.227,0.063,0.28
							c0.042,0.054,0.116,0.086,0.222,0.097v1.13c-0.122,0.028-0.229,0.046-0.317,0.055c-0.09,0.008-0.174,0.013-0.252,0.013
							c-0.234,0-0.424-0.05-0.568-0.146c-0.146-0.098-0.229-0.239-0.251-0.423l-0.025-0.227c-0.156,0.273-0.367,0.478-0.632,0.611
							C289.773,305.524,289.49,305.592,289.189,305.592z M289.549,304.462c0.185,0,0.361-0.055,0.532-0.163
							c0.17-0.109,0.3-0.259,0.389-0.448v-0.921c-0.084-0.223-0.219-0.405-0.405-0.548c-0.187-0.143-0.381-0.214-0.582-0.214
							c-0.146,0-0.277,0.032-0.397,0.097c-0.12,0.065-0.225,0.15-0.314,0.255c-0.089,0.107-0.157,0.229-0.205,0.369
							c-0.047,0.139-0.07,0.287-0.07,0.443c0,0.162,0.026,0.313,0.079,0.452c0.053,0.139,0.126,0.259,0.218,0.359
							c0.092,0.101,0.203,0.179,0.335,0.234C289.258,304.434,289.398,304.462,289.549,304.462z"/>
					</g>
				</g>
			</g>
			<g>
				
					<path style="fill:#EC644E;stroke:#263238;stroke-width:2.5;stroke-linecap:round;stroke-linejoin:round;stroke-miterlimit:10;" d="
					M380.146,393.128H280.93c-1.895,0-3.432-1.536-3.432-3.432v-13.07c0-1.895,1.536-3.432,3.432-3.432h99.216
					c1.895,0,3.432,1.536,3.432,3.432v13.07C383.578,391.591,382.041,393.128,380.146,393.128z"/>
				<g>
					<path style="fill:#FFFFFF;" d="M287.322,382.946c0-0.497,0.094-0.991,0.279-1.484c0.186-0.492,0.458-0.933,0.814-1.32
						c0.357-0.388,0.792-0.702,1.304-0.942c0.512-0.24,1.094-0.36,1.745-0.36c0.775,0,1.449,0.167,2.019,0.5
						c0.57,0.334,0.995,0.768,1.274,1.303l-1.466,1.024c-0.093-0.217-0.212-0.397-0.355-0.541c-0.143-0.144-0.3-0.26-0.471-0.35
						c-0.171-0.089-0.346-0.15-0.523-0.186c-0.179-0.035-0.353-0.053-0.523-0.053c-0.365,0-0.684,0.074-0.954,0.222
						c-0.272,0.148-0.497,0.337-0.676,0.569c-0.178,0.233-0.31,0.497-0.396,0.792c-0.085,0.295-0.128,0.593-0.128,0.896
						c0,0.326,0.051,0.64,0.151,0.942s0.246,0.57,0.436,0.803c0.19,0.233,0.419,0.417,0.687,0.553
						c0.268,0.136,0.568,0.204,0.901,0.204c0.171,0,0.348-0.022,0.53-0.065c0.182-0.042,0.356-0.108,0.523-0.197
						c0.166-0.089,0.319-0.206,0.459-0.35c0.14-0.144,0.252-0.319,0.338-0.529l1.56,0.92c-0.125,0.302-0.309,0.573-0.553,0.814
						c-0.245,0.24-0.526,0.441-0.844,0.604c-0.318,0.163-0.656,0.287-1.013,0.372c-0.356,0.086-0.706,0.128-1.047,0.128
						c-0.598,0-1.147-0.122-1.647-0.366c-0.501-0.244-0.931-0.568-1.292-0.972c-0.36-0.403-0.64-0.86-0.838-1.373
						C287.422,383.993,287.322,383.474,287.322,382.946z"/>
					<path style="fill:#FFFFFF;" d="M299.528,382.632c-0.449,0.008-0.857,0.081-1.222,0.221c-0.364,0.14-0.628,0.35-0.791,0.629
						v3.665h-1.861v-6.108h1.71v1.233c0.21-0.411,0.479-0.733,0.809-0.966c0.33-0.233,0.681-0.354,1.054-0.361
						c0.085,0,0.146,0,0.185,0c0.039,0,0.077,0.004,0.116,0.012V382.632z"/>
					<path style="fill:#FFFFFF;" d="M302.927,387.263c-0.512,0-0.972-0.083-1.379-0.25c-0.407-0.167-0.753-0.394-1.036-0.681
						s-0.498-0.618-0.646-0.995c-0.147-0.376-0.221-0.77-0.221-1.181c0-0.442,0.073-0.859,0.221-1.251
						c0.148-0.392,0.36-0.735,0.64-1.03c0.279-0.294,0.623-0.527,1.03-0.697c0.407-0.171,0.87-0.257,1.391-0.257
						c0.52,0,0.981,0.086,1.385,0.257c0.403,0.17,0.744,0.401,1.023,0.692c0.279,0.29,0.49,0.626,0.635,1.006
						c0.143,0.38,0.215,0.779,0.215,1.198c0,0.109-0.004,0.216-0.012,0.32c-0.008,0.104-0.02,0.196-0.035,0.273h-4.515
						c0.031,0.411,0.181,0.724,0.448,0.936c0.268,0.214,0.572,0.32,0.913,0.32c0.271,0,0.533-0.065,0.786-0.198
						c0.252-0.132,0.42-0.31,0.506-0.535l1.582,0.442c-0.24,0.481-0.612,0.873-1.116,1.175
						C304.237,387.111,303.632,387.263,302.927,387.263z M304.218,383.516c-0.039-0.388-0.178-0.693-0.419-0.919
						c-0.24-0.225-0.539-0.337-0.896-0.337c-0.365,0-0.665,0.114-0.901,0.343c-0.237,0.229-0.375,0.533-0.413,0.913H304.218z"/>
					<path style="fill:#FFFFFF;" d="M308.768,387.263c-0.303,0-0.584-0.049-0.844-0.146c-0.26-0.097-0.482-0.232-0.669-0.407
						c-0.186-0.175-0.334-0.38-0.442-0.616c-0.108-0.237-0.163-0.495-0.163-0.775c0-0.302,0.065-0.577,0.192-0.826
						c0.128-0.248,0.309-0.461,0.541-0.64c0.232-0.179,0.508-0.318,0.826-0.419c0.318-0.101,0.671-0.151,1.059-0.151
						c0.256,0,0.505,0.021,0.745,0.064c0.24,0.042,0.449,0.106,0.628,0.191v-0.279c0-0.705-0.407-1.059-1.222-1.059
						c-0.333,0-0.651,0.057-0.954,0.169c-0.303,0.112-0.62,0.281-0.954,0.506l-0.547-1.163c0.403-0.264,0.822-0.462,1.257-0.594
						c0.435-0.132,0.895-0.198,1.385-0.198c0.923,0,1.637,0.218,2.141,0.652c0.504,0.435,0.757,1.07,0.757,1.908v1.57
						c0,0.187,0.028,0.316,0.087,0.39c0.059,0.074,0.161,0.119,0.309,0.134v1.571c-0.163,0.039-0.311,0.064-0.442,0.075
						c-0.132,0.012-0.252,0.018-0.36,0.018c-0.35,0-0.613-0.067-0.792-0.203c-0.178-0.136-0.29-0.328-0.337-0.576l-0.035-0.279
						c-0.271,0.35-0.596,0.617-0.972,0.803C309.584,387.17,309.186,387.263,308.768,387.263z M309.314,385.925
						c0.201,0,0.397-0.035,0.588-0.104c0.19-0.07,0.347-0.163,0.471-0.279c0.179-0.14,0.268-0.287,0.268-0.442v-0.582
						c-0.163-0.061-0.339-0.11-0.529-0.146c-0.19-0.034-0.366-0.052-0.529-0.052c-0.342,0-0.622,0.077-0.844,0.232
						c-0.221,0.155-0.331,0.356-0.331,0.605c0,0.225,0.085,0.409,0.256,0.552C308.833,385.853,309.051,385.925,309.314,385.925z"/>
					<path style="fill:#FFFFFF;" d="M317.762,386.82c-0.256,0.109-0.549,0.21-0.878,0.303c-0.33,0.093-0.662,0.14-0.995,0.14
						c-0.232,0-0.452-0.029-0.657-0.087c-0.206-0.059-0.387-0.151-0.541-0.279c-0.155-0.128-0.277-0.297-0.367-0.506
						c-0.089-0.21-0.134-0.462-0.134-0.757v-3.188h-0.779v-1.407h0.779v-1.943h1.862v1.943h1.245v1.407h-1.245v2.549
						c0,0.201,0.05,0.347,0.151,0.437c0.101,0.089,0.228,0.134,0.384,0.134c0.14,0,0.283-0.024,0.431-0.07
						c0.147-0.047,0.275-0.097,0.384-0.151L317.762,386.82z"/>
					<path style="fill:#FFFFFF;" d="M321.253,387.263c-0.512,0-0.972-0.083-1.379-0.25c-0.407-0.167-0.753-0.394-1.036-0.681
						s-0.498-0.618-0.646-0.995c-0.147-0.376-0.221-0.77-0.221-1.181c0-0.442,0.073-0.859,0.221-1.251
						c0.147-0.392,0.36-0.735,0.64-1.03c0.279-0.294,0.623-0.527,1.03-0.697c0.407-0.171,0.87-0.257,1.391-0.257
						c0.52,0,0.982,0.086,1.385,0.257c0.403,0.17,0.744,0.401,1.023,0.692c0.279,0.29,0.49,0.626,0.635,1.006
						c0.143,0.38,0.215,0.779,0.215,1.198c0,0.109-0.004,0.216-0.012,0.32s-0.02,0.196-0.035,0.273h-4.515
						c0.031,0.411,0.181,0.724,0.448,0.936c0.268,0.214,0.572,0.32,0.913,0.32c0.272,0,0.533-0.065,0.786-0.198
						c0.252-0.132,0.42-0.31,0.506-0.535l1.582,0.442c-0.24,0.481-0.612,0.873-1.116,1.175
						C322.564,387.111,321.958,387.263,321.253,387.263z M322.544,383.516c-0.039-0.388-0.178-0.693-0.419-0.919
						c-0.24-0.225-0.539-0.337-0.896-0.337c-0.365,0-0.665,0.114-0.901,0.343c-0.237,0.229-0.375,0.533-0.413,0.913H322.544z"/>
					<path style="fill:#FFFFFF;" d="M330.107,378.885h1.722l3.014,8.262h-1.954l-0.641-1.85h-2.571l-0.628,1.85h-1.955
						L330.107,378.885z M331.935,383.981l-0.966-2.921l-0.989,2.921H331.935z"/>
					<path style="fill:#FFFFFF;" d="M334.982,384.086c0-0.419,0.073-0.82,0.221-1.204c0.147-0.384,0.361-0.722,0.641-1.012
						c0.279-0.291,0.622-0.522,1.029-0.692c0.407-0.171,0.871-0.257,1.391-0.257c0.706,0,1.299,0.149,1.78,0.448
						c0.48,0.299,0.842,0.688,1.082,1.17l-1.816,0.547c-0.24-0.388-0.593-0.582-1.058-0.582c-0.388,0-0.712,0.144-0.972,0.431
						c-0.26,0.287-0.39,0.671-0.39,1.151c0,0.241,0.035,0.46,0.104,0.658c0.07,0.197,0.167,0.366,0.291,0.506
						c0.124,0.14,0.27,0.248,0.437,0.325c0.167,0.078,0.343,0.117,0.529,0.117c0.232,0,0.446-0.057,0.64-0.169
						c0.194-0.112,0.338-0.258,0.431-0.436l1.815,0.559c-0.225,0.474-0.584,0.861-1.076,1.163c-0.493,0.303-1.092,0.454-1.798,0.454
						c-0.512,0-0.972-0.087-1.379-0.262c-0.407-0.175-0.752-0.407-1.035-0.698c-0.283-0.291-0.499-0.628-0.646-1.012
						C335.056,384.906,334.982,384.505,334.982,384.086z"/>
					<path style="fill:#FFFFFF;" d="M341.557,384.086c0-0.419,0.073-0.82,0.221-1.204c0.148-0.384,0.361-0.722,0.641-1.012
						c0.279-0.291,0.622-0.522,1.029-0.692c0.407-0.171,0.871-0.257,1.391-0.257c0.706,0,1.299,0.149,1.78,0.448
						c0.48,0.299,0.842,0.688,1.082,1.17l-1.815,0.547c-0.24-0.388-0.593-0.582-1.059-0.582c-0.388,0-0.712,0.144-0.972,0.431
						s-0.39,0.671-0.39,1.151c0,0.241,0.035,0.46,0.105,0.658c0.07,0.197,0.167,0.366,0.291,0.506
						c0.124,0.14,0.27,0.248,0.437,0.325c0.167,0.078,0.343,0.117,0.529,0.117c0.232,0,0.446-0.057,0.64-0.169
						c0.194-0.112,0.338-0.258,0.431-0.436l1.815,0.559c-0.225,0.474-0.584,0.861-1.076,1.163c-0.493,0.303-1.092,0.454-1.798,0.454
						c-0.512,0-0.972-0.087-1.379-0.262c-0.407-0.175-0.752-0.407-1.035-0.698c-0.283-0.291-0.499-0.628-0.647-1.012
						C341.63,384.906,341.557,384.505,341.557,384.086z"/>
					<path style="fill:#FFFFFF;" d="M351.4,387.263c-0.52,0-0.983-0.085-1.391-0.256c-0.407-0.171-0.75-0.401-1.029-0.692
						c-0.279-0.291-0.491-0.628-0.635-1.013c-0.144-0.384-0.215-0.785-0.215-1.204c0-0.419,0.071-0.82,0.215-1.204
						c0.144-0.384,0.355-0.722,0.635-1.013c0.279-0.29,0.622-0.523,1.029-0.697c0.407-0.175,0.871-0.263,1.391-0.263
						s0.981,0.088,1.385,0.263c0.403,0.174,0.745,0.407,1.024,0.697c0.278,0.291,0.492,0.629,0.64,1.013
						c0.147,0.384,0.221,0.785,0.221,1.204c0,0.419-0.071,0.82-0.215,1.204c-0.144,0.385-0.355,0.722-0.635,1.013
						c-0.279,0.291-0.622,0.521-1.029,0.692S351.92,387.263,351.4,387.263z M350.039,384.098c0,0.481,0.128,0.867,0.384,1.158
						c0.256,0.291,0.582,0.437,0.978,0.437c0.194,0,0.372-0.039,0.535-0.117c0.163-0.077,0.305-0.186,0.425-0.325
						c0.12-0.14,0.216-0.309,0.285-0.506c0.07-0.198,0.105-0.413,0.105-0.646c0-0.48-0.128-0.866-0.384-1.157
						c-0.256-0.291-0.578-0.436-0.966-0.436c-0.194,0-0.374,0.039-0.541,0.116c-0.167,0.078-0.311,0.187-0.431,0.326
						c-0.12,0.14-0.215,0.308-0.285,0.506C350.074,383.65,350.039,383.865,350.039,384.098z"/>
					<path style="fill:#FFFFFF;" d="M357.439,387.263c-0.629,0-1.104-0.195-1.426-0.588c-0.321-0.392-0.482-0.967-0.482-1.728
						v-3.909h1.861v3.502c0,0.372,0.074,0.657,0.222,0.855c0.146,0.197,0.356,0.297,0.628,0.297c0.248,0,0.488-0.066,0.722-0.198
						c0.232-0.132,0.438-0.36,0.616-0.687v-3.77h1.862v4.014c0,0.187,0.028,0.316,0.087,0.39c0.059,0.074,0.161,0.119,0.309,0.134
						v1.571c-0.179,0.039-0.33,0.064-0.454,0.075c-0.124,0.012-0.236,0.018-0.337,0.018c-0.668,0-1.048-0.26-1.141-0.779
						l-0.035-0.372c-0.279,0.403-0.626,0.7-1.041,0.89C358.415,387.168,357.951,387.263,357.439,387.263z"/>
					<path style="fill:#FFFFFF;" d="M368.772,387.147h-1.861v-3.433c0-0.403-0.076-0.696-0.227-0.879
						c-0.151-0.182-0.352-0.273-0.6-0.273c-0.132,0-0.264,0.027-0.396,0.082c-0.132,0.055-0.26,0.13-0.384,0.227
						c-0.124,0.098-0.235,0.212-0.332,0.344c-0.097,0.132-0.173,0.275-0.227,0.431v3.502h-1.862v-6.108h1.676v1.023
						c0.225-0.364,0.543-0.646,0.954-0.844c0.411-0.197,0.885-0.297,1.42-0.297c0.395,0,0.714,0.072,0.954,0.216
						c0.24,0.144,0.427,0.33,0.559,0.559c0.132,0.228,0.219,0.478,0.262,0.75c0.042,0.271,0.063,0.535,0.063,0.792V387.147z"/>
					<path style="fill:#FFFFFF;" d="M373.904,386.82c-0.256,0.109-0.549,0.21-0.878,0.303c-0.33,0.093-0.661,0.14-0.995,0.14
						c-0.232,0-0.452-0.029-0.657-0.087c-0.206-0.059-0.386-0.151-0.541-0.279c-0.155-0.128-0.277-0.297-0.366-0.506
						c-0.09-0.21-0.134-0.462-0.134-0.757v-3.188h-0.78v-1.407h0.78v-1.943h1.861v1.943h1.245v1.407h-1.245v2.549
						c0,0.201,0.051,0.347,0.151,0.437c0.101,0.089,0.228,0.134,0.384,0.134c0.14,0,0.283-0.024,0.431-0.07
						c0.147-0.047,0.275-0.097,0.384-0.151L373.904,386.82z"/>
				</g>
			</g>
			<g>
				<path style="fill:#263238;" d="M257.504,171.168c-0.017-0.022-0.075-0.064-0.176-0.126c-0.101-0.061-0.226-0.125-0.377-0.192
					c-0.15-0.067-0.316-0.126-0.493-0.176c-0.179-0.05-0.357-0.075-0.536-0.075c-0.491,0-0.736,0.165-0.736,0.494
					c0,0.101,0.026,0.184,0.079,0.251c0.054,0.067,0.132,0.127,0.234,0.18c0.104,0.053,0.233,0.102,0.39,0.146
					c0.156,0.044,0.338,0.095,0.544,0.15c0.284,0.079,0.541,0.164,0.77,0.255c0.229,0.092,0.423,0.206,0.582,0.343
					c0.159,0.137,0.282,0.303,0.368,0.498c0.087,0.195,0.13,0.43,0.13,0.703c0,0.334-0.063,0.618-0.188,0.849
					c-0.125,0.232-0.291,0.419-0.498,0.561c-0.206,0.142-0.443,0.246-0.711,0.309c-0.268,0.064-0.544,0.096-0.829,0.096
					c-0.218,0-0.441-0.017-0.669-0.05c-0.229-0.033-0.452-0.082-0.67-0.146c-0.218-0.064-0.428-0.141-0.632-0.23
					c-0.204-0.089-0.392-0.192-0.565-0.31l0.603-1.197c0.021,0.028,0.095,0.081,0.217,0.159c0.123,0.078,0.275,0.156,0.456,0.234
					c0.182,0.078,0.384,0.148,0.607,0.21c0.223,0.061,0.449,0.092,0.678,0.092c0.485,0,0.729-0.148,0.729-0.443
					c0-0.112-0.037-0.204-0.109-0.276c-0.072-0.072-0.173-0.138-0.301-0.197c-0.129-0.059-0.28-0.113-0.456-0.163
					c-0.176-0.05-0.367-0.106-0.573-0.167c-0.273-0.083-0.511-0.174-0.712-0.272c-0.201-0.097-0.367-0.21-0.498-0.339
					c-0.131-0.128-0.229-0.276-0.293-0.443c-0.064-0.167-0.096-0.363-0.096-0.586c0-0.313,0.059-0.589,0.176-0.829
					c0.117-0.24,0.275-0.442,0.477-0.607c0.201-0.165,0.434-0.289,0.699-0.373c0.265-0.083,0.545-0.125,0.841-0.125
					c0.206,0,0.41,0.02,0.611,0.059c0.2,0.039,0.393,0.089,0.577,0.151c0.185,0.062,0.355,0.131,0.515,0.209
					c0.159,0.079,0.306,0.156,0.439,0.234L257.504,171.168z"/>
				<path style="fill:#263238;" d="M258.977,170.474v-1.214h1.339v1.214H258.977z M258.977,175.37v-4.394h1.339v4.394H258.977z"/>
				<path style="fill:#263238;" d="M262.943,175.386c-0.29,0-0.555-0.059-0.795-0.176c-0.239-0.117-0.444-0.276-0.615-0.477
					c-0.17-0.201-0.303-0.435-0.398-0.703c-0.095-0.268-0.142-0.555-0.142-0.862c0-0.324,0.05-0.624,0.15-0.9
					c0.101-0.276,0.239-0.516,0.418-0.72c0.179-0.204,0.394-0.364,0.645-0.481c0.251-0.117,0.527-0.176,0.829-0.176
					c0.335,0,0.626,0.071,0.874,0.213c0.248,0.142,0.448,0.339,0.599,0.59v-0.72h1.163v4.093c0,0.335-0.063,0.636-0.188,0.904
					c-0.126,0.268-0.301,0.495-0.523,0.682c-0.224,0.187-0.491,0.331-0.804,0.431c-0.313,0.1-0.655,0.15-1.029,0.15
					c-0.475,0-0.879-0.075-1.214-0.225c-0.335-0.151-0.627-0.369-0.879-0.653l0.72-0.729c0.162,0.184,0.363,0.331,0.604,0.439
					c0.239,0.109,0.496,0.163,0.77,0.163c0.162,0,0.315-0.022,0.46-0.067c0.146-0.044,0.273-0.113,0.386-0.205
					c0.111-0.092,0.199-0.212,0.264-0.36c0.063-0.148,0.096-0.325,0.096-0.531v-0.427c-0.134,0.246-0.326,0.431-0.577,0.557
					C263.505,175.324,263.233,175.386,262.943,175.386z M263.404,174.323c0.206,0,0.391-0.057,0.552-0.171
					c0.162-0.114,0.288-0.261,0.377-0.439v-0.92c-0.089-0.234-0.226-0.42-0.41-0.557c-0.184-0.137-0.379-0.205-0.586-0.205
					c-0.145,0-0.277,0.032-0.397,0.096c-0.12,0.064-0.223,0.151-0.31,0.259c-0.087,0.109-0.153,0.234-0.201,0.377
					c-0.047,0.142-0.07,0.289-0.07,0.439c0,0.162,0.026,0.311,0.079,0.448s0.127,0.255,0.222,0.355
					c0.095,0.101,0.205,0.179,0.331,0.234C263.115,174.295,263.254,174.323,263.404,174.323z"/>
				<path style="fill:#263238;" d="M270.828,175.37h-1.34v-2.469c0-0.29-0.054-0.501-0.163-0.632
					c-0.108-0.131-0.252-0.196-0.431-0.196c-0.095,0-0.189,0.02-0.284,0.059c-0.096,0.039-0.188,0.093-0.276,0.163
					c-0.09,0.07-0.169,0.152-0.239,0.247c-0.069,0.095-0.124,0.198-0.163,0.31v2.519h-1.339v-4.394h1.205v0.737
					c0.162-0.262,0.391-0.465,0.687-0.607s0.636-0.213,1.021-0.213c0.284,0,0.513,0.052,0.686,0.155
					c0.173,0.103,0.307,0.237,0.402,0.402c0.095,0.165,0.157,0.344,0.188,0.54c0.03,0.195,0.046,0.385,0.046,0.569V175.37z"/>
				<path style="fill:#263238;" d="M274.995,175.453c-0.452,0-0.794-0.141-1.025-0.422c-0.231-0.282-0.347-0.696-0.347-1.243v-2.812
					h1.339v2.52c0,0.268,0.053,0.473,0.159,0.615c0.105,0.143,0.257,0.213,0.452,0.213c0.178,0,0.352-0.047,0.519-0.142
					c0.167-0.095,0.315-0.259,0.443-0.494v-2.712h1.339v2.888c0,0.134,0.022,0.227,0.064,0.28c0.042,0.053,0.115,0.085,0.222,0.096
					v1.13c-0.129,0.028-0.237,0.046-0.326,0.054c-0.09,0.009-0.171,0.013-0.243,0.013c-0.479,0-0.753-0.187-0.82-0.56l-0.025-0.268
					c-0.2,0.291-0.45,0.504-0.749,0.64C275.697,175.385,275.363,175.453,274.995,175.453z"/>
				<path style="fill:#263238;" d="M281.69,175.453c-0.334,0-0.625-0.07-0.87-0.209c-0.245-0.14-0.435-0.335-0.569-0.586v2.494
					h-1.339v-6.177h1.163v0.711c0.162-0.251,0.364-0.446,0.607-0.586c0.242-0.139,0.531-0.209,0.866-0.209
					c0.296,0,0.567,0.059,0.815,0.176c0.249,0.117,0.464,0.277,0.645,0.481c0.182,0.204,0.324,0.444,0.427,0.72
					c0.104,0.276,0.155,0.574,0.155,0.892c0,0.329-0.048,0.633-0.143,0.912c-0.095,0.279-0.225,0.521-0.393,0.724
					c-0.167,0.204-0.368,0.364-0.603,0.481C282.218,175.395,281.964,175.453,281.69,175.453z M281.239,174.323
					c0.145,0,0.277-0.032,0.397-0.096c0.12-0.064,0.225-0.149,0.314-0.255c0.089-0.106,0.157-0.23,0.205-0.373
					c0.048-0.143,0.071-0.291,0.071-0.448c0-0.162-0.026-0.311-0.079-0.448c-0.054-0.137-0.126-0.255-0.218-0.356
					c-0.093-0.1-0.204-0.178-0.335-0.234c-0.131-0.056-0.272-0.083-0.423-0.083c-0.184,0-0.361,0.054-0.531,0.163
					c-0.17,0.109-0.3,0.255-0.39,0.439v0.904c0.09,0.223,0.225,0.41,0.406,0.561C280.839,174.248,281.032,174.323,281.239,174.323z"
					/>
				<path style="fill:#263238;" d="M286.503,175.37v-3.021h-0.561v-1.013h0.561v-0.36c0-0.273,0.036-0.521,0.108-0.745
					c0.073-0.223,0.176-0.413,0.311-0.569c0.134-0.156,0.295-0.276,0.485-0.36c0.189-0.083,0.398-0.126,0.627-0.126
					c0.357,0,0.739,0.086,1.147,0.259l-0.242,1.004c-0.09-0.039-0.189-0.071-0.297-0.096c-0.109-0.025-0.211-0.038-0.306-0.038
					c-0.329,0-0.494,0.206-0.494,0.619v0.41h1.021v1.013h-1.021v3.021H286.503z"/>
				<path style="fill:#263238;" d="M291.315,175.453c-0.374,0-0.707-0.061-1-0.184c-0.293-0.122-0.54-0.288-0.74-0.498
					c-0.201-0.209-0.354-0.452-0.457-0.728c-0.103-0.276-0.154-0.565-0.154-0.866c0-0.301,0.052-0.59,0.154-0.866
					c0.103-0.276,0.256-0.519,0.457-0.728c0.2-0.21,0.447-0.376,0.74-0.502c0.293-0.125,0.626-0.188,1-0.188
					c0.374,0,0.706,0.063,0.996,0.188c0.29,0.126,0.536,0.293,0.736,0.502c0.201,0.209,0.354,0.452,0.461,0.728
					c0.105,0.276,0.158,0.565,0.158,0.866c0,0.301-0.051,0.59-0.154,0.866c-0.104,0.276-0.256,0.519-0.456,0.728
					c-0.201,0.21-0.448,0.376-0.741,0.498C292.022,175.392,291.689,175.453,291.315,175.453z M290.336,173.177
					c0,0.346,0.093,0.623,0.276,0.833c0.185,0.209,0.419,0.313,0.703,0.313c0.14,0,0.268-0.028,0.385-0.083
					c0.117-0.056,0.22-0.134,0.306-0.234c0.087-0.101,0.155-0.222,0.205-0.364c0.051-0.142,0.075-0.297,0.075-0.464
					c0-0.346-0.092-0.624-0.275-0.833c-0.184-0.209-0.416-0.314-0.695-0.314c-0.14,0-0.27,0.028-0.389,0.083
					c-0.12,0.056-0.224,0.134-0.31,0.234c-0.087,0.101-0.155,0.222-0.205,0.364C290.361,172.855,290.336,173.009,290.336,173.177z"
					/>
				<path style="fill:#263238;" d="M297.115,172.122c-0.323,0.006-0.616,0.059-0.879,0.159c-0.262,0.101-0.452,0.251-0.569,0.452
					v2.636h-1.339v-4.394h1.23v0.887c0.15-0.295,0.345-0.527,0.582-0.695c0.236-0.167,0.489-0.253,0.757-0.259
					c0.062,0,0.106,0,0.134,0c0.028,0,0.056,0.003,0.084,0.008V172.122z"/>
				<path style="fill:#263238;" d="M299.71,175.37v-3.021h-0.562v-1.013h0.562v-0.36c0-0.273,0.036-0.521,0.108-0.745
					c0.072-0.223,0.176-0.413,0.31-0.569c0.134-0.156,0.296-0.276,0.485-0.36c0.189-0.083,0.399-0.126,0.628-0.126
					c0.357,0,0.739,0.086,1.147,0.259l-0.243,1.004c-0.089-0.039-0.188-0.071-0.297-0.096c-0.108-0.025-0.211-0.038-0.306-0.038
					c-0.329,0-0.493,0.206-0.493,0.619v0.41h1.021v1.013h-1.021v3.021H299.71z"/>
				<path style="fill:#263238;" d="M305.435,172.122c-0.324,0.006-0.617,0.059-0.879,0.159c-0.263,0.101-0.452,0.251-0.569,0.452
					v2.636h-1.339v-4.394h1.23v0.887c0.151-0.295,0.345-0.527,0.582-0.695c0.237-0.167,0.489-0.253,0.758-0.259
					c0.06,0,0.105,0,0.134,0c0.027,0,0.056,0.003,0.084,0.008V172.122z"/>
				<path style="fill:#263238;" d="M307.878,175.453c-0.368,0-0.698-0.06-0.991-0.18c-0.293-0.12-0.542-0.283-0.745-0.49
					c-0.204-0.206-0.358-0.445-0.465-0.715c-0.105-0.271-0.159-0.554-0.159-0.85c0-0.318,0.054-0.618,0.159-0.9
					c0.106-0.282,0.26-0.528,0.461-0.741c0.2-0.212,0.447-0.379,0.74-0.502c0.293-0.123,0.626-0.184,1-0.184
					c0.374,0,0.706,0.061,0.996,0.184c0.29,0.122,0.536,0.288,0.736,0.498c0.201,0.209,0.354,0.451,0.456,0.724
					c0.103,0.273,0.155,0.561,0.155,0.862c0,0.078-0.003,0.155-0.009,0.23c-0.005,0.076-0.014,0.141-0.024,0.197h-3.248
					c0.022,0.296,0.13,0.521,0.322,0.674c0.192,0.153,0.412,0.23,0.657,0.23c0.195,0,0.384-0.047,0.565-0.142
					c0.181-0.095,0.302-0.223,0.363-0.385l1.139,0.318c-0.173,0.346-0.44,0.628-0.804,0.845
					C308.821,175.345,308.386,175.453,307.878,175.453z M308.808,172.758c-0.028-0.279-0.129-0.499-0.302-0.661
					c-0.173-0.162-0.388-0.243-0.645-0.243c-0.263,0-0.479,0.082-0.648,0.247c-0.17,0.165-0.27,0.383-0.297,0.657H308.808z"/>
				<path style="fill:#263238;" d="M312.934,175.453c-0.368,0-0.699-0.06-0.992-0.18c-0.293-0.12-0.541-0.283-0.745-0.49
					c-0.203-0.206-0.358-0.445-0.464-0.715c-0.106-0.271-0.159-0.554-0.159-0.85c0-0.318,0.053-0.618,0.159-0.9
					c0.105-0.282,0.259-0.528,0.46-0.741c0.201-0.212,0.448-0.379,0.741-0.502c0.293-0.123,0.626-0.184,1-0.184
					c0.373,0,0.705,0.061,0.996,0.184c0.29,0.122,0.535,0.288,0.736,0.498c0.2,0.209,0.353,0.451,0.456,0.724
					c0.103,0.273,0.154,0.561,0.154,0.862c0,0.078-0.003,0.155-0.008,0.23c-0.006,0.076-0.014,0.141-0.025,0.197h-3.247
					c0.022,0.296,0.13,0.521,0.322,0.674c0.192,0.153,0.411,0.23,0.657,0.23c0.195,0,0.383-0.047,0.564-0.142
					c0.182-0.095,0.303-0.223,0.364-0.385l1.138,0.318c-0.173,0.346-0.44,0.628-0.803,0.845
					C313.876,175.345,313.441,175.453,312.934,175.453z M313.862,172.758c-0.028-0.279-0.128-0.499-0.301-0.661
					c-0.174-0.162-0.389-0.243-0.645-0.243c-0.263,0-0.478,0.082-0.649,0.247c-0.17,0.165-0.269,0.383-0.297,0.657H313.862z"/>
			</g>
			<g>
				<path style="fill:#EC644E;" d="M260.294,146.417h3.373l1.608,5.071l1.608-5.071h3.396l-2.658,7.372l1.608,4.267l3.976-11.66
					h3.999l-6.344,15.859H267.8l-2.524-6.21l-2.502,6.21h-3.082l-6.321-15.859h3.976l3.998,11.66l1.564-4.267L260.294,146.417z"/>
				<path style="fill:#EC644E;" d="M282.476,162.478c-0.983,0-1.865-0.16-2.647-0.48c-0.782-0.32-1.444-0.756-1.988-1.307
					c-0.544-0.551-0.957-1.188-1.239-1.91c-0.283-0.722-0.425-1.478-0.425-2.267c0-0.849,0.142-1.649,0.425-2.401
					c0.282-0.751,0.692-1.411,1.229-1.977s1.195-1.013,1.977-1.34c0.782-0.328,1.672-0.492,2.67-0.492
					c0.997,0,1.883,0.164,2.658,0.492c0.773,0.328,1.429,0.771,1.965,1.329c0.536,0.558,0.942,1.203,1.218,1.932
					c0.275,0.73,0.413,1.497,0.413,2.301c0,0.209-0.008,0.413-0.022,0.614c-0.015,0.201-0.037,0.376-0.066,0.525h-8.667
					c0.059,0.79,0.346,1.389,0.859,1.798c0.514,0.41,1.099,0.614,1.754,0.614c0.522,0,1.023-0.126,1.508-0.38
					c0.483-0.253,0.808-0.596,0.972-1.028l3.038,0.849c-0.462,0.923-1.177,1.675-2.145,2.256
					C284.991,162.188,283.83,162.478,282.476,162.478z M284.955,155.286c-0.075-0.745-0.343-1.333-0.805-1.765
					c-0.462-0.432-1.035-0.648-1.72-0.648c-0.7,0-1.277,0.22-1.732,0.659c-0.454,0.439-0.719,1.024-0.793,1.753H284.955z"/>
				<path style="fill:#EC644E;" d="M290.315,145.949h3.574v12.129c0,0.894,0.38,1.34,1.139,1.34c0.179,0,0.376-0.026,0.593-0.078
					c0.215-0.052,0.413-0.13,0.592-0.234l0.469,2.68c-0.446,0.209-0.961,0.373-1.541,0.492c-0.581,0.119-1.125,0.179-1.631,0.179
					c-1.027,0-1.817-0.268-2.368-0.804c-0.551-0.536-0.826-1.311-0.826-2.323V145.949z"/>
				<path style="fill:#EC644E;" d="M297.15,156.38c0-0.804,0.142-1.575,0.425-2.312c0.282-0.737,0.692-1.385,1.228-1.943
					c0.536-0.559,1.195-1.001,1.977-1.329c0.782-0.328,1.672-0.492,2.67-0.492c1.354,0,2.494,0.287,3.417,0.86
					c0.924,0.573,1.616,1.322,2.077,2.245l-3.484,1.05c-0.462-0.744-1.139-1.117-2.032-1.117c-0.745,0-1.367,0.276-1.865,0.827
					c-0.499,0.551-0.749,1.288-0.749,2.212c0,0.461,0.067,0.882,0.201,1.262c0.135,0.38,0.32,0.704,0.559,0.972
					c0.238,0.268,0.518,0.477,0.838,0.626c0.32,0.149,0.659,0.224,1.017,0.224c0.446,0,0.855-0.108,1.229-0.324
					c0.372-0.215,0.647-0.495,0.826-0.837l3.484,1.072c-0.432,0.908-1.12,1.653-2.065,2.233c-0.946,0.581-2.097,0.871-3.451,0.871
					c-0.983,0-1.865-0.167-2.647-0.502c-0.782-0.335-1.444-0.782-1.988-1.34c-0.544-0.558-0.957-1.206-1.239-1.943
					C297.292,157.955,297.15,157.184,297.15,156.38z"/>
				<path style="fill:#EC644E;" d="M316.048,162.478c-0.998,0-1.888-0.163-2.669-0.491c-0.782-0.327-1.441-0.771-1.978-1.329
					c-0.535-0.559-0.941-1.206-1.217-1.943c-0.275-0.737-0.413-1.508-0.413-2.312s0.138-1.575,0.413-2.312
					c0.275-0.737,0.682-1.385,1.217-1.943c0.536-0.558,1.195-1.005,1.978-1.34c0.781-0.335,1.671-0.503,2.669-0.503
					c0.998,0,1.884,0.167,2.658,0.503c0.774,0.335,1.43,0.782,1.966,1.34c0.536,0.559,0.945,1.206,1.228,1.943
					c0.283,0.737,0.425,1.508,0.425,2.312s-0.139,1.575-0.414,2.312c-0.275,0.737-0.681,1.385-1.217,1.943
					c-0.536,0.559-1.195,1.002-1.977,1.329C317.935,162.314,317.046,162.478,316.048,162.478z M313.435,156.402
					c0,0.924,0.246,1.664,0.737,2.223c0.491,0.559,1.116,0.838,1.876,0.838c0.372,0,0.715-0.075,1.027-0.224
					c0.314-0.148,0.585-0.357,0.815-0.626c0.23-0.268,0.413-0.592,0.548-0.972c0.134-0.379,0.201-0.793,0.201-1.24
					c0-0.923-0.246-1.664-0.737-2.223c-0.492-0.558-1.109-0.837-1.854-0.837c-0.372,0-0.719,0.075-1.038,0.223
					c-0.321,0.149-0.597,0.357-0.827,0.626c-0.23,0.268-0.413,0.592-0.547,0.972C313.502,155.542,313.435,155.956,313.435,156.402z"
					/>
				<path style="fill:#EC644E;" d="M342.629,162.255h-3.574v-6.589c0-0.774-0.142-1.336-0.424-1.686
					c-0.283-0.35-0.648-0.525-1.095-0.525c-0.238,0-0.48,0.052-0.726,0.156c-0.246,0.104-0.474,0.249-0.682,0.436
					c-0.209,0.187-0.398,0.406-0.569,0.659c-0.172,0.253-0.31,0.529-0.414,0.827v6.724h-3.574v-6.589
					c0-0.774-0.141-1.336-0.424-1.686s-0.647-0.525-1.094-0.525c-0.477,0-0.942,0.189-1.396,0.569
					c-0.454,0.38-0.786,0.882-0.994,1.508v6.724h-3.574v-11.727h3.217v1.966c0.432-0.715,1.017-1.258,1.754-1.631
					c0.736-0.372,1.597-0.559,2.58-0.559c0.491,0,0.919,0.06,1.284,0.179c0.364,0.12,0.681,0.283,0.949,0.492
					c0.268,0.209,0.483,0.451,0.647,0.726c0.164,0.276,0.282,0.57,0.357,0.882c0.446-0.729,1.035-1.292,1.765-1.686
					c0.73-0.395,1.564-0.592,2.502-0.592c0.744,0,1.344,0.138,1.798,0.414c0.454,0.275,0.808,0.633,1.062,1.072
					c0.253,0.439,0.42,0.92,0.502,1.441c0.082,0.521,0.123,1.028,0.123,1.519V162.255z"/>
				<path style="fill:#EC644E;" d="M350.581,162.478c-0.982,0-1.865-0.16-2.646-0.48c-0.782-0.32-1.444-0.756-1.988-1.307
					c-0.544-0.551-0.957-1.188-1.239-1.91c-0.283-0.722-0.425-1.478-0.425-2.267c0-0.849,0.142-1.649,0.425-2.401
					c0.282-0.751,0.692-1.411,1.228-1.977c0.536-0.566,1.194-1.013,1.977-1.34c0.781-0.328,1.672-0.492,2.669-0.492
					c0.998,0,1.884,0.164,2.658,0.492c0.774,0.328,1.43,0.771,1.966,1.329c0.536,0.558,0.941,1.203,1.218,1.932
					c0.275,0.73,0.413,1.497,0.413,2.301c0,0.209-0.008,0.413-0.022,0.614c-0.015,0.201-0.037,0.376-0.067,0.525h-8.667
					c0.06,0.79,0.347,1.389,0.86,1.798c0.514,0.41,1.098,0.614,1.754,0.614c0.521,0,1.023-0.126,1.508-0.38
					c0.483-0.253,0.808-0.596,0.972-1.028l3.037,0.849c-0.461,0.923-1.176,1.675-2.144,2.256
					C353.098,162.188,351.936,162.478,350.581,162.478z M353.06,155.286c-0.074-0.745-0.343-1.333-0.804-1.765
					c-0.462-0.432-1.035-0.648-1.72-0.648c-0.7,0-1.277,0.22-1.731,0.659c-0.454,0.439-0.719,1.024-0.793,1.753H353.06z"/>
				<path style="fill:#EC644E;" d="M359.158,155.956v-9.717h3.574v9.717H359.158z M359.158,162.255v-3.708h3.574v3.708H359.158z"/>
			</g>
			
				<rect x="257.666" y="335.651" style="fill:none;stroke:#263238;stroke-width:2.5;stroke-linecap:round;stroke-linejoin:round;stroke-miterlimit:10;" width="6.817" height="6.817"/>
			
				<line style="fill:none;stroke:#263238;stroke-width:2.5;stroke-linecap:round;stroke-linejoin:round;stroke-miterlimit:10;" x1="273.824" y1="335.651" x2="403.183" y2="335.651"/>
			
				<line style="fill:none;stroke:#263238;stroke-width:2.5;stroke-linecap:round;stroke-linejoin:round;stroke-miterlimit:10;" x1="273.824" y1="341.138" x2="343.991" y2="341.138"/>
		</g>
	</g>
</g>
<g id="Speech_Bubble">
	<g>
		
			<path style="fill:#FFFFFF;stroke:#263238;stroke-width:2.5;stroke-linecap:round;stroke-linejoin:round;stroke-miterlimit:10;" d="
			M148.552,224.072c12.582-4.817,29.132-3.492,39.741,5.301c9.447,7.825,12.537,21.97,8.063,33.256
			c-5.338,13.46-20.726,20.801-34.663,18.471c-0.923-0.156,0.805,6.312,4.824,9.946c1.578,1.427,3.157,2.769,5.01,3.715
			c-8.569-0.67-16.944-4.303-19.23-13.52c-10.215-3.193-25.275-12.574-25.662-25.968
			C126.225,241.359,135.844,228.926,148.552,224.072z"/>
		<path style="fill:#EC644E;" d="M155.75,267.025l-10.202-10.201c-0.515-0.515-0.515-1.351,0-1.866l3.092-3.092
			c0.515-0.515,1.351-0.515,1.866,0l5.679,5.68c0.275,0.275,0.721,0.275,0.996,0l17.309-17.309c0.516-0.515,1.351-0.515,1.866,0
			l3.091,3.091c0.515,0.515,0.515,1.351,0,1.866l-21.831,21.831C157.101,267.541,156.265,267.541,155.75,267.025z"/>
	</g>
</g>
<g id="Character">
	<g>
		<g>
			<g>
				<g>
					
						<path style="fill:#FCD8C3;stroke:#263238;stroke-width:2.5;stroke-linecap:round;stroke-linejoin:round;stroke-miterlimit:10;" d="
						M57.298,303.343c-3.106,6.637,28.842,14.625,28.842,14.625l8.454-9.475C94.593,308.492,60.195,297.151,57.298,303.343z"/>
					<g>
						
							<path style="fill:#FCD8C3;stroke:#263238;stroke-width:2.5;stroke-linecap:round;stroke-linejoin:round;stroke-miterlimit:10;" d="
							M95.918,341.653c-1.265,1.248-25.585-10.577-25.339-18.876c0.171-5.793,17.079-17.619,20.335-16.115
							c4.277,1.976,14.375,3.208,21.787,8.963c4.33,3.362,8.559,12.077,8.559,12.077L95.918,341.653z"/>
					</g>
					<g>
						<g>
							
								<path style="fill:#EC644E;stroke:#263238;stroke-width:2.5;stroke-linecap:round;stroke-linejoin:round;stroke-miterlimit:10;" d="
								M81.946,288.441l17.775,33.575c0.489,0.923,0.106,1.787-0.853,1.92l-17.176,2.383c-0.959,0.133-2.137-0.514-2.626-1.438
								l-17.775-33.575c-0.491-0.927-0.111-1.787,0.848-1.92l17.176-2.383C80.275,286.871,81.455,287.514,81.946,288.441z"/>
							
								<path style="fill:#EC644E;stroke:#263238;stroke-width:2.5;stroke-linecap:round;stroke-linejoin:round;stroke-miterlimit:10;" d="
								M65.679,288.896l17.176-2.383c0.959-0.133,2.139,0.51,2.63,1.437l17.775,33.575c0.489,0.923,0.106,1.787-0.853,1.92
								l-17.176,2.383"/>
							<path style="fill:#FFFFFF;" d="M83.768,290.831l15.14,28.598c0.428,0.808,0.137,1.55-0.649,1.659l-14.057,1.95
								c-0.788,0.109-1.772-0.456-2.2-1.264l-15.14-28.598c-0.872-1.647-0.276-1.816,0.511-1.925l2.817-0.391
								c0.163-0.023,0.391,0.135,0.507,0.354l0.05,0.095c0.271,0.513,0.567,0.473,0.93,0.423l6.511-0.903
								c0.366-0.051,0.659-0.093,0.388-0.606l-0.05-0.095c-0.116-0.219-0.077-0.414,0.089-0.437l2.816-0.391
								C82.217,289.192,82.97,289.323,83.768,290.831z"/>
						</g>
					</g>
					
						<path style="fill:#FCD8C3;stroke:#263238;stroke-width:2.5;stroke-linecap:round;stroke-linejoin:round;stroke-miterlimit:10;" d="
						M73.468,327.128c0,0-10.533-6.475-10.92-10.798c-0.387-4.323,0.581-9.848,4.358-10.688s12.424-0.367,11.204,3.923
						c-1.22,4.29-8.977,3.659-8.977,3.659"/>
					
						<path style="fill:#FCD8C3;stroke:#263238;stroke-width:2.5;stroke-linecap:round;stroke-linejoin:round;stroke-miterlimit:10;" d="
						M81.082,334.773c0,0-12.055-6.475-12.498-10.798c-0.443-4.323,0.665-9.848,4.988-10.688c4.323-0.84,14.219-0.367,12.824,3.922
						c-1.396,4.29-10.274,3.659-10.274,3.659"/>
				</g>
				<g>
					<path style="fill:#9ABAE3;" d="M164.043,367.381c0,0-14.643,23.021-20.022,24.545c-3.352,0.95-11.331,4.189-22.65-1.05
						c-10.586-4.9-38.998-48.954-38.998-48.954s3.506,5,21.846-14.107c8.134-8.474,12.857-4.699,17.678-11.886l15.826,22.139
						c0,0,19.57-27.465,34.462-28.182c9.872-0.475,17.79,2.096,17.79,2.096"/>
					
						<path style="fill:none;stroke:#263238;stroke-width:2.5;stroke-linecap:round;stroke-linejoin:round;stroke-miterlimit:10;" d="
						M164.043,367.381c0,0-14.643,23.021-20.022,24.545c-3.352,0.95-11.331,4.189-22.65-1.05
						c-10.586-4.9-38.998-48.954-38.998-48.954s3.506,5,21.846-14.107c8.134-8.474,12.857-4.699,17.678-11.886l15.826,22.139
						c0,0,19.57-27.465,34.462-28.182c9.872-0.475,17.79,2.096,17.79,2.096"/>
					<path style="fill:#263238;" d="M81.398,342.277c-1.727-2.163,4.173-6.357,4.173-6.357l6.138,4.197
						C91.709,340.117,82.839,344.081,81.398,342.277z"/>
					
						<path style="fill:none;stroke:#263238;stroke-width:2.5;stroke-linecap:round;stroke-linejoin:round;stroke-miterlimit:10;" d="
						M144.418,348.125c0,0-2.832-3.93-6.726-10.15"/>
					<path style="fill:#263238;" d="M122.535,314.913c-1.099-1.463-7.857,1.407-7.857,1.407l2.125,3.603
						C116.804,319.922,123.826,316.632,122.535,314.913z"/>
				</g>
			</g>
			<g>
				<g>
					<g>
						
							<path style="fill:#9ABAE3;stroke:#263238;stroke-width:2.5;stroke-linecap:round;stroke-linejoin:round;stroke-miterlimit:10;" d="
							M191.969,312.056c12.31,1.741,27.985-1.781,37.67,7.338c12.486,11.757,11.391,35.57,10.024,60.889
							c-0.172,3.192,6.215,29.289,8.033,42.504c0.794,5.769-2.132,9.774-2.559,8.271c-4.09-14.402-36.105-2.556-64.419-8.732
							c-15.223-3.32-46.396-18.921-49.108-17.094c0,0-4.589-0.788-1.135-11.729c3.454-10.941,22.35-34.316,22.35-34.316
							s-4.927-6.452,0.012-14.49c3.608-5.871,5.382-5.591,10.17-12.788c1.738-2.613,1.166-6.039,1.166-6.039"/>
					</g>
					<path style="fill:#263238;" d="M130.54,405.318c3.532-2.145,10.971,3.199,10.971,3.199l-3.048,2.073
						C138.463,410.59,128.754,406.403,130.54,405.318z"/>
					<path style="fill:#263238;" d="M244.818,431.713c-0.66-4.335-6.112-6.823-6.112-6.823l0.553,7.984
						C239.259,432.874,245.144,433.854,244.818,431.713z"/>
					
						<path style="fill:none;stroke:#263238;stroke-width:2.5;stroke-linecap:round;stroke-linejoin:round;stroke-miterlimit:10;" d="
						M162.498,364.28c0,0,13.94-0.296,24.761,3.092"/>
					
						<path style="fill:none;stroke:#263238;stroke-width:2.5;stroke-linecap:round;stroke-linejoin:round;stroke-miterlimit:10;" d="
						M175.03,368.677c0,0,9.24,2.197,12.98,5.295"/>
				</g>
			</g>
			
				<path style="fill:#FCD8C3;stroke:#263238;stroke-width:2.5;stroke-linecap:round;stroke-linejoin:round;stroke-miterlimit:10;" d="
				M159.953,314.987c0,0,15,17.684,31.781,18.518s28.126-18.303,28.126-18.303s-0.415-2.285-24.143-2.094
				c-6.949,0.056-8.874-4.239-23.532-3.222C163.993,310.455,159.953,314.987,159.953,314.987z"/>
			<g>
				<path style="fill:#263238;" d="M193.475,315.232c0,0-3.725,4.635-0.97,5.464c4.32,1.299,10.973-5.162,10.973-5.162
					L193.475,315.232z"/>
				<g>
					<g>
						<path style="fill:#FCD8C3;" d="M209.458,306.741c2.276-7.255-0.833-14.691-6.945-16.608
							c-6.112-1.917-12.911,2.41-15.187,9.666c-2.276,7.255,0.833,14.691,6.945,16.608
							C200.382,318.323,207.182,313.996,209.458,306.741z"/>
						<path style="fill:#FFFFFF;" d="M209.462,306.743c-2.282,7.255-9.082,11.578-15.187,9.658c-0.226-0.073-0.442-0.147-0.66-0.23
							c5.115-0.131,10.074-4.132,11.952-10.123c2.193-6.978-0.611-14.125-6.259-16.37c1.071-0.022,2.156,0.126,3.204,0.457
							C208.627,292.054,211.735,299.488,209.462,306.743z"/>
						
							<path style="fill:none;stroke:#263238;stroke-width:2.5;stroke-linecap:round;stroke-linejoin:round;stroke-miterlimit:10;" d="
							M209.458,306.741c2.276-7.255-0.833-14.691-6.945-16.608c-6.112-1.917-12.911,2.41-15.187,9.666
							c-2.276,7.255,0.833,14.691,6.945,16.608C200.382,318.323,207.182,313.996,209.458,306.741z"/>
					</g>
				</g>
				<path style="fill:#263238;" d="M193.817,291.322c0,0-0.217,16.471,14.771,17.627c0,0,4.938-11.67-2.622-16.839
					C200.627,288.462,193.817,291.322,193.817,291.322z"/>
			</g>
			<path style="fill:#263238;" d="M199.555,289.967c4.457-1.028,7.554-10.7,14.39-9.616c6.863,1.088,3.486,13.41,9.53,14.904
				c6.045,1.494,18.516-2.187,23.948,4.617c5.432,6.805,3.674,21.619-5.471,21.974c-9.944,0.386-5.921-16.309-12.808-18.459
				c-5.735-1.791-10.402,2.268-13.564-0.032c-4.616-3.357-0.655-13.4-4.011-14.591c-2.542-0.901-5.49,3.966-10.957,5.133
				L199.555,289.967z"/>
		</g>
		<g>
			<g>
				<g>
					<g>
						
							<polygon style="fill:#FCD8C3;stroke:#263238;stroke-width:2.5;stroke-linecap:round;stroke-linejoin:round;stroke-miterlimit:10;" points="
							157.495,435.019 177.845,446.818 143.995,464.944 126.775,458.533 						"/>
					</g>
					<g>
						
							<polygon style="fill:#263238;stroke:#263238;stroke-width:2.5;stroke-linecap:round;stroke-linejoin:round;stroke-miterlimit:10;" points="
							143.999,464.943 151.35,477.618 200.723,452.165 177.845,446.819 174.291,443.886 139.504,463.272 						"/>
						
							<path style="fill:none;stroke:#FFFFFF;stroke-width:2.5;stroke-linecap:round;stroke-linejoin:round;stroke-miterlimit:10;" d="
							M175.771,453.399c0,0,1.383-4.981,6.706-7.083"/>
						
							<path style="fill:none;stroke:#FFFFFF;stroke-width:2.5;stroke-linecap:round;stroke-linejoin:round;stroke-miterlimit:10;" d="
							M172.846,451.555c0,0,1.72-4.875,7.174-6.609"/>
						
							<path style="fill:#FFFFFF;stroke:#263238;stroke-width:2.5;stroke-linecap:round;stroke-linejoin:round;stroke-miterlimit:10;" d="
							M152.128,479.071l-8.129-14.129c4.004-1.256,17.292,1.924,20.785,0.856c3.493-1.068,6.226-5.098,8.914-6.188
							c2.687-1.089,5.592-0.894,7.223-1.768c1.632-0.874,3.007-6.773,7.085-8.65c4.078-1.877,16.669,2.725,13.496,4.425
							C198.328,455.317,152.128,479.071,152.128,479.071z"/>
					</g>
				</g>
				
					<path style="fill:#EC644E;stroke:#263238;stroke-width:2.5;stroke-linecap:round;stroke-linejoin:round;stroke-miterlimit:10;" d="
					M186.659,406.176c0,0-68.675-32.435-90.139-33.804c-21.464-1.369-37.171,11.659-36.925,29.494
					c0.246,17.836,13.343,38.87,70.682,64.988c0,0-0.754-3.047,2.093-5.476c2.848-2.429,29.653-1.879,36.583-13.941
					c6.93-12.063,7.179-9.124,7.179-9.124s-11.357-18.176-54.787-34.562l36.658,17.028L186.659,406.176z"/>
			</g>
			<g>
				<g>
					<g>
						
							<polygon style="fill:#FCD8C3;stroke:#263238;stroke-width:2.5;stroke-linecap:round;stroke-linejoin:round;stroke-miterlimit:10;" points="
							97.237,444.84 76.262,455.489 109.051,475.47 126.602,470.026 						"/>
					</g>
					<g>
						
							<polygon style="fill:#263238;stroke:#263238;stroke-width:2.5;stroke-linecap:round;stroke-linejoin:round;stroke-miterlimit:10;" points="
							109.047,475.468 101.003,487.716 53.122,459.555 76.262,455.49 79.974,452.759 113.628,474.05 						"/>
						
							<path style="fill:none;stroke:#EC644E;stroke-width:2.5;stroke-linecap:round;stroke-linejoin:round;stroke-miterlimit:10;" d="
							M76.262,461.613c0,0-1.104-5.051-6.302-7.445"/>
						
							<path style="fill:none;stroke:#EC644E;stroke-width:2.5;stroke-linecap:round;stroke-linejoin:round;stroke-miterlimit:10;" d="
							M80.99,460.497c0,0-1.446-4.964-6.795-6.998"/>
						
							<path style="fill:#FFFFFF;stroke:#263238;stroke-width:2.5;stroke-linecap:round;stroke-linejoin:round;stroke-miterlimit:10;" d="
							M100.145,489.123l8.902-13.654c-3.928-1.477-17.372,0.959-20.8-0.302c-3.428-1.261-5.933-5.437-8.556-6.674
							c-2.623-1.237-5.533-1.204-7.114-2.167c-1.581-0.963-2.625-6.929-6.592-9.03c-3.967-2.101-16.795,1.794-13.721,3.667
							C55.338,462.835,100.145,489.123,100.145,489.123z"/>
					</g>
				</g>
				<g>
					<path style="fill:#EC644E;" d="M168.79,463.19c0,0,8.243,6.464,21.814,10.335c13.571,3.87,42.239-2.705,48.848-31.044
						c6.61-28.339-10.585-49.706-17.756-55.357c-13.752-10.838-29.587-10.864-42.828-5.702
						c-13.241,5.161-88.153,61.783-88.193,63.237c-0.04,1.454-1.53,6.325,2.33,11.892c5.374,7.751,19.463,15.151,21.063,17.849
						c3.058,5.156,0.586,7.741,0.586,7.741s6.001,0.641,11.851-0.755C139.065,478.388,158.407,471.033,168.79,463.19z"/>
					<path style="fill:#FFFFFF;" d="M239.455,442.476c-6.139,26.287-31.242,33.851-45.678,31.713
						c14.309-1.129,32.59-10.031,37.697-31.935c6.613-28.332-10.579-49.7-17.755-55.355c-6.516-5.143-13.518-7.852-20.485-8.729
						c9.504-0.618,19.434,1.831,28.467,8.951C228.866,392.776,246.059,414.144,239.455,442.476z"/>
					
						<path style="fill:none;stroke:#263238;stroke-width:2.5;stroke-linecap:round;stroke-linejoin:round;stroke-miterlimit:10;" d="
						M168.79,463.19c0,0,8.243,6.464,21.814,10.335c13.571,3.87,42.239-2.705,48.848-31.044
						c6.61-28.339-10.585-49.706-17.756-55.357c-13.752-10.838-29.587-10.864-42.828-5.702
						c-13.241,5.161-88.153,61.783-88.193,63.237c-0.04,1.454-1.53,6.325,2.33,11.892c5.374,7.751,19.463,15.151,21.063,17.849
						c3.058,5.156,0.586,7.741,0.586,7.741s6.001,0.641,11.851-0.755C139.065,478.388,158.407,471.033,168.79,463.19z"/>
					
						<path style="fill:none;stroke:#263238;stroke-width:2.5;stroke-linecap:round;stroke-linejoin:round;stroke-miterlimit:10;" d="
						M168.79,463.19c10.948-4.828,34.31-31.761,34.31-31.761"/>
					
						<path style="fill:none;stroke:#263238;stroke-width:2.5;stroke-linecap:round;stroke-linejoin:round;stroke-miterlimit:10;" d="
						M195.796,440.275c0,0,5.434-0.59,9.26-4.191"/>
				</g>
			</g>
		</g>
		<g>
			<g>
				<g>
					
						<path style="fill:#FCD8C3;stroke:#263238;stroke-width:2.5;stroke-linecap:round;stroke-linejoin:round;stroke-miterlimit:10;" d="
						M180.792,375.321c-6.886,0.106-20.399-4.621-22.887-1.142c-3.855,5.392,15.023,10.39,15.023,10.39L180.792,375.321z"/>
					
						<path style="fill:none;stroke:#263238;stroke-width:2.5;stroke-linecap:round;stroke-linejoin:round;stroke-miterlimit:10;" d="
						M167.319,374.682c0,0-1.807,3.646-7.865-0.201"/>
				</g>
				
					<path style="fill:#FCD8C3;stroke:#263238;stroke-width:2.5;stroke-linecap:round;stroke-linejoin:round;stroke-miterlimit:10;" d="
					M201.206,375.602c-2.037,0.07-10.062-1.388-18.1-0.556c-27.286,2.822-30.408,17.821-25.306,17.308c0,0-1.928,1.495-0.854,4.681
					c0.242,0.72,2.667,3.753,7.495-0.106c0,0-3.787,4.422-0.25,6.035c2.788,1.272,5.851-2.32,14.331-2.967
					c3.457,2.29,10.887,4.657,17.745,4.576c2.53-0.03,8.837-0.719,8.137-0.714C205.756,403.813,209.932,382.779,201.206,375.602z"/>
				<path style="fill:none;stroke:#263238;stroke-width:2.5;stroke-linecap:round;stroke-linejoin:round;stroke-miterlimit:10;" d="
					M164.44,396.927c2.806-2.419,8.921-5.259,8.921-5.259"/>
				<path style="fill:none;stroke:#263238;stroke-width:2.5;stroke-linecap:round;stroke-linejoin:round;stroke-miterlimit:10;" d="
					M157.8,392.353c2.616-2.789,10.686-7.036,10.686-7.036"/>
			</g>
			<path style="fill:#9ABAE3;" d="M221.072,314.907c20.043,1.449,28.201,17.049,33.089,36.44
				c4.888,19.391,12.31,45.405,3.855,55.676c-1.145,1.391-7.858,8.377-18.606,7.74c-9.013-0.534-23.345,2.619-32.782,1.361
				c-6.019-0.803-9.775-6.291-9.775-6.291s5.192-2.176,4.216-17.378c-1.058-16.471-0.135-19.186-0.135-19.186
				s16.241-0.507,24.984,1.173"/>
			<path style="fill:#FFFFFF;" d="M258.015,407.021c-1.139,1.389-7.856,8.375-18.603,7.746c-8.739-0.523-22.476,2.426-31.903,1.463
				c8.689-0.198,19.024-2.051,26.095-1.625c10.747,0.629,17.464-6.357,18.613-7.745c8.449-10.269,1.03-36.285-3.862-55.679
				c-4.505-17.862-10.291-33.539-31.983-37.354l-0.085-0.543c26.588,1.871,32.983,18.675,37.876,38.059
				C259.045,370.736,266.474,396.753,258.015,407.021z"/>
			<path style="fill:none;stroke:#263238;stroke-width:2.5;stroke-linecap:round;stroke-linejoin:round;stroke-miterlimit:10;" d="
				M216.289,313.287c26.582,1.866,32.984,18.669,37.872,38.06c4.888,19.391,12.31,45.405,3.855,55.676
				c-1.145,1.391-7.858,8.377-18.606,7.74c-9.013-0.534-23.345,2.619-32.782,1.361c-6.019-0.803-9.775-6.291-9.775-6.291
				s5.192-2.176,4.216-17.378c-1.058-16.471-0.135-19.186-0.135-19.186s16.241-0.507,24.984,1.173"/>
			<path style="fill:none;stroke:#263238;stroke-width:2.5;stroke-linecap:round;stroke-linejoin:round;stroke-miterlimit:10;" d="
				M222.438,373.626c0,0-2.232-9.69-3.208-16.246"/>
			<path style="fill:#263238;" d="M196.248,410.043c-2.219,0.092-0.666-6.078-0.666-6.078l4.425,0.482
				C200.008,404.447,198.099,409.966,196.248,410.043z"/>
			
				<line style="fill:none;stroke:#263238;stroke-width:2.5;stroke-linecap:round;stroke-linejoin:round;stroke-miterlimit:10;" x1="219.715" y1="363.647" x2="216.432" y2="359.128"/>
		</g>
	</g>
</g>
</svg>
